<mxfile host="Electron" modified="2023-10-18T02:52:00.438Z" agent="Mozilla/5.0 (Windows NT 10.0; Win64; x64) AppleWebKit/537.36 (KHTML, like Gecko) draw.io/21.6.1 Chrome/112.0.5615.204 Electron/24.6.1 Safari/537.36" etag="9n85KebJVEnXj41tHRCN" version="21.6.1" type="device">
  <diagram name="ページ1" id="ctNLqcKJr0uB0SJuMR88">
    <mxGraphModel dx="794" dy="511" grid="1" gridSize="10" guides="1" tooltips="1" connect="1" arrows="1" fold="1" page="1" pageScale="1" pageWidth="827" pageHeight="1169" math="0" shadow="0">
      <root>
        <mxCell id="0" />
        <mxCell id="1" parent="0" />
        <UserObject label="" id="efof93Qg9sC8hvgrrkQ7-1">
          <mxCell style="rounded=0;whiteSpace=wrap;html=1;" vertex="1" parent="1">
            <mxGeometry x="80" y="80" width="720" height="480" as="geometry" />
          </mxCell>
        </UserObject>
        <mxCell id="efof93Qg9sC8hvgrrkQ7-2" value="" style="rounded=1;whiteSpace=wrap;html=1;" vertex="1" parent="1">
          <mxGeometry x="540" y="120" width="240" height="90" as="geometry" />
        </mxCell>
        <mxCell id="efof93Qg9sC8hvgrrkQ7-3" value="新しいタスクを作成" style="text;html=1;strokeColor=none;fillColor=none;align=center;verticalAlign=middle;whiteSpace=wrap;rounded=0;" vertex="1" parent="1">
          <mxGeometry x="540" y="90" width="120" height="30" as="geometry" />
        </mxCell>
        <mxCell id="efof93Qg9sC8hvgrrkQ7-4" value="タスク名:" style="text;html=1;strokeColor=none;fillColor=none;align=center;verticalAlign=middle;whiteSpace=wrap;rounded=0;" vertex="1" parent="1">
          <mxGeometry x="550" y="120" width="60" height="30" as="geometry" />
        </mxCell>
        <mxCell id="efof93Qg9sC8hvgrrkQ7-5" value="" style="rounded=0;whiteSpace=wrap;html=1;" vertex="1" parent="1">
          <mxGeometry x="610" y="130" width="120" height="10" as="geometry" />
        </mxCell>
        <mxCell id="efof93Qg9sC8hvgrrkQ7-6" value="重要度:" style="text;html=1;strokeColor=none;fillColor=none;align=center;verticalAlign=middle;whiteSpace=wrap;rounded=0;" vertex="1" parent="1">
          <mxGeometry x="556" y="140" width="60" height="30" as="geometry" />
        </mxCell>
        <mxCell id="efof93Qg9sC8hvgrrkQ7-8" value="" style="shape=image;verticalLabelPosition=bottom;labelBackgroundColor=default;verticalAlign=top;aspect=fixed;imageAspect=0;image=data:image/png,iVBORw0KGgoAAAANSUhEUgAAAx0AAABfCAYAAACN4appAAAAAXNSR0IArs4c6QAAAARnQU1BAACxjwv8YQUAAAAJcEhZcwAAFiUAABYlAUlSJPAAABy8SURBVHhe7Z1pcxvJkYaLxMn7EqWRZiSNZzze3QnP7obX//9HbGyEHWt7bM+hkzp44Qa5+VZ3QqVeiAQokGiQzyMls7pxdHV/qMoXWcfSuREAAAAAAACuieXcAwAAAAAAXAuIDgAAAAAAuFYQHQAAAAAAcK0gOgAAAAAA4FphIjkAwB3nqt3A0tJSXgIAALgYRAcAwC0nbeYnKYtxXUNRZPjxp847iBMAAEB0AADcUsaJitS7pcdOWnaKIkP+U2Vn3DkAALh7IDoAAG4hRQHhx16+yJy0LIrC4lOWvu7l1AMAwN0D0QEAcEsYJxjG+YvM3/MpimJieXn5/52bxgMAwN0A0QEAsOCkYqFoF+GvF/1lXEVA6D2ppecAAOD2g+gAAFhw1IyndnZ2NvKiGOg7sw74dU0nrY/wOqSZkdQAAOB2g+gAAFhwUpHh3k0oqL8o2E/LTvFYFLsLP5Z382Ovi5d1/dT0/WmdAADgdoPoAABYMLzZdp8G+G5+TqTBfdFEWhZpeRz+val3S4+9DvL6zrQexTqJogcAgNsDogMAYEHw5lreg/n0nJOWRRrcu/n51Iu0fBGfum56PrUi6bVTkxhx/D0AALD4IDoAABaAtKmW2EjN8SA9DeKL55y0LIrHk1DsPtJjL8uPsxRdW2LDzetylToBAEA5QXQAACwA3lTLD4fDKDbkZQrO3dLgPQ3gxU0H8Wn34vV1oZTej6hUKiPzexE3XWcAALgeEB0AACVHzbTMg3Uv+7EH6TIXGi46xDwDd9XPvdc5vQ+nWHd5LwMAwOKD6AAAKCnePMunAbufc4qBetHKQCo0xpnwusrrftzKcg8AAHB1EB0AACUkbZoVsKdDqlxMuI0THMJ9GfD7cT9OhPg51TsdbiXKdC8AADA95K0BAErKuKDcTSgQTzMCbjpftiDd6+R1lJhI6+v4/aX3LdwDAMBiQqYDAKBkeLAt8wA89R6sp0G7B+5pAF9m0nv0+3IT6b2l97go9wcAAB+D6AAAKBlpEK7hVH7OGReQi0UKyP1+5P1+U5/ek9+nGwAALB603gAAJcQDcDeRBt9eToPzRUL1dfN7Sk3oGfhcFpUBAGBxIdMBAFAi1CR7sO0mikF5GrRPS2z085Y/zzfYNWNhxKc6hvRqfmmrhRc+en0aXFjIUrElSyeV+70DAMBigegAACgBHnCLNOCW6EizAQq8Pei+iujQJexKubdrWeFM5ZH39+ldHyNxocvpivLL8foffDT7t6w3TInfv5tnOGTpvcuLq9w7AADMD0QHAEAJUFOsANuDbi/LK7hOg24Ptq8mOD4WGkMrRIvXstdyQaLXXXXkLoqJWBfzEhoVi/8rsW5Z+SMRkn9mUlQX97Feiejw+/d7LxoAAJQfRAcAQAnwAFtNsrzwAFyBtQuOVHRMg7f0LjgkMiQ2BrKh/Jkdf3j9zP6MOgcrqJwJDBccS6Eqq2Rexy489L4rVHGE7t9Fh2d63Pz+UwECAADlB9EBAFAC0l/2i82yiw23adBXSUjI61v7piz6JjJ6ue/0z0JnMIy+NzjLRIjZ0F6T+PCa6PMSGLUoNJZD3cqN2nJoVJdDM/c6V9Nr1Q/Cw/5GPw26//R5pLjgcEN0AAAsBogOAIA5o2bYf9V30eG/4rt5gD2p6PCWXYIjG0KVZTckLlr9YWj3Mn/cGZgNw5H5Vm8YhUdPosS8Pqev0XfJJCwkNCQyZBuNSlhvVMNGU74SVutmNfnlKD6U/bD/0U+DP4/Uuwk9gzTzAwAA5QfRAQAwR7wJluBwEx5Qy4oC5DK8VZdkkNhQdkNDqPomIk66mdA4yv2bk354cyrrhaP2ILSV+TBrmyBRxkPfFTMeZismJtZMWKyZwJDtrtbMqmFnrRZ2zG82q2HLbHOlGpomUJQR8SFY08gOFxippYLMBUdxjgsAAJQXRAcAwBzxJngwGIxEhwfW1Wo1eg+qJw2u9ZUWqkcv4RCzF4Pz0DXxcWjC4m2rH961zJvYeHHUNeuFF4fdKD5Oe8NwaoJEJrEiwZGJjvOwboJCWY0oLkxYPNioh/ub9ej31+thz8SHbNdM4qTuQ67MTysL0q7Jn4uekYSHnok/H4kOgfAAACg3iA4AgDnhza+8/5IvL/yXfBcd0wiOOKTKzL4uZiw0fCpmOMyU0Tg46YcD86MsR+4lSDoaelXIdGTf+XGmQ8OpJC72lO1Yq4Y9Ex337Pie+f31WtheqUWBsqHMh5lGWMX7sDpOqg/8+ei5uChLRYeeUZrpQHgAAJQXRAcAwBxIBYdMwbSb8KDaRcekSBz4alQSDUcmON6cmNAwUSGx8eq4F+2l2Ws7f5LP6ZAgaWtOxzDLiijLIeGiasaa2h9lLhrVpdHcjs18PoeExfZKNewr8yHRIR+zH7XoZRpipZWtMotVnRjPdKSiwwWHTERBg+gAACgtiA4AgDngYqNoRdEhmzSYto/HLMdodSoTD8pg/HrYDb++l3XC86NeeG7HMokPDb3SsCt5fU5L5ZobTSLXn7wUV6TKlsbN5mlo3oavXKVshg+1ksj4arsRnuyuhCc7zfB4txnfoyV1/TumQc/EBYdMzyN9NqkBAEA5QXQAAMyBVGik5hSD6svwj0osdCQkNCHc/EsTGT++aYe/H5iZl/h4dtiJXqJDn7Mrjz4/DVF8RBES4spVEhwPNhtRdHy91wzf3V8L3+2vml8NqyZOavmSuhIs0+BiIxUd40zPCwAAygktNADAnBgnNoQC6Glw4aAsh4ZUafUpzeF43x7EuRsSF5owLqGhIVVH7WxpXP/clbGPZkvyaoWs89DqZRPVNW8kDuGKk9SzrIqGd2kIlzIwV6EoMJz02RWfIwAAlAdEBwDAHPAA2UWHbFxgnQbYnyITHCEOi9KyuBIdx91BeN/KJoi/NgGgYVUaXqWy9uToSnS44LhirP7hutmQLu37IdHhc0c0b8RFh+oRRcdg+oulzyJ9HumzAwCAcoPoAACYE+OCZg+siwH2RejjspjpsOBfO4x7pkMrU8VMhwX+z8xipsNFR/65D1efDr+m5oFo4rk2F9R3S2BkmQ6Jjl54ZsLjwK6rfUE+J9Ph3svp80ufIQAAlI+ZzOnwTkdjib3TU4pfpl/e1KPlDgDgTuLyYclawlg+t+D7fGgN6NAa4rNQq1VDrWpmvpqvWJUG2BcR29q8zdX+GnHfjTi0qRd+PGiHP784DX9+mZkml+tf/n9maG64z9fQ3A2tYvV0rxknkz/dbYav91bC11bWXI+vdprxM5ffWYa6Kc3lcK9J5VpC1/ft8PkvmnwPAAAf/0Ajn84T9Plv6XtugpmIjq7Wde8NQsdMXks0uindPjxfiin4aBN3MwAAt4dlC/ErS+cxOK9Yub40CPXQj9ZYPgtb62thayOz1WZj1Bl45/Ap1IDH3caH2RK5Gt7087tO+OltJ/p/vOlE4aFJ5DK9L35ulorDUL+VTSrPJpfvrNbCo61GeJibJpP/Lrdv7q3E99sdRn8ZPoFcJqFxeno6sl6vN+pMvUMFALjrpO2ifpBpNBqhXq9HX6vVRudvst2cieg46fTD4Wk3HLbMzL841i63+qWtH960BkFDeAdnS+Yz8QEAcNeQ4Kia1UxgyK8v98L6ktlyN2zWhuHhvd3wcD8zCQ/vLFx8fAq14HF5XDPNl3jX6oe/vm6Hvx20wt/MS3xoydxn7zOvjMissxxCVfQ9OLQsrvbv0EaB99a1S3k9fP9wLfz+0Xr4wexfHqzl759MeKT7dPT7/fD27duRSXj4s5IBAEAI1Wo1igp5iYz19fWwtrYWbWVlJZ731xZKdLw76YbXh63wyuz1YTv8qF/Wcnt22As9ExzRTHQo6wEAcNeoLp2FhomNuokOZTa2K52wa7ZXbYd7jWH49vHD8M3jL8JvHz8K+7tbHwXSl4kOzc9w09yJP704za0VJ4/HHcjtvFaQiqLjmlA1VVP51VolbK5ku5HL/uOrjfBfTzbCHx5vhh++XB8JFPkLbi+SDqfqdrvh+fPn0Z49exYODw9Hz+iyZwUAcFeQmHBrNpthe3t7ZBIgynq4qe28CWYiOl6+b4d/HhyHnw5Oov3jbTf83Uz++VE/9HPBIR/neAAA3DGU3ZDgqJv4qC+fh50oOtpht9oJ9010fP/No/D9b76M9mh/5yPBcZno0MRxrVgl0+pU//3sJPxPbpo8/r41iJPKD9v9a802x1rmVdXGgeuNSlhrVKP/TxMdf3y6Gf74ZDMKkHSPDwmPi0hFh4ZT/fzzz+GXX36J/t27dyPBgegAAMiQ2PBMhoZUpaJjY2MjrK6uRlPW46bmw81E2mgDqrfWqf36vhf+8roTfjZ/cDoIJ73zmOHom+DIM/oAAHcStX/K9PbPl0P3bDm0hpVwNKiGd/1aeGN2PKiFzlk1nC99PMZ2kiBawkOmdlbzOrR8rQTIaW8Y987QjuPKcFx3Gxy/P7+InOqjRUa8TrKemTIyGg4W6zRBpVxUqGMsjkGewe9mAAC3Dl90Q0NS9WNNu90OJycnMTt8dHQUWq1WPH+TbejMRMc7Ex2/vO+a6GhH0fH6dBiOc9GhOR3qbOkbAOCucmZtYBQd1iZKdJya6DgeuuioW7kWuufVcJaIjkkEhxMDfGtkNU9cG/+1JTq6Eh3DGOQr8L8J4lXsj9r7WJ9YJwkPExpWD9VNpsnvk4oOURQe0zwbAIC7hsSEZ4mLokO2uKLDOjdNGP/FxMb/vhojOvJhVTd3WwAA5ULtnxbTGGU6zpJMR68ejqLoqITzpcnmcqSoz1AeQ7piYAfKJmSZjmzvDE0wj3M5bqgR1mVUJ10yExwfshya9J5lOjJBMsmuHUXBcRVRBgBwl/BMh0SH5sJJZBwfH4f3799H0eGr/y2c6FB1YwrdKq7ORabOJHY8uQEAwIc2Ue28duzQMuIKvP14NCliWryhNR/3ThpZduwvz4X84qqF7lN10imVRy9OCYIDAOByXFTIy3z58fT8TTET0QEAAOXAuw959SXxOB6oMD+8Ht6/jTq6OdcLAABuBkQHAMCCo7jdLZIfxMD+Bn/FuhBVJbos25GVAQDgrjAT0aEk97KWP1zKlkCMyyBqvG3+GklwAICMUbtof5Ys7NZO5WqI/fgqobh/34h4Qv/zwrxRXWJ9vE6fX6ubHBIAALCo+FBUnwdXnDN4k0NVZyI6mrXlsLdaDV9t18Pv7q+Ex+b31ypho74U16OvmlXsnm7utgAAyoXav7gjuTYJXD4Lq8vDsFkdhJ1aP+zVe2Gz0g+NpUFYOs/G26Zjbi8ltq/6sceuUQmhUV2Om/NpV3DtkaE2unpDjbAuoT5Mph+f9CNUza5dl1m9GtWlWJ9axepkr03S4ek5+KRI2VTPBgDgDuKLb2ivDu3ToT05tD+H9unY2tqKO5NrY8DFEx3WkexE0dEI3+2PER2x8zmPnRAAwF1k2dpAtYM1axMlOtYqw7BRMdFR7YW9Ws/KEh3DsHz+IaieNLBW02rxe9xkT4G8gvvV+nJYb1bDmomOhkSH3nDNxCvYHwmgWB/rYSR2anYgkSExpLrIS4Rog8BJq5UKj1R0qMO8yU4TAGARULvookPiQpsAaidyCQ6ZRMjCio5dEx1fmtj4br8ZRce9tWpYz0VHzTpadSx0CwBwV1H7F0WHZzpMdIwyHbnoaMZMx8dB9STCQ32GLAb51tgqm7BSr4SNuCN4JbbRCv7171pRPfJrxA7P6pJlOkxkWJ1kEhyqj87p9Un6u1RwuBWfC8IDAOADnunQjuRF0bG5uTkX0bFkDfdkP6VdwLuTbnh92AqvzF4ftsOPbzoje3bYi3t1RMs3xwIAuGtUJTZMdNRNcEh0bFc6YbfSDntm9xrD8O3jh+Ebs98+eRj2d7djh1EcezsOteDa98Lt4LQX/vTiNPz5RSv6X99b+3zSCwfR+ha8ayr37FENVU9VVabhXVsr1WibzWr49y/Xwx8eb4Y/PNkIv3+0HrMy+jFKXu+/CIkMrTXv680/f/58ZFpvXtf1ZwUAACGKDbdmsxmHVblJfEhwuN1U2zkT0XHS6YfD0244bJmZf3HcDy+Oemb9uGmgdiTXBoHaGEvrswMA3DWU5YhzOkxwyK8v9cL6ctd8N2zWhuHh/m74wuzR/l7Y2lj7SHBcJjq04V40a2zftvrhr69a4a+v22at8PO7Tnh+aIG62mTz2kdJn/FVpGaFqqg5HFpURGJiw4TG3lptZN8/XAs/PNoIP5j4+NcHa/H9ep8yIxfcXiTNcPT7/fD27duRacMrRAcAwMdoWJUPr5LwkNDQPA6Zsh46769d1MfMkpmIjm5/GNq9QeiYyR91hiNr2WvKbmQbVJnlqXcAgLuEVqmS8FCgXbFyPfRDzUy+aUJEQmNr3cz86kozdgIeTF+EGvC+CQ7t8C1/2B6Ef7zphH++7Zhvh5/M/2TCQ14CRO/J2uPZiQ616uqzfDiV/PZqLXyxUQ8PNjP73f218G9frEXB8e3+Snz/JIJDaGiVm7IdEhraTdd31J1UoAEA3BW8XZRJfGgyubIa8hIaft7bzptgJqIj7nprvdjQTOWBdX4fdia3N5jlDgDgTuJNupbFjeXzoTWeuYWzUM9/carVqqFqHYEH0Jd1BmpXszbXAnJrc487wzikKjMTHiY2fnzdCn87aIcfzXqDM2uX1WZnbffn4rWTmKpWNFcjW61K2Y0vt5tmjfCV+W9MaPz23moUHE/3VuJnLr6zD6ib8nkuPrdD4kNex2nnCgAA1r4m/Ye8t5Fe9vP+nptgJqIDAACmw3+5d/PG3zuF1C4j/sCTW6s3DC+Pe+HVcd+sF/75th3+8qoVTUOu2v1hzIpIfKRDrfL/U6GqWQ2j1z5NjVo2UVwrVD3YqIenuyvhyW5z5LXC4eOdZni41ci/YTLUTaXCw885aWc6yfMCAICbh5+FAADmRCosPFj2ANttEpRl0IRsDWuqWdC/Vq+E7ZVquLdeC/fX62Hf7L6JgH073lmtxb07VvJldCvWC0wymTtFb9X7s2tmK2ZpZaq4YlazGnZWNI8jG1alTIcEh0SIJpVLlFwFfxbF54LIAABYDBAdAABzwIPlVHAID6rTIPsy7Bti8C/RUbeCRIcCfBcbmeAwM689lbSUbrNWicvo6jP2P8tY5N93EfE9qrP9c6GTiQ7fkLAa53Pcs+s92GiER1vN8GTn80RH+izS5+HPLn1+AABQThAdAABzwgNmHxrkTCI0UvRRCYAY/JuQWDVRMcp0uOjYkBDIMx0mDOKu4HbdmO3QF+SXnyZ8l1jRZ+OO4xId+d4gEja6loTGoy0NqWrErEcUHXbdq+CCoyg8UhAfAADlhTkdAABzIA2gU9O8BeGrihQFyWVocni2klW2mtXr436c1+ErWGmex6uTfjgwf3DaD524+uBZnOuhZXft46O5HSqnSGREkWReIkfCJZoJDmU4smxKNqTrq51m+M3eSvh6L/MSJZ6N0WenQc/EJ43L/Jmk8zjcAACgnCA6AADmgDe9qdhwEy465KcJpvW16cRyLaH76kQTy3vhtYmNl0fduI/SSzOdO+pomXMze5+Eh30kig75ourQHhzZXhzZPI71RjXOD5Epu6EJ4g83G+EL819oqdw8yyJTNkRiQ/ci0TINLjjGrVYlE4gOAIByg+gAAJgTqfBIA2vhgsNFx6QBdaYVTMRYQb7dP4vL6B53B9G/MNHx7H03PD/shedWfqOsx2kvvDntx/dI88Rl0OPns+904lCsXHBowrqGcG2b2NheqcUMh5bG1epUWqVKS+ZKlGw0JUqq8XPW5dh96O9k+PPx55KKjnHPBtEBAFBeEB0AAHPEm2Dfd0KmcwqofUfZzwmqle0YDbeygP2FiQ3t3+F7eWh5XQkR+cN2396ffUb+vLCIbhQblaU4AV0TwrPdxuthb70WMxtP8+Vxn5rw2DBBkomUbK7JtKRdkz8XFx0uOGRppgMAAMoLogMAYI54E5wG1sKHDskUUKc2DXHD1lxEaBPBt61+eHPSCwcn5k/78fidmfxJZ2jC5MN8EGU7Rli5Vs1Wx2qYl+jYNGGx1axGv2sC5EGyWpYmlSu74StcTYOeSdEkNtxS0XGVZwIAADcPogMAYM54UO2/5Os4FRkyFx/+y/6kqIWPO5DHa4Rw2huGk65ZZ5B5Oz6V72pOx1noDtyyOSEfOI+CI5s4riV3l8NKPVuxSraulaualbApEWKmiePSGlblqSeO+/NIvcxf0zPwLMe0zwMAAOYDogMAoAS44PAgO8WD66sE2fGb7I+F7fa92SRzz2T4sCvtTq5jiQ0JD7dMdGSfE1Fo1LKNBeWV+aiZENGQq7hsbl6WVzVNLunPxHM4HN1/+jxSXHi56RgAAMoPogMAoASkgsMDbZVlCqzTX/ZnGWgrA6JeIA7DMgGSCY5haPUy0ZF1EJlXhmM1ZjiyTIcyGMpmZKtSxTfOBN2/iw553a+b3797GQAAlB9EBwBACXCx4UIjFSAeZLvw8EB7FgG3egBJCnmJDGU7egPzmtMxEh0ZymJoLocyGRo+pcvHIVT695lVSbuioujQPY8TG24AAFB+EB0AACVATbE3xwq23fyX/qLo8GD7c4PueEX7I3mh0VTDYTbxXKbsR4qvROWrUunS9ld/9P+zKN5/UXT4vcuL9BkAAED5QXQAAJQID74VbLuJcaJjloF37Ajsj8SHeoVo8ZUP6FK6WrxuPJEdzwK/b1kquOT93rWEsN8/AAAsFogOAICSoWa5KDoUaHvAfV3CYx54F+RiY5x30eEGAACLB6IDAKBkeMAtc9GR4sIjFR9+flFIu570fmVF/F7dAABg8aD1BgAoIS4sfEiVUHDuQ47cdC4N4BcJr3t6P+l9fUpcAQDA4oHoAAAoGR5gy1x0qFwM0D1oT23RSOuue3JRJdL7d+EFAACLCcOrAABKSNo0p8G4fCpKLrOy4MIiLbsVBZTq7fM3XHCJMt0PAABMB6IDAKCkePMsr8DcTcfpawrG0yFIXk4D9nnj9S7eg5vX3U11d3PKci8AADA9iA4AgJLjgXkauKdzO4rBejokyc/PC+9ivK5e7/R+RJrZSOs97/oDAMBsYJAsAEDJ8cDbA3MPwj2IH2dpQC/v5ZsivaaXVadxdU7r6qKjDIIJAABmB5kOAIAFIG2qi0F7EQ/Wi6ZAvvi6H6d+Erw+43zRLhNAuq4LKs92+HkAALgdIDoAABYEb649iPfMQXosn5oC92L2oOjdhPtPoe90itcaVy8/J/w64+pRPOfvBwCA2wGiAwBgwVCznVox85GaAvdiFkHm5TTQnyTY9y4jvX5RZOi67r3s15RVq9WPjqe5PgAALCaIDgCABWcwGERTgO9lN+HBfRrkp+YB/6TBvncbLjpkqdgoCg55XVdio1arRe91cQECAAC3G0QHAMCCUwzwUxMSE0Vx4eakXYGXi91D+n5RPNb7x5nq5SIjtVT4AADA7QbRAQCw4Cio9+Be3gWIH4/Dz6fvc+82jlSwyFw0+LG/x/FyKjD8/cXPAQDA7QXRAQCw4KTNuAuGVEAURUXqfViWW/paERcILhYuylykln5G5t+VegAAuN0gOgAAbhlq1r1pT0VEan7ORYd88TX/DicVDiqPEx2fEh+IDACAuw2iAwDgluHNuvw4c0EhS4dipefdUlxwuI0TFzJ/LX2fo2MAALh7IDoAAG4hadOeCohx5VRspOeLuGBIfSou0vPjzgEAwN0F0QEAcEe4rLmftju4SEggMgAAIAXRAQAAAAAA1wqLowMAAAAAwLWC6AAAAAAAgGskhP8DSVIAIZQWWAIAAAAASUVORK5CYII=;" vertex="1" parent="1">
          <mxGeometry x="610" y="145" width="167.79" height="20" as="geometry" />
        </mxCell>
        <mxCell id="efof93Qg9sC8hvgrrkQ7-9" value="&amp;nbsp; &amp;nbsp; 軽さ:" style="text;html=1;strokeColor=none;fillColor=none;align=center;verticalAlign=middle;whiteSpace=wrap;rounded=0;" vertex="1" parent="1">
          <mxGeometry x="556" y="160" width="60" height="30" as="geometry" />
        </mxCell>
        <mxCell id="efof93Qg9sC8hvgrrkQ7-10" value="" style="shape=image;verticalLabelPosition=bottom;labelBackgroundColor=default;verticalAlign=top;aspect=fixed;imageAspect=0;image=data:image/png,iVBORw0KGgoAAAANSUhEUgAAAx0AAABfCAYAAACN4appAAAAAXNSR0IArs4c6QAAAARnQU1BAACxjwv8YQUAAAAJcEhZcwAAFiUAABYlAUlSJPAAABy8SURBVHhe7Z1pcxvJkYaLxMn7EqWRZiSNZzze3QnP7obX//9HbGyEHWt7bM+hkzp44Qa5+VZ3QqVeiAQokGiQzyMls7pxdHV/qMoXWcfSuREAAAAAAACuieXcAwAAAAAAXAuIDgAAAAAAuFYQHQAAAAAAcK0gOgAAAAAA4FphIjkAwB3nqt3A0tJSXgIAALgYRAcAwC0nbeYnKYtxXUNRZPjxp847iBMAAEB0AADcUsaJitS7pcdOWnaKIkP+U2Vn3DkAALh7IDoAAG4hRQHhx16+yJy0LIrC4lOWvu7l1AMAwN0D0QEAcEsYJxjG+YvM3/MpimJieXn5/52bxgMAwN0A0QEAsOCkYqFoF+GvF/1lXEVA6D2ppecAAOD2g+gAAFhw1IyndnZ2NvKiGOg7sw74dU0nrY/wOqSZkdQAAOB2g+gAAFhwUpHh3k0oqL8o2E/LTvFYFLsLP5Z382Ovi5d1/dT0/WmdAADgdoPoAABYMLzZdp8G+G5+TqTBfdFEWhZpeRz+val3S4+9DvL6zrQexTqJogcAgNsDogMAYEHw5lreg/n0nJOWRRrcu/n51Iu0fBGfum56PrUi6bVTkxhx/D0AALD4IDoAABaAtKmW2EjN8SA9DeKL55y0LIrHk1DsPtJjL8uPsxRdW2LDzetylToBAEA5QXQAACwA3lTLD4fDKDbkZQrO3dLgPQ3gxU0H8Wn34vV1oZTej6hUKiPzexE3XWcAALgeEB0AACVHzbTMg3Uv+7EH6TIXGi46xDwDd9XPvdc5vQ+nWHd5LwMAwOKD6AAAKCnePMunAbufc4qBetHKQCo0xpnwusrrftzKcg8AAHB1EB0AACUkbZoVsKdDqlxMuI0THMJ9GfD7cT9OhPg51TsdbiXKdC8AADA95K0BAErKuKDcTSgQTzMCbjpftiDd6+R1lJhI6+v4/aX3LdwDAMBiQqYDAKBkeLAt8wA89R6sp0G7B+5pAF9m0nv0+3IT6b2l97go9wcAAB+D6AAAKBlpEK7hVH7OGReQi0UKyP1+5P1+U5/ek9+nGwAALB603gAAJcQDcDeRBt9eToPzRUL1dfN7Sk3oGfhcFpUBAGBxIdMBAFAi1CR7sO0mikF5GrRPS2z085Y/zzfYNWNhxKc6hvRqfmmrhRc+en0aXFjIUrElSyeV+70DAMBigegAACgBHnCLNOCW6EizAQq8Pei+iujQJexKubdrWeFM5ZH39+ldHyNxocvpivLL8foffDT7t6w3TInfv5tnOGTpvcuLq9w7AADMD0QHAEAJUFOsANuDbi/LK7hOg24Ptq8mOD4WGkMrRIvXstdyQaLXXXXkLoqJWBfzEhoVi/8rsW5Z+SMRkn9mUlQX97Feiejw+/d7LxoAAJQfRAcAQAnwAFtNsrzwAFyBtQuOVHRMg7f0LjgkMiQ2BrKh/Jkdf3j9zP6MOgcrqJwJDBccS6Eqq2Rexy489L4rVHGE7t9Fh2d63Pz+UwECAADlB9EBAFAC0l/2i82yiw23adBXSUjI61v7piz6JjJ6ue/0z0JnMIy+NzjLRIjZ0F6T+PCa6PMSGLUoNJZD3cqN2nJoVJdDM/c6V9Nr1Q/Cw/5GPw26//R5pLjgcEN0AAAsBogOAIA5o2bYf9V30eG/4rt5gD2p6PCWXYIjG0KVZTckLlr9YWj3Mn/cGZgNw5H5Vm8YhUdPosS8Pqev0XfJJCwkNCQyZBuNSlhvVMNGU74SVutmNfnlKD6U/bD/0U+DP4/Uuwk9gzTzAwAA5QfRAQAwR7wJluBwEx5Qy4oC5DK8VZdkkNhQdkNDqPomIk66mdA4yv2bk354cyrrhaP2ILSV+TBrmyBRxkPfFTMeZismJtZMWKyZwJDtrtbMqmFnrRZ2zG82q2HLbHOlGpomUJQR8SFY08gOFxippYLMBUdxjgsAAJQXRAcAwBzxJngwGIxEhwfW1Wo1eg+qJw2u9ZUWqkcv4RCzF4Pz0DXxcWjC4m2rH961zJvYeHHUNeuFF4fdKD5Oe8NwaoJEJrEiwZGJjvOwboJCWY0oLkxYPNioh/ub9ej31+thz8SHbNdM4qTuQ67MTysL0q7Jn4uekYSHnok/H4kOgfAAACg3iA4AgDnhza+8/5IvL/yXfBcd0wiOOKTKzL4uZiw0fCpmOMyU0Tg46YcD86MsR+4lSDoaelXIdGTf+XGmQ8OpJC72lO1Yq4Y9Ex337Pie+f31WtheqUWBsqHMh5lGWMX7sDpOqg/8+ei5uChLRYeeUZrpQHgAAJQXRAcAwBxIBYdMwbSb8KDaRcekSBz4alQSDUcmON6cmNAwUSGx8eq4F+2l2Ws7f5LP6ZAgaWtOxzDLiijLIeGiasaa2h9lLhrVpdHcjs18PoeExfZKNewr8yHRIR+zH7XoZRpipZWtMotVnRjPdKSiwwWHTERBg+gAACgtiA4AgDngYqNoRdEhmzSYto/HLMdodSoTD8pg/HrYDb++l3XC86NeeG7HMokPDb3SsCt5fU5L5ZobTSLXn7wUV6TKlsbN5mlo3oavXKVshg+1ksj4arsRnuyuhCc7zfB4txnfoyV1/TumQc/EBYdMzyN9NqkBAEA5QXQAAMyBVGik5hSD6svwj0osdCQkNCHc/EsTGT++aYe/H5iZl/h4dtiJXqJDn7Mrjz4/DVF8RBES4spVEhwPNhtRdHy91wzf3V8L3+2vml8NqyZOavmSuhIs0+BiIxUd40zPCwAAygktNADAnBgnNoQC6Glw4aAsh4ZUafUpzeF43x7EuRsSF5owLqGhIVVH7WxpXP/clbGPZkvyaoWs89DqZRPVNW8kDuGKk9SzrIqGd2kIlzIwV6EoMJz02RWfIwAAlAdEBwDAHPAA2UWHbFxgnQbYnyITHCEOi9KyuBIdx91BeN/KJoi/NgGgYVUaXqWy9uToSnS44LhirP7hutmQLu37IdHhc0c0b8RFh+oRRcdg+oulzyJ9HumzAwCAcoPoAACYE+OCZg+siwH2RejjspjpsOBfO4x7pkMrU8VMhwX+z8xipsNFR/65D1efDr+m5oFo4rk2F9R3S2BkmQ6Jjl54ZsLjwK6rfUE+J9Ph3svp80ufIQAAlI+ZzOnwTkdjib3TU4pfpl/e1KPlDgDgTuLyYclawlg+t+D7fGgN6NAa4rNQq1VDrWpmvpqvWJUG2BcR29q8zdX+GnHfjTi0qRd+PGiHP784DX9+mZkml+tf/n9maG64z9fQ3A2tYvV0rxknkz/dbYav91bC11bWXI+vdprxM5ffWYa6Kc3lcK9J5VpC1/ft8PkvmnwPAAAf/0Ajn84T9Plv6XtugpmIjq7Wde8NQsdMXks0uindPjxfiin4aBN3MwAAt4dlC/ErS+cxOK9Yub40CPXQj9ZYPgtb62thayOz1WZj1Bl45/Ap1IDH3caH2RK5Gt7087tO+OltJ/p/vOlE4aFJ5DK9L35ulorDUL+VTSrPJpfvrNbCo61GeJibJpP/Lrdv7q3E99sdRn8ZPoFcJqFxeno6sl6vN+pMvUMFALjrpO2ifpBpNBqhXq9HX6vVRudvst2cieg46fTD4Wk3HLbMzL841i63+qWtH960BkFDeAdnS+Yz8QEAcNeQ4Kia1UxgyK8v98L6ktlyN2zWhuHhvd3wcD8zCQ/vLFx8fAq14HF5XDPNl3jX6oe/vm6Hvx20wt/MS3xoydxn7zOvjMissxxCVfQ9OLQsrvbv0EaB99a1S3k9fP9wLfz+0Xr4wexfHqzl759MeKT7dPT7/fD27duRSXj4s5IBAEAI1Wo1igp5iYz19fWwtrYWbWVlJZ731xZKdLw76YbXh63wyuz1YTv8qF/Wcnt22As9ExzRTHQo6wEAcNeoLp2FhomNuokOZTa2K52wa7ZXbYd7jWH49vHD8M3jL8JvHz8K+7tbHwXSl4kOzc9w09yJP704za0VJ4/HHcjtvFaQiqLjmlA1VVP51VolbK5ku5HL/uOrjfBfTzbCHx5vhh++XB8JFPkLbi+SDqfqdrvh+fPn0Z49exYODw9Hz+iyZwUAcFeQmHBrNpthe3t7ZBIgynq4qe28CWYiOl6+b4d/HhyHnw5Oov3jbTf83Uz++VE/9HPBIR/neAAA3DGU3ZDgqJv4qC+fh50oOtpht9oJ9010fP/No/D9b76M9mh/5yPBcZno0MRxrVgl0+pU//3sJPxPbpo8/r41iJPKD9v9a802x1rmVdXGgeuNSlhrVKP/TxMdf3y6Gf74ZDMKkHSPDwmPi0hFh4ZT/fzzz+GXX36J/t27dyPBgegAAMiQ2PBMhoZUpaJjY2MjrK6uRlPW46bmw81E2mgDqrfWqf36vhf+8roTfjZ/cDoIJ73zmOHom+DIM/oAAHcStX/K9PbPl0P3bDm0hpVwNKiGd/1aeGN2PKiFzlk1nC99PMZ2kiBawkOmdlbzOrR8rQTIaW8Y987QjuPKcFx3Gxy/P7+InOqjRUa8TrKemTIyGg4W6zRBpVxUqGMsjkGewe9mAAC3Dl90Q0NS9WNNu90OJycnMTt8dHQUWq1WPH+TbejMRMc7Ex2/vO+a6GhH0fH6dBiOc9GhOR3qbOkbAOCucmZtYBQd1iZKdJya6DgeuuioW7kWuufVcJaIjkkEhxMDfGtkNU9cG/+1JTq6Eh3DGOQr8L8J4lXsj9r7WJ9YJwkPExpWD9VNpsnvk4oOURQe0zwbAIC7hsSEZ4mLokO2uKLDOjdNGP/FxMb/vhojOvJhVTd3WwAA5ULtnxbTGGU6zpJMR68ejqLoqITzpcnmcqSoz1AeQ7piYAfKJmSZjmzvDE0wj3M5bqgR1mVUJ10yExwfshya9J5lOjJBMsmuHUXBcRVRBgBwl/BMh0SH5sJJZBwfH4f3799H0eGr/y2c6FB1YwrdKq7ORabOJHY8uQEAwIc2Ue28duzQMuIKvP14NCliWryhNR/3ThpZduwvz4X84qqF7lN10imVRy9OCYIDAOByXFTIy3z58fT8TTET0QEAAOXAuw959SXxOB6oMD+8Ht6/jTq6OdcLAABuBkQHAMCCo7jdLZIfxMD+Bn/FuhBVJbos25GVAQDgrjAT0aEk97KWP1zKlkCMyyBqvG3+GklwAICMUbtof5Ys7NZO5WqI/fgqobh/34h4Qv/zwrxRXWJ9vE6fX6ubHBIAALCo+FBUnwdXnDN4k0NVZyI6mrXlsLdaDV9t18Pv7q+Ex+b31ypho74U16OvmlXsnm7utgAAyoXav7gjuTYJXD4Lq8vDsFkdhJ1aP+zVe2Gz0g+NpUFYOs/G26Zjbi8ltq/6sceuUQmhUV2Om/NpV3DtkaE2unpDjbAuoT5Mph+f9CNUza5dl1m9GtWlWJ9axepkr03S4ek5+KRI2VTPBgDgDuKLb2ivDu3ToT05tD+H9unY2tqKO5NrY8DFEx3WkexE0dEI3+2PER2x8zmPnRAAwF1k2dpAtYM1axMlOtYqw7BRMdFR7YW9Ws/KEh3DsHz+IaieNLBW02rxe9xkT4G8gvvV+nJYb1bDmomOhkSH3nDNxCvYHwmgWB/rYSR2anYgkSExpLrIS4Rog8BJq5UKj1R0qMO8yU4TAGARULvookPiQpsAaidyCQ6ZRMjCio5dEx1fmtj4br8ZRce9tWpYz0VHzTpadSx0CwBwV1H7F0WHZzpMdIwyHbnoaMZMx8dB9STCQ32GLAb51tgqm7BSr4SNuCN4JbbRCv7171pRPfJrxA7P6pJlOkxkWJ1kEhyqj87p9Un6u1RwuBWfC8IDAOADnunQjuRF0bG5uTkX0bFkDfdkP6VdwLuTbnh92AqvzF4ftsOPbzoje3bYi3t1RMs3xwIAuGtUJTZMdNRNcEh0bFc6YbfSDntm9xrD8O3jh+Ebs98+eRj2d7djh1EcezsOteDa98Lt4LQX/vTiNPz5RSv6X99b+3zSCwfR+ha8ayr37FENVU9VVabhXVsr1WibzWr49y/Xwx8eb4Y/PNkIv3+0HrMy+jFKXu+/CIkMrTXv680/f/58ZFpvXtf1ZwUAACGKDbdmsxmHVblJfEhwuN1U2zkT0XHS6YfD0244bJmZf3HcDy+Oemb9uGmgdiTXBoHaGEvrswMA3DWU5YhzOkxwyK8v9cL6ctd8N2zWhuHh/m74wuzR/l7Y2lj7SHBcJjq04V40a2zftvrhr69a4a+v22at8PO7Tnh+aIG62mTz2kdJn/FVpGaFqqg5HFpURGJiw4TG3lptZN8/XAs/PNoIP5j4+NcHa/H9ep8yIxfcXiTNcPT7/fD27duRacMrRAcAwMdoWJUPr5LwkNDQPA6Zsh46769d1MfMkpmIjm5/GNq9QeiYyR91hiNr2WvKbmQbVJnlqXcAgLuEVqmS8FCgXbFyPfRDzUy+aUJEQmNr3cz86kozdgIeTF+EGvC+CQ7t8C1/2B6Ef7zphH++7Zhvh5/M/2TCQ14CRO/J2uPZiQ616uqzfDiV/PZqLXyxUQ8PNjP73f218G9frEXB8e3+Snz/JIJDaGiVm7IdEhraTdd31J1UoAEA3BW8XZRJfGgyubIa8hIaft7bzptgJqIj7nprvdjQTOWBdX4fdia3N5jlDgDgTuJNupbFjeXzoTWeuYWzUM9/carVqqFqHYEH0Jd1BmpXszbXAnJrc487wzikKjMTHiY2fnzdCn87aIcfzXqDM2uX1WZnbffn4rWTmKpWNFcjW61K2Y0vt5tmjfCV+W9MaPz23moUHE/3VuJnLr6zD6ib8nkuPrdD4kNex2nnCgAA1r4m/Ye8t5Fe9vP+nptgJqIDAACmw3+5d/PG3zuF1C4j/sCTW6s3DC+Pe+HVcd+sF/75th3+8qoVTUOu2v1hzIpIfKRDrfL/U6GqWQ2j1z5NjVo2UVwrVD3YqIenuyvhyW5z5LXC4eOdZni41ci/YTLUTaXCw885aWc6yfMCAICbh5+FAADmRCosPFj2ANttEpRl0IRsDWuqWdC/Vq+E7ZVquLdeC/fX62Hf7L6JgH073lmtxb07VvJldCvWC0wymTtFb9X7s2tmK2ZpZaq4YlazGnZWNI8jG1alTIcEh0SIJpVLlFwFfxbF54LIAABYDBAdAABzwIPlVHAID6rTIPsy7Bti8C/RUbeCRIcCfBcbmeAwM689lbSUbrNWicvo6jP2P8tY5N93EfE9qrP9c6GTiQ7fkLAa53Pcs+s92GiER1vN8GTn80RH+izS5+HPLn1+AABQThAdAABzwgNmHxrkTCI0UvRRCYAY/JuQWDVRMcp0uOjYkBDIMx0mDOKu4HbdmO3QF+SXnyZ8l1jRZ+OO4xId+d4gEja6loTGoy0NqWrErEcUHXbdq+CCoyg8UhAfAADlhTkdAABzIA2gU9O8BeGrihQFyWVocni2klW2mtXr436c1+ErWGmex6uTfjgwf3DaD524+uBZnOuhZXft46O5HSqnSGREkWReIkfCJZoJDmU4smxKNqTrq51m+M3eSvh6L/MSJZ6N0WenQc/EJ43L/Jmk8zjcAACgnCA6AADmgDe9qdhwEy465KcJpvW16cRyLaH76kQTy3vhtYmNl0fduI/SSzOdO+pomXMze5+Eh30kig75ourQHhzZXhzZPI71RjXOD5Epu6EJ4g83G+EL819oqdw8yyJTNkRiQ/ci0TINLjjGrVYlE4gOAIByg+gAAJgTqfBIA2vhgsNFx6QBdaYVTMRYQb7dP4vL6B53B9G/MNHx7H03PD/shedWfqOsx2kvvDntx/dI88Rl0OPns+904lCsXHBowrqGcG2b2NheqcUMh5bG1epUWqVKS+ZKlGw0JUqq8XPW5dh96O9k+PPx55KKjnHPBtEBAFBeEB0AAHPEm2Dfd0KmcwqofUfZzwmqle0YDbeygP2FiQ3t3+F7eWh5XQkR+cN2396ffUb+vLCIbhQblaU4AV0TwrPdxuthb70WMxtP8+Vxn5rw2DBBkomUbK7JtKRdkz8XFx0uOGRppgMAAMoLogMAYI54E5wG1sKHDskUUKc2DXHD1lxEaBPBt61+eHPSCwcn5k/78fidmfxJZ2jC5MN8EGU7Rli5Vs1Wx2qYl+jYNGGx1axGv2sC5EGyWpYmlSu74StcTYOeSdEkNtxS0XGVZwIAADcPogMAYM54UO2/5Os4FRkyFx/+y/6kqIWPO5DHa4Rw2huGk65ZZ5B5Oz6V72pOx1noDtyyOSEfOI+CI5s4riV3l8NKPVuxSraulaualbApEWKmiePSGlblqSeO+/NIvcxf0zPwLMe0zwMAAOYDogMAoAS44PAgO8WD66sE2fGb7I+F7fa92SRzz2T4sCvtTq5jiQ0JD7dMdGSfE1Fo1LKNBeWV+aiZENGQq7hsbl6WVzVNLunPxHM4HN1/+jxSXHi56RgAAMoPogMAoASkgsMDbZVlCqzTX/ZnGWgrA6JeIA7DMgGSCY5haPUy0ZF1EJlXhmM1ZjiyTIcyGMpmZKtSxTfOBN2/iw553a+b3797GQAAlB9EBwBACXCx4UIjFSAeZLvw8EB7FgG3egBJCnmJDGU7egPzmtMxEh0ZymJoLocyGRo+pcvHIVT695lVSbuioujQPY8TG24AAFB+EB0AACVATbE3xwq23fyX/qLo8GD7c4PueEX7I3mh0VTDYTbxXKbsR4qvROWrUunS9ld/9P+zKN5/UXT4vcuL9BkAAED5QXQAAJQID74VbLuJcaJjloF37Ajsj8SHeoVo8ZUP6FK6WrxuPJEdzwK/b1kquOT93rWEsN8/AAAsFogOAICSoWa5KDoUaHvAfV3CYx54F+RiY5x30eEGAACLB6IDAKBkeMAtc9GR4sIjFR9+flFIu570fmVF/F7dAABg8aD1BgAoIS4sfEiVUHDuQ47cdC4N4BcJr3t6P+l9fUpcAQDA4oHoAAAoGR5gy1x0qFwM0D1oT23RSOuue3JRJdL7d+EFAACLCcOrAABKSNo0p8G4fCpKLrOy4MIiLbsVBZTq7fM3XHCJMt0PAABMB6IDAKCkePMsr8DcTcfpawrG0yFIXk4D9nnj9S7eg5vX3U11d3PKci8AADA9iA4AgJLjgXkauKdzO4rBejokyc/PC+9ivK5e7/R+RJrZSOs97/oDAMBsYJAsAEDJ8cDbA3MPwj2IH2dpQC/v5ZsivaaXVadxdU7r6qKjDIIJAABmB5kOAIAFIG2qi0F7EQ/Wi6ZAvvi6H6d+Erw+43zRLhNAuq4LKs92+HkAALgdIDoAABYEb649iPfMQXosn5oC92L2oOjdhPtPoe90itcaVy8/J/w64+pRPOfvBwCA2wGiAwBgwVCznVox85GaAvdiFkHm5TTQnyTY9y4jvX5RZOi67r3s15RVq9WPjqe5PgAALCaIDgCABWcwGERTgO9lN+HBfRrkp+YB/6TBvncbLjpkqdgoCg55XVdio1arRe91cQECAAC3G0QHAMCCUwzwUxMSE0Vx4eakXYGXi91D+n5RPNb7x5nq5SIjtVT4AADA7QbRAQCw4Cio9+Be3gWIH4/Dz6fvc+82jlSwyFw0+LG/x/FyKjD8/cXPAQDA7QXRAQCw4KTNuAuGVEAURUXqfViWW/paERcILhYuylykln5G5t+VegAAuN0gOgAAbhlq1r1pT0VEan7ORYd88TX/DicVDiqPEx2fEh+IDACAuw2iAwDgluHNuvw4c0EhS4dipefdUlxwuI0TFzJ/LX2fo2MAALh7IDoAAG4hadOeCohx5VRspOeLuGBIfSou0vPjzgEAwN0F0QEAcEe4rLmftju4SEggMgAAIAXRAQAAAAAA1wqLowMAAAAAwLWC6AAAAAAAgGskhP8DSVIAIZQWWAIAAAAASUVORK5CYII=;" vertex="1" parent="1">
          <mxGeometry x="610" y="165" width="167.79" height="20" as="geometry" />
        </mxCell>
        <mxCell id="efof93Qg9sC8hvgrrkQ7-11" value="&amp;nbsp; &amp;nbsp; 締め切り:" style="text;html=1;strokeColor=none;fillColor=none;align=center;verticalAlign=middle;whiteSpace=wrap;rounded=0;" vertex="1" parent="1">
          <mxGeometry x="534" y="180" width="76" height="30" as="geometry" />
        </mxCell>
        <mxCell id="efof93Qg9sC8hvgrrkQ7-12" value="" style="shape=image;verticalLabelPosition=bottom;labelBackgroundColor=default;verticalAlign=top;aspect=fixed;imageAspect=0;image=data:image/png,iVBORw0KGgoAAAANSUhEUgAAAfQAAAH0CAYAAADL1t+KAAAgAElEQVR4nOzdd7wU1fk/8M8ze5EiimBXQARD7EJiCwYBWwT8fTUmUewtiQ2NSfypSfhpvulqml2jWDACmmgSFWyJHVExonRBEBBQqjQp3rvz/P44c2Zn9267u7NlZj9vX9fL3bt3d+bsmfPMOXOeM6KqCiIiIoo0p9YbQEREROVjQCciIooBBnQiIqIYYEAnIiKKAQZ0IiKiGGBAJyIiigEGdCIiohhgQK8Sm+5f67T/Qu8f3M5ab2ujKqbcK/3Z5Hr9eqnHFE3BesM6FD4G9JBkVs7Mn0UEqgoRafX7alZs+/6Ffl/oeRSezLpg60q+54sIEHK1Cb5nrs+f9aP+lNSWKEKvPwXfMtD+AaxDlSBcKa58mYE6W0W1j69d8xmeeOIJvPTSS3j//fcxf/58fPHFF0i6SQhKr+AK9f9eodh1l13Rt29fDBgwAEOHDsXAgQMhicLnb7m2nyqn2DKfO3cu/vWPf+KVV17BrFmz8MnSpfiipaX89/fqjoggkUhgzz33xP77749BgwbhlFNOwZf69jXPKVDHqT5kfj6u6+L1V1/DxIkTMXnyZMydOxcrVqwoeOLYFiKC9u3bo3fv3jjkkENwzDHH4NRTT8UO3bqG8vpUJKXQuK6b8+d5H8zV8889Tzts014diDoQFUCbAE1439uJ+d7Wr0Se3zlivvrs3VvvvP0O3bJlS9Hbnfk4VVau8n7+2ed08NGD/HrTBNF24mgTpKT6EvwK1rlE4Hs7Md8diA4+epA+99xzVS4NKteWLVv0rjtv17179fTbAftVbr2xXwJowjHfHTH/tt/bb9Ok5597nn44d56qsj2pBvbQQ6B5eizNzc345f/+AjfddBOam5uREIGrbta+uAJl9NHzSwIQCL785S/jrnvuxqBBg1q/P3teNaOBoXb7GSxbtgyXXPw9PP30RACACOB4R2tYdSXX69jHXQgUCkccDBs2DHf/5R7sscceIbwzhSHXMfvqq6/iku9fjA/mzvGel6o/YbYzIoCrgOO9oKvpr+1C0NTUhGuuuQY3/O/P0dTUxHamghjQQ5LZIKsqVi5fgVNOOQVvvfWW/zzxGkdXXfN3Oeq1PQBLIWL+HkgFAMAEdQBoSjTh17/+Nf7vNddU7gyCipatgXvtlVfxne98B6tXrkh/LnLXmdLfH3CcVJ3J/iTzpjvvvDP+9re/YeCgo8PdCArNH27+Pa699lpAXLiuaQ9EAHFN/XEkFXjdMuuSaP4mxBX4deeII47AE//8B3bbbbfy3pRyYkCvAFXFJ0uXYdCgQVi4YL55DIALL0irQLzrlsnA9ctSP4rg9fNWRFudlbtewL/2mmvx2xt/12rbefZcfcFyf2bCRHz729/GF1s2+78PnqSlNcIhRPdg/RFvBMkRx2yToxAXgNdThzjYZptt8Pjjj2PosGE8IawTtv5cd821uOnmmwKjOeJ/vratsSMuYTT9wVk5wTYs9W/7HgIXQJ8+ffDiyy+he/fuZb83tcaAHjJVxecbNuLII4/EB7NnIziV1G+IvUZY8gXikLhi3j84VGve22zPjTfdjKuvvrqi20DFmzJlCoYMGoytmzcB8C6VeFUke2+ovPqjgUY++N1KQtHkn0ykgnqHDh3w8ssv49DDDyvr/Sk8v7/pZlxz7TVwHHgnYfZE3nyeLlqf/Jeb5pTMUW/gvVci7RET1Pfff3+88eZkbLfddmW+O2ViQA+J38NyFWeddRYeGz/O+019d2EcB/j3iy9zCLUOrF27Fl/pfwg+XrgYtvGrdV5pvtGfXr16YcrUd7HDDjuk/w1Hearu9Vdfw5BjBgHJ9A6EE/b1mTbKVn9cACNGjMAjjzwCFaavhanW7UVs2CGmCRMmYJwfzOtf0lV8//vfR3Nzs/8Yz/FqY9Son2LRosVeinB9fAbBxlhE0tLXFi5ciJ/97Gdpz2cwr74vvvgC3/ve9+C69VFngvzee0adGDd+HCZOnJh1XY5sP1Nx2EMPkSZdHHTQQZg9ezactMHteqZQcXD7nXfg4osvTjvw2DhXz4cffoj99/sytMWMlYo4SKrW7Rm3PwE0kcDs2bPRe58+rCs1oKq45557MPKyy6Fw/UtrIkCLAokatz/Zrtd7VwOw3377YdqM6XCc7LWc7U/b1Wt7ETmqiqeffhqzZs9K6125onX9BQCuuvj9TTenTWrhwVQdtrz//Mc/IZl0/ceTqlDUvn64okhCoY75t/3eoq75XTKJP/3pT6EuUkJt88ff/8HPmrFavMyFWtcdFSDpXb034V1NZ0cUs+fMwtNPP5223cE6xPan7RjQQyIQjBkzxv83gDoZNC1MBFjw0QK89tprXNqzykQEzc3NGDt2LJyMVMVKT5gshk2ftO2snw4ZaDnGjh2L5ubmVnWGAb7y3nh9Ej6c/2HaGgWA95mVm5MWoiTMNX172iFqtvevYx5mEA9RU603IC6SLS144YUXvCEur48uDpy6b9TUzJ4WBxOfnoCBAwfWeoMazqRJk7B+/XqTeaDe8ltqhiqlDqqPwC6GFEivDMy4X7duHd58YzK+fvRArtVdZRMmTPBO/Gy6mNc7h2N6w3UyKc41P3iLFaV6ki+88ALcliQS7RiKwsAeepns2eXMmTOxYcMG+AcWojMEaQKHYvLkybXelIb09ptvtVpoSCBAxjBqrdi8dPvvbCZNmsRh9xp44403AGTpnXuXbGotOCnObk9wu9atX4eZM2ey3oSEAb1Mthcyd+5c/7EoVU1XUicl8+bNq/HWNKbZs2dnnbxUD0PuQOrkNDMFKdhAz507l/MuaiDzmPUvjVRhjYti2foTzFdPenXHEQcffPBBztnu1DYc5wjJilUrAXhrG8Ob3ektxlHv7EG2YsWKwk+m0H322WdQEe+6opr84VpvVBaZAcIO9QoEa9asYTCvgdUrVyIhkrZsrxMI6vXS/qTqs6R9F1WsXLky9VvWobLUY7sROaqKFu82lsEDKyrnmv4Cdjw7rjpVxYYNG8w1alF/NcFkltzdemQ3cd26dbXdkAblum7O47ZeeuiFtLS0pGXXUOkY0EMgIkgmk60a4GgcTik8mKpPROC6rjcsmXo8rLW2K83MgpdInHzEURTqSCGu67L+hIRD7iHxrwFlPO7WwzRlqlv+3fkCU4WCd9qr9/ojCm90QXgNvQaC9SOYXhgVjgokERiQD1xLZ11qO/bQQ8IZvlQKPxAGBkjtLOUoNGgCb94Ie1k1F8XmJ9dMfNal0rCHHgL/+g/MUp3BKlrrPNBC6r0H2GiCvXNVhVPnF24UJnE+WwMclZOSKKv39qUorqbVFdab0rGHHgJ/dbU6b3wLqYe81UYUzNGN2rCpI4H0tcCGs1GmtuCCROFgQA8Jh9upVHbI3YpSe6YayDNmo1x1+U7Co3aCzja0fAzo5Iv6CENUpYKf+DnEUTswGcBrI98xG7XjmXWofFFrN4hiLJWHXh+LvhJRlDCgExERxQBnuVcYZ5FTIfmuHdZ7/XEUqItbwjWoeq8fhTgqiMNE/XrBHjoREVEMsIdeYfWeJxr1M/w4yDcZqN7rD7w8dKqN+q8fhbEJCg976ERERDHAgE5ERBQDDOhEdSO6eehEVHtsN4jqBvPQiah0DOhEREQxwFnuFcZZ5FQI89CpVPVePwphHnq42EMnIiKKAfbQK6ze80SjfoYfB8xDp1LVf/0ojE1QeNhDJyIiigEGdCIiohio+4BuJwzl+k7Rxc8wE/PQ4451PnyZZVpuGatqZD+nqrQbwcJpa0HZ64u5vlN08TPMxDz0bKLauGZSVdb5Csgs03LLWETSXqOU+lerOluVgB4snFIKqhK98rg0ElFQzgkdkW0zol534rIf9aiSI7fFfm7B39fqxK0ms9ztmWoxOx08qw2jkNry3mHgLPLcJ3RRUsneFfPQixPVupMpzP2o9/pRSLl56JnteWaHMcyyLvRaIlLzUZiqD7kDrQsmX4NmC6nY5xd6/2yvR5SLrSusN/UhqqM9YV/nJSNX77lSgTXX9fV6aSeq0kMPFnq2fxf6fTKZxMqVK7F161Zs3LgRyWQyVYAFyk4FcJA6c1JV9N33y+jYsWPo+5lNveeJVuMMf9GiRVi75rNWlV0lAjmo4kKQgKpimw7tsd9++4X/FsxDz2n2zFn44osv0no/9dJ4tkXXHbuhZ8+e/s9hBZv6rx+FhdEGZJbn1s1bMHfu3JLrh+M4cBwH227XGR07dkTXrl2xzTbbtIpPmSMEte6hV3XIvVDgXrL4Y7z99tt47733MHv2bCxYsACLFy/Gms/WQOA9H+r/u7g3VagCAvH/9t1338XB/Q6JzRBevfv5z3+Ohx58EED659Dmz7IWvPrjiIOePXtiwcKPar1FDWX48OFYvHgxXHXT6kyUgjkAnH/++bjv/tF10/DHmapi7ty56N+/f2l/n1HHFApHHHTp0gV77bUX9t57bxxwwAHo168fDj/8cHTv0SP1dzX+TKsW0LP1yNesWYPnn30Ozz77LF566SUsXboUqopExsGaSGv821hgar8pHKRmD9e64BuJJlONsbnGY/4NSN2nZ6kCCQGStuZofRy4jcIBAHXRJI7XJpiG1lUXTr2fDHpcAK7rMphXWLC3bONHae2L2BcEoKaeqWL92rWYvnYtpr//Pp785z+hXlTq3r07hgwZghNPPBEnnPgNdOvWLaQ9artQA3rmMESQ/Xnr5i14/PHHMW7cODz//PNwW1pSz/G+sp15l9OTs6lAdmgnBqNUkeI45rBKmE8Xrpihwih8DGqO5VTwkPLqYn4CR73yqdA7RJEg41KNRmBkx5c6CbEYzCsjs1zDOIby1TPxfrtsyRKM/etfMebhMWjX1A7HH388zjzzTHzrW99C+44d/Oe7tlNa4IQuXxwtJLR2o9BGLFq0CFf/6MfYc889cc4552DCxAloCQRzagTMs86P5UMUJXa0zp5ktrS04JlnnsHZ55yN7t274+of/RiLFy+GqunpC9IvPWdbMK2c2fKhBPRcqWWqivnzPsS5Z5+DL/XZB3/80x/x2WefQaFIRGC4lYiIKCdx0KJuqxNwgWDNmjX405/+hD5798Z555yL+fM+TH9OlnS7clPfyh5yz/XmK5evwKhRo/DAAw8gmUwCAEQAxx86M9/dCo8+OTWeNxP1PNFKY/kwDz0fV9y6L4N8Kl8+0S0boHL3Q7evWenyUVU4TvoxHIw5CsDVJB555BGMHz8eF1xwAX71m19j5513zvma5VySKbuTnPnmruvitltuRd++fXHvffdCky1IiMKBwlF/jhqiXQ2JiKjRiTfHxsbzzA6kwJzPOVC4yRbcd999+FKffXDLLbfAdVP9+rAyNkKZFGd76bNnzsKFF16It99+GwCQ8H+feq4AcP0UtGr0oGt76lDveaK1PsNn+TAPPR9HnQiUQT6VLp8ol41RiUNM/ABb2fKxIdkRAdRFZhaWSXkDXE1N+t6wYQN+dNUP8ei48Rg9ejT2O2D/8NYlKPcFbDC/5667cdhhh+G/U6bAgTkjAQI9cgdIwgRzZf+ciIgizoFJwpUsmRcKhYqJexJ4zPHSd9966y0cfvjhuPvOu0LdnrJs3rwZ5559Di677DJs3bzZGzpIXw3MFcB1UykA0Uk5ISIiys4uOpPZSc1cNMtPnQ48w4Fiy6ZNGDlyJM49+xxs2rSp7O0pKaDb8f5lS5bi6AFHYdwjj2S8kPhfjpovO6s984saCe/3nR/LhyhK7BoJmZ1U+7ONf2bov/WXKwpXXYwfOxZfH3AUPlm6zH+NUsaxS2o3RAQzpk3H1772Nbz//vutb7Zic/M4tE5pmGedH8uHqNGIAK66mDZtGo444gjMmDbdPO79PteEuWyPFxXQM//wnben4Nhjj8WSJUv83weDd66zFiIiIkoRu/qkuli6dCmOPfZYTHnLTCzPl5Oe7fGCs9wzX/Cdd97BCSecgHXr1pm10QNTFF3/Lkip6fy1xjz0+sbyYR56PsxDzy/KZQNEPw89DOrPgDdd4FWrVuGEE07Af/7zH3zl0K96zyluBbmCPfTgMnWzZs3C8KHDsHbdWiRyvKhJsq+PYE5ERBQlDoD169dj6NChmDVrVquVWPN1AIrOQ//0008x7MShWLV6JZokdcbgaPqMPnXNsq7Q1jP9aoN51vnU+gyW5cM89HyYh55ftMvGiHIeerlce3tvUS9X3ZtMB9NTHz50GN54czJ22223tB56rp56wR66qmLr1q045X9OxsdLFpsA7hVW0t6iTrybYoqkBfDaB3MiIqL65Ki5C2WL2hRvRRJqOhKiWLx4MU75n5OxdetWAOlrvmd9vUJvKCK49NJL8c4776SdSQVn4bpqfvLvGMPZ7URERAXYAB14JCNWT3lnCkZedrn/c+Yd2oKcfL8EgLFjHsZfH3zIWxFHIGL+Fcwjz5WDVy8cTU2OU++G9WGtnRsU1ROZSt6e2b80g9SSv44yzzqTg1pfHCpVdY91e4xF5Vhzxawklins9kdE4AL+V6Pfc92WR1QE89XTvqBoEuChBx7AX8c8bJ6cp5fu5OvCf/TRRxg5cqTfAwfCr4jV5Iq5PFDO7emysWUiGYduVErKreCGioh/tz1414v8963c24bGbm+2ySihN8oZ7xll5ZZNq7L21raI2mqTqqk2JyjsgOuqm3aSk4xQJQoeW6XUm2x/G+U4FSR2HXgRjBw5EgsXLsxb8x2gdYHYG69//7vfw4YNG1IT3mDT0qJxMFWLva+taXACj9dsi4pnUyaA9F5PWAeEqiKRSPg/i0TnRAdIjV6oKjZs2OD/2/yu/E9YVdGpUyf/vcwEmej0QO122n2wii2bXPXM/v26devMz5C0jkVU2EVDHKd1UA+D3yOHWY1TvHXCozQC5qL4WdzZFLquHGUtXvts25/vXfTdtLu0ZWoCWt9UXUTw0AMP4sUXX/SnC6p6KWlQJF2t6DBtmOxQu91eV11s2rQp1F66qmLHHXc0B27G72o9i7wQAQDvDLDbDl1Tj4dUNiJiyjtt4aGUui8fsb2s1EhDmA2HiGD77bc3jbKm6qk9Naz38nHUjEptv/32Jf19q1UmM06WkkgGZgJ7N7zQ9JOfKNi0aVNFAk63HXfAZ599BjdwWdGeMicRgfJRwU477dQq/gD5F1Vp9TIZs79tm+PW+/4XIDAnbDab7MUXX8TDD43BeRecn/X5fg89WHDr167Dddddl/7Cksovd7yoFYVRjVQgTw1/rV27NvSDq1evXnDEiUSvPMg2Ai3qYu+99/YfD7OHbntZaY9HpQfqnSG76mLDhg15z45L1bdvX/82i/59lUN/l8rq27dvKHXGjnQBQDKZxLp1673HUwHcP+mJyMHmiMkrBsIfCu7Vq1er21PbH6NSPr169craHreljc48GVi7dm1kLssUQ8WMwADAddddh/Xr12etS34PHUgF9l/96ldYvmI5EghcQwwWTmCYtt7bZf8yAVLDX6tXrw71PUQEhxxyiBlWS6Y3+PWeB2k/QEccHHrooeaREEcvRASrV6/2BgPthKbUfIN6Lx9XvNEoFbiqWL16NXbeeWcA4ZVT//79vSHl1iNf9V4+6n2a/fv3L2olq6JfVxWfffaZn1ljJuQK1NVINdNmdEGwatUqAOEPCx926BF497/vAUit+2HfodarZBZDEgn069fP/7nYFdHyUVWsWbMGCkWizo+fQuwIncI1l1VEsGLFCvz6l7/CjTff1Or5aR0BEcGnyz7B7bffboI5zIEUvD1cVHpWQcEtFgg+/vjj0N+jc+fOGDBgQOo9o1dMOO644wAEGp2Q9mHRokWBk8ZozC0ICn6W9v4FQHiN86BBg9DU1AQB0tZ5iMKx5oiDpqYmDBo0KPQTwcWLF6e1P1G8hm4/y0WLFgUeC+9zPfbYY3PeCCsK9WfAgAHo3Lmz/3Nbg3m2sgzWnahLaw8chaoLB4o77rwNn3yytPXzMx+46aabsPWLLV4w96b/q+sfVFEspMwtnj9/fvjvIYIRI0YEfg79LSpqu+22w/Dhw0N/3Y0bN2LlypWBa6N1P6iTVyXqzg5du2LYsGEAvJPojOvo9UxVMXz4cOzQtWvovc+PPvrIfw8b2KPGFsnKlSuxceNG77HwymnYsGHYbrvtvJ55facPZ3PGGWe0eiw4YlxIrkl0CxYsKH/j6oDtVAPeJW+YOrVp0xbcfFOBHvqaNWtw3+i/QLxrzW7grmnRvXuawIUgiVT+84wZMwCEH1jOOeccdNvJDMfa4S4XMCv/eM+xZ812dmql+asOIfXlikId9YaTzboC3//+99GhU8f0Py7x4w4eYLNmzEzlhHq5lbYe5bofQF3x72OsgChmzZiZ+lVYPS0BfvCDH3iDavae6Pbz8t4ro7YqtCo9sGBusytZ6hLMtpfTNORKWbK3kcx8XvSY7bZ1J8z96LhtJ1xyySVeXQh+5dqS6o602rYmGdguW5+67rgjzjrn7Jyff7EnPtmeN336dDiR7joYYtd8CbSdrgJN4mD0X0ZjzZo1ac9PC+j33HMXNm7c5E+TjxPH31PFzJkzkUwmQz892Xa7zrj66qshcNJmVwavH1f7pMhOJgoKDuO46qLz9tvjxz/+cVmfefCgDJ5hT506NetQqZmtHI06ZoKZ+fe7U98JNW0NMOU0+JghGDJkiHeS13opkvQ5CPZaaRXqkqh/8hBcoAkwZTJkyBAMGjK4vLfIkXY0derUsl63Xti6Y/enlNSsfH7ww6uwQ5cd4BYx+mXrUfAyaiWJAK4LNGWpqtdccw223XbbstPOMvPPW1paMGvWrJJeKwpsCufmzZtxzz33pP3OD3Ou6+K+e+9NK/g45PXZ60t2uAIwKSTvvvtu6O+lqvjhj3+EAw44APaGDDYn1M5QtGen1coVDWYlAK2HvBWCG2+8EbvstmubhroyZeaR2sA+adKktMBjG5GoDZ/ak6DJkydXLJDecccd6NChg59XnMk2xtU8KQzOurejOXbUq2OHTrjjrjtz1pdi6lHO53hlHQd2Yt8bb7yReizEtnW33XbD7373O9PmOAAyTv5abY8XEKpRj1SBBOziKKnHDzzwQFx11VVltTlWsCxFBFOnTsXnn39e8uvVm8zP0C6w5KqL0ffel555o6rquq6+8NzzmnCgCXhf4qgA6ki0v5og6kA04difoQ5Ef3/TzVoJruvqB7Pn6A7bd1GBeT/75Zhb//rb0VTF8rXvlwC0nTj+5/ud73wn5360db+z/btnjz39fbbf24nZjmruf6lf4tWX4D5Me+/90ipHEe6/b7Q6EG3yvhIO0o7DzJ+rWX+CbYMD0dH33lewLhQj2/NnTJuuDqTmn394x57oXj16llQ+xRpx2ul+fQ3Wn+Cx16puV3jf23n7b4/5duJol+2219mzZ1esLP5w8+/9cq/1Z1/xL4i+8Nzz/r476vWkHn30Uf+irh1yj+Y189b8HrqmFqeYOHFiRd5LRNB33y/j8ccfR/tt2nuPeduhqfvFA2bhh2pIO/kVBy3qQlXx9aO+jgcffDDjuanhZG3DWXPmWTIAzJw+A8s+XooEzFm67ZPbOwtpBDrptlfcJKkc6Oeeew5AZS5LXXDRhRg1apQ/kpOZe+266SMulZb6WL0hfm8Z01GjRuHC716U9lwt8VJEtl7as88+W/I215NUwoji448/xowZM0If+bTlNvqB+zHw6wMBwLtmHRhhyVJnqjEAm7q0Z2pQol07PPHEE9h33329bShvI7IdgxMmTDDtfQTal0KCu5etuREoHnvsseCTVJubm7XbDl39sykb+YNnelH/smc09iyxXaJJV6xYEeqZYebZ5ssvvqTddujqnzUnvDN1f9RAnKrsd9rogPfew04cqp9//nmo+59WBklXf/WLX6ZtSzuvZyeBEaBa14uC5Wc/q8CIwpGHH1GRnkXwNX/9y1+llU8i49/tqlB3gseNEyiL3/zq1622N2xHHn5EzT/7MI+/dl59/9UvflnRstu4caMOO3GoP4pijzt/ZK7Kx1yw3uzYtZu+9J8XK7LftjxXLl+h2zS189uZWn/+5X4VPs6h3Xboqs3Nzaqq5hzmzTcmY+3atVBF2mSuGJzg+FIL5JiJYMlkEo//7e8hvG7qtCnzbHPQkMF4593/4qgBR3nvbXp7qev6lZ+UEpzEJBC0a9cON/zvz/Hk00+hY8f0We3lbI9m9uxFMH78eH9/gdRtdqOaNWEnGE6ZMgWLPloY+ucXHBX56aifYcLEidh1113N7wJ1B6j+pFWFYrfddsOECRPwk5/9NGeusN2uUrbP/s3ChQvx9ttvx2IOj2WvWY8fPx5A5eYnbbvttnjy6adwww03oF27dv57+zelqtExd+SRR+Kdd97B4GOGVOT1bXn+/e9/h9vSAkF0lifPR7V1Nkvmz2vXrsXkSWZ+hgMAEydO9G/fGCyEuBxQCk0bcrITsu6///6yXztXGdnGae+998Yrr72Ke++9Fz169KhpMDv55JMxdepUXH/99UgkEmnbnquBLkSzDLOKCCa/8QZmzprpT94A0mdqR4ldltVO7HHVxf3331+R4yP4mkOHDsWcOXNw9dVXo1OnTq0a5WqV5bbbdsI1//cazJ49GycOG9pqO4NKXeXL/o2qYvTo0f5jUecPeYsDgWLWrFmYNGlSRd8zkUjg/11/PaZOnYqTTz7Zb3OA1CThaunRowf+8pe/YNKkSejVe+/Cf1Cm+++/35/FHxf+Kol5MqXsZUBRVT3qawMw+c3JZua112jYeXPxKZbsJk9521/y1Gey+UPX0tKCiU9PwGOPPYZ///vfWLlyZVr5hp3OAgCHfPUrGDp0KM455xx/ve1KnqjZ1z/nrLMxbuwjkeuFZ5P5ubgwM4sXLlyIdu23qco2fPbZZxg3bhz++cQ/8MYbb2Dz5s0A7H3Uy0uJtIj0izMAACAASURBVItHBf++Q4cO+PrXv47/OfWbGDFiBLp27ZrnFcqg3vZ7wx/Nzc3Ye69e+PTTTwHRul/6trD049mF4KyzzsKYvz5ctS2YO3cu/jrmYTzzzDNp2T1hte02gLrqAuJgp512wnHHHYfTTjsNw04a3qrzUCnvvD0FRxxxBBSKwP0dK/6+teR6x8jhRx6J19+YBNm6eYtuv/32aG5uRiJwdp30uvqJmBfIt087DeMeHV+19wv2sD795BMsWLAAGzduxObNm6Gqbb7NYjDY2H936dIF3bp1w5e//GW079gh93aEmEcdfK2lHy9B79694bY0I+oHVLY0MXuyO3r0aJx/4QWt/6bCJ03J5hYsWrQIH3/8MTZu3AjXdUu+aYwK/HqXSCTQuXNn9OjRA7169Uq77W21PDD6fnz3u9/1Li/U/1r2hbUO6O3atcOHC+aje/fu2f+iQvVHVbF161bMnfMB1qxZk/MGH6Vo37EDunTpgl69emH33Xf33w8Id72GfK91xukj8Nhjj5nnqOvd7Cjq9Sc/G9Cdpias37gB8vabb+mRRx5pzrKQGha1t0CIew9dRTBtxnTst99+rW5SE9p7BIYTa3UZI/jeld6OkZddjrvuustcx4p4QAfSg7p6q6MJBH369MGsObPR1NRUlc8233uE8f656mm16m1LSwsO2G9/zPtwnhl5iEFAT7Wkhuv9dMkll+D2O++IzWXNSitUB2fPnIWDDjrIv+acgJkPFvX6U4gN6C6AyW+9CWfa9PcA745SZt/N9UKIWerSjfmXquKG/3d91rSrsGQuupJPGGfM2V4j2/6FObzvT2ha8BFGjx4Nx2vIav35hvGVCuXm3zb1cf6CDzHmwYf8Ms2cEBZ2+WYG2aBy66zrujnrabZ9q4SHHngQ8z6chwTEtEGIfv2x9cWyl0dGjx6NRR8tTD1e4fKt5Otne81K1f1cr3vDDTd4o59mVNmNSf0p9OWXERQzpk2Hk22JvBjMRWmTJ554Aq+98mraY2FX/FazwHMod/nDYC+r0PMrMRR29dVXY+sXW83jobx6bdl81iTMCa+9J0DC+/6zn/0MG9atTyuDcpeyTH//7PUm7PkWmZd6Mrc9zH3KZsO69Rg1ahQSEIho1dZoqAZbrAog4SSgMHMFfvzjH/vPySzfsD7bzGHvSk/krITMkcXMsnn15Vfw98dNxlLaEslxaICKJBDMnDkTTQs/WgyoXTzD8YcU7WSVuF9Dd8WscnLZZZfhv//9L7bpYBeDqUwvvVLDl5m9q0LvUYlg/twzz+Kf/3rC9EgUsbiGpSKm9xrITggOwa9YuRyjRo3CLbfeap4f8ucb/Dyr3XDmUolLSKNGjcKqFSsAKFoCy4RGf8g0cJIEIOkm/YnH//znP/HsxGdw4tChaVNNwizXXJdOwnqPbHWhkm1c5mt/sWUrLr/8ctibmAA2NRkxmYORn+2lOzC36HWWLF4M8YK5q27a7Pa4B3NLoJgzaxZ+85vfAKhc7xyo7NlssaMAYe6f3Z/1a9fh4ku+Z3q0Xq+2JQZnyMFJjJnfAXNl6o47b8MbkyYVNTRYinwpYmHJHOEptD1hNtqTXnsdd995p+lMSHVXwqs0e6dH+z0BgXj3tHaguOSSS7B+3bq0vwlz9CXb5xr2CUPm61UiWyf42kG/+e2vMHPWTEDS7+jWSOyIxKJFiyC9uvfQJUuW+L9slHQ1yxVNLb7iJPDKa69iwIABob1+LSfC5RP2kPs5Z52NcePHQlMZSLE4Q3bReqa7k/aYQh2gZ8+emPreNHTp0iXUHmwt6k+u96zEtqxbtw79D+mHjxctAryAHhT1+pMMpHQ54kACdx404UcwYsQIPDJubEXeXwEgy+dWyXoV9uz2XCZPnoyjBx4F1w1cS/b+2SidURO/zKjhnt17wFm1alVawVfrLmD1IriSWtJN4ozTR2DFihUAsp/rtfXMsx6DOdD27crcb9XUSnf33vMXswKWipnQFPgedXakyh4XqWG94FAmsHDhYlxw3vmAG/6Qe7VVckQgWI9UFd89/wIvmAOAIAEHoqn7P0ed6ZGr/90MCJsvM0ysGP/oOPzl7ntyvkZmmbWFmZTXuhwrWa9KvTyUdd9y7O6qFSsx4rTTgWSqrth2p1GCOZA64RUIPlu9GglNuj+v1q306pU9zBwI1m/YgDcnv4mzzj4LTV4ebrYJT40mV6Pw+quv4ayzzkJzS7O3OlM8UtXaxMuxmvPBHIgIBg0eXBepivUg13CsiOCX//sL/OWee1qt7NVo9UcFeP655zHkmGPQs2fPVr+v5jyKWsi7b1keam5uxv856SRzo5vKb15dC44etrS0QJpgrqpX8rpHPQsOudshMBHBGWecgYceHpNW0Rq1cc4VnD744AMMPOrrWLV6lV+pGml0x1DvhFD8y1UPPPAAzj3/vIatL9mklYUCYx56CBdccIF3n3Xxh6Qbr3NhZvQ74mCHHXbA5MmT8aUv9zW/qfJQeS25rguniMkT/uW9ceMaYtJ2MYJBXRxpwFkEGRIIpjiIf930sksvw2133J7zAIrrwRWUGczt9/nzPsSQIUOwdNmSwHNNWSaRnnsbZ6pAk6RuD6lQiJPA3//+d5x8yimAZM8hj3u9yeefT/wDp512GpLJJLz+hD/votGIerOyvbrTo3sP/OelF7HPPvvUetOqoi3HhqqaRavuvsu02QBicFUmVFlPiRrtwErfX7NiXpM4uPOuOzHysstzXsNqhEY5XzBfsnQJHIX/JWJWZ2qAYvGJF8wdL+VTYNLcTj/9dDz26KPec9IXZhEvFa4RPTb+UYwYMQItyRavd24ez1YcDdEOOSYw2VU6lyxZgmOHHIN58+b5T6nkgkW1li2YZ9s/13Ux8rLLcffdd5uTP0R9UenK8IfcrWxrV8dbtlXVUrO0kwC+8+3T8NBDD+VcF72RvPP2FJx00klYtWoVFG7axCXbJot3TTRODU8ufh6ouXCVehxmsZZbbrkFl428POvfNlRPXYE7br8dV111FZJu0r95hr1c0frpjdEOJf016wFAvNQrYNdddsVTTz2FQw8/LOvfxbXuZNuvTZs24aILLsRjjz1mVjW1oxoxyKIJQ/BYcTJvpZc2e7cBRuMz99D2uPygrsDf/v4YjjnmGCxbtiz9bxsgYAX3cfzYcRg8eDBWrVplcmlz7H6jBHPA60WqeCubebMwxCwT62oSV1xxBa4ceQVaWlpa/W0cG+RsmpubccXIkbjyyiuhakbAXDuakyOY2xGPuDOLMJmlSu0a5CJmwaLBQ47G+LHjcvxdPOtO5n4tW7YMxx97nLnpCsx8J3uJguPtRlpKba6z4EY5Q87cQ7vEp12tSmDOnt98azIO/cpX8e9//zv1tzE9qIJEBFu2bMEVl4/EWWedhc2bN6fl0lrBR9wsv48rfzKKF6CSgLeASCol8o477sCQQYOxyE/PMhrhpGfRokUYPHgw7rzzTvOAunlbFf+yRaNMjgsEJftPx+tIbN20BWeffTauuHwktmzZUqMNrJ0XXngBh37lq5j85mTTM/cez1+DGkvmSW/OaYUNcTABCOaFAun5jKriTVYxQzufLv8U3zj+BPzwB1dh48aNtd3sLHIFiHKuwb379hQc/pWv4u477wzkYQfLzAjmaTdO3Qnst2bm33v1CeaGEW++MQn9DjkID97/gBkCQusTwmI+n1pdRy32/YLb9+CDD6L/QQfj7Tcmm96V/yzJmWeebTW+OMusP8EcdXiryt195x049CtfxX+nvANofV1LD65HEXysHJ9v2IgfXfVDDDvhG1i5fHmWY6rx1kvJJfM4YZkUwc56t8OAt956Kw456GD84/EnABR/gFXqAMxcmSnzfdqaQ6+qWLvmM1x15Q9w5JFHYvbs2SFubWNReGvaA1i/fgMuuugiHH/88Zg5c6b5fZZJlvk+p8w1+6slc2JfNvb658zpM3DCccfjogsuxIYNG8zf2wyABgnUYVIAs2fPxhFHHIEfXnUV1q5dm3WZ4XIWoClH5nbkWmUwH/v7fzz+BA4++GD8+ZY/p91NjIrDgF5AcNELCazrvXDhQnz729/GkEGDMem1183v8zTE+WZwlivzfYu9MYtq66uUmz/fhD/c/Hvss88+uOO221qffds7GSGek3LCJkjN1nbUlNuLL76IfgcfgksvvgRLFn8MoO0nhdWYFBV8r2IWV1r68RJcevEl6N+/P15+8UUkRFoNCabNam6Aa+RhEKRy9W+99Vb03edL+P1NN2PLps3m91VeTz1t2wLvky+QF6qrk157HUMGDca3vv0tLFz0UUNlyoSJeehFsPnVQXbNafVSlgYOHIgf/ehHGHbScCQSmc+2z62/fGS7DcuXL8df7r4Hd955J5avMMNcCoUGZvyn/qaxUtPK5af0qemtt3h1xlUX27TbBmeddRZ++MMf4sCDDkrLW6/WanPZRnhy/Tv4POv999/HLX/6Mx555BE0tzSbuzZ68yjcQH6545h/s/4Uz87DsIvPBIP0zjvvjMsuuwyXXnopdt5llzblcdVD25NMJvHMhIn4wx/+gFdefcV0lryFvhppLYswMaAXYHpVpiF2vRmWmTmQSXhXvUSwxx574Pzzz8d3Tj8NBx10EIDKHjxtfe3g8zdv3oxnJkzEuHHj8OSTT6K5pTl9SJRDXuXzrhPbVa3MiE8qyAVPDA879DCcd955+M7pp2GnnXaqydKxuQJ45nYsX74cj//t7xgzZgymTJniP8+BmRSpgf0Sab1wDIN6cWyKlmasohe8fNGuXTucdNJJOPPMMzF8+HC079ihqHoTZt1qy2vNnD4D48aNw8MPP4wlS5aYY8IBxJtLa9vbZChb1lha5aFTdslgrl/ab7xhySwHXO+9e2Po0KEYOOhoHHXUUdhjjz2qEthzHVwtXzTjvffew6RJk/Cf//wHL730ErZs2uRvL7wegDjqN76i6T0D25A06lLBbeUi4xpj8O5+9jniTZ8LBNDDDjsM3/jGN/D1owfisMMOQ5cuXaq2zdlGkjau34C33noLr732Gp5//nlMmTIFrrr+0pt2SFiQWlxINT1POFh3GmYWe5nsdWQT2FvPQ9BAWSoU23baFoMHD8bxxx+PAQMG4JD+/dCuXbuKbV8xgXzp0qWYNGkSXn35FTz77LNY8NECv9643s6JwE+VsaNYJj+fdaQtGNCLZBOxNCOwBx8HzLCi6wZ6H4EK2a1bNxx44IHYe++9sccee2CnnXZC165dQ9k+G2BVFY7jYOvWrVizZg2WL1+OxYsXY968eZgzZ06rfOjMkxM7+pBaXMdJazDYCLednVQJpMo1dVEmWJ7q/9+OBNlknb322gv77rsvevXqhT333BM77rgjOnToEMoJYmaPfPPmzVi5ciWWL1+OBQsWYM6cOVi0aFHa55/IckJnG2e7f2Y/MmbyBwYEWZeKoSZNK6OZVj/gpUZ5bFWwlzUcB0g47bDvvvuib9++6N69O3bbbTd069YN7du3D+WE3HEcJJNJOI45IV27di1WrVqFpUuX4qOPPsKMGTOwZs2awN5o1kyYZJa2RdjetBkDegF2UlyyiMrvZL16kT5E5n/3GsSwZiUGG9vgv7NlhAffM3i/7+D2B4NKIy0UEzb1Stf+2za6qV5664Ae/CmzQbM9fv8OVWV+Ltnu927rfGYv2l42CI7OpNWvVsE8tX88GSydPVHKJnO0J/OE3F4OTP0+/XMot/1JZqkr6Z2e3PUzuNJbZjvFG6+UhgGdiIgoBpi2RkREFAMM6ERERDHAtDUiIqIYYA+diIgoBpqY50dERBR97KETERHFAAM6ERFRDDCgExERxQADOhERUQwwoBMREcUA89CJiIhigD10IiKiGGAeOhERUQywh05ERBQDDOhEREQxwIBOREQUAwzoREREMcCATkREFAPMQyciIooB9tCJiIhigHnoREREMcAeOhERUQwwoBMREcUAAzoREVEMMKATERHFAAM6ERFRDDAPnYiIKAbYQyciIooB5qETERHFAHvoREREMcCATkREFAMM6ERERDHAgE5ERBQDDOhEREQxwDx0IiKiGGAPnYiIKAaYh05ERBQD7KETERHFAAM6ERFRDDCgExERxQADOhERUQwwoBMREcUA89CJiIhigD10IiKiGGAeOhERUQywh05ERBQDDOhEREQxwIBOREQUAwzoREREMcCATkREFAPMQyciIooB9tCJiIhigHnoREREMcAeOhERUQwwoBMREcVAU6XfQKFwxIGrLhQCx3tMIP4ziIiIosYVQBVwHEBcE81Ssa36pAlS8YiqXggHAEkL5oBb+bcnIiKqKMcLZSKAqsCG92qqeA/dBeB4Idz2zN1KvykREVGFBSeV+3FN4Y1EVzucVzEP3VGzg+oNUYikHiciIooaN1vIFoUqkIAZkq+mivfQJRDAg4HcylogREREEZE2L0wFjqOoxVB0xa+h230KTqdPQvE//+d/8Itf/AIuJ8UREVEE+dHTEf/f119/PZ56+klv9Dlm19ABc/YS3DGBoGvXrji43yHVeHsiIqKKUVWIN/zcrVs3aI36qVXJQ882jV8yx96JiIgiyMYzVfWCe222o+IB3fG+THoah9eJiCieRMQE9xotqV6VHrq9jm5m/DGoExERhY1LvxIREcVAU6VXauPd3IiIqKGIWXil2iuhsodOREQUA7wfOhERUZi8tdyrHV/ZQyciIooBBnQiIqIYqEpAt29Si6XwiIiIGgHz0ImIiGKAQ+5EREQxwDx0IiKiMDEPnYiIiErFPHQiIqIwMQ+diIiISsWATkREFAPMQyciIooB5qETERHFAIfciYiIYoB56ERERGFiHjoRERGVinnoREREYWIeOhEREZWKAZ2IiCgGmIfeRqpMu2sLW16Z34kKiVpdidr2UvwwD72NRIQHbhuIiP9dVf2f4yZYJ1SVdaSNMssrinUlattbL3ishIdD7m1kGxpWwuLZsoprgxesE/bfcd3XSgvWlSgdY5kndFS8qH3W9Yx56AVk6ylEsfdQS7as4lpuwVEIIL77WREKQLKP4EShDIMncK0+d1cBp/73odZiebzUKA+9qarvFnHBirdhwwYc/fWBNd6i+hc8+w42eqqK/3vtNTjzzDNrvIXle/ed/+Kiiy5qta8Ae2vFunf0fTj00ENrvRltlnkS98gjj+Dmm2+GKHuexQoGc1XFa5NeR+fOnWu4RdHFPPQCgkEo+G+3JYlp06bxmkUBLlpf10lC4YiDlctX1GKTwqXm5G7atGkAzL6KCJJeQ876kZ8rCqjg8w0bAUS3t2a3eeXKlZgxbTpcdSES/RHKSnNFIXDgqgtHHKgqWlpaIlsPfDXKQ2cPvYB818w14hP8qsEGNBHAFqHjAK7rQpzol5/Cqx/eSYqqmzHvM/r7WEmONyyZedkiylQVjgOIC/Dzz08VUKSCuULTRjfiUB+qiQG9gGwVyx9WhVT9GkkUOZq6nKhqvkyAj37ZiQhcqKkL6prv3s+AzeygXPxzOnHzPi9SROG6QAL8/AuxxSNqjxrOQylHVQK6A2/oNaJ56JkVS0RgR1I4pFaYbaqTauqCo95jGo8BaVE7EmGG2VzzzTzG+lGYAhqTyCcKQAUJrx6wfSjElJMpK4UL07YymJeGeehEoWHdJiMm5ycUMfHoIhERETU45qGXidfQ83O8PGOff80Usbpumm02P8D6UQjbh8YWg3mx2fF+6ERERFQq5qGXieVXhGwnqYrYTIoDcp8Zs340Nn7+hcS0i877oRMREVGpGNCJiIhigPdDJwoN6zYZsZ3sRXWNeehEoWHdJoN56FQLHHInIiKKAeahl4l5pvkxD531Ix+2D40ttpcmmIdOREREpWIeeplYfkVgHjo1KH7+hcS0i848dCIiIioVAzoREVEMMA+dKDSs22TEdrIX1TXmoROFhnWbDOahUy1wyJ2IiCgGmIdeJuaZ5sc8dNaPfNg+NLbYXppgHjoRERGVinnoZWL5FYF56NSg+PkXEtMuOvPQiYiIqFQM6ERERDHAPHSi0LBukxHbyV5U15iHThQa1m0ymIdOtcAhdyIiohhgHnqZmGeaH/PQWT/yYfvQ2GJ7aYJ56ERERFQq5qGXieVXBOahU4Pi519ITLvozEMnIiKiUjGgExERxQDz0IlCw7pNRmwne1FdYx46UWhYt8lgHjrVAofciYiIYoB56GVinml+zENn/ciH7UNji+2lCeahExERUamYh14mll8RmIdODYqffyEx7aIzD52IiIhKxYBOREQUA8xDL4JqTIeFakShEIlePcjHTO8TJAHEbNcqKt+0yCgfd7Gd7BU6AVSgWWJDlD//WmEeegGqJviwcoVDoXDEgatuLIK6Xz/MpACIAK4L72cqRrCs7HFmy7XeZWsXFMo89CLZYyeRkFbHTBQ+/3rDIfcCbKVi5SqdrWQJEQjMyZFEcKQmGxGB67pmv2B6ZiJAk/DQKkXUjrds22nqeA02JoJcNcdOMpneJrADVRrmoZcoVeFY8YohDuC6CkcAVW+SO5K13qxQ+L0Mb9+AVEPF+lGI+A15VHrlhag3UmN/otzsibCIPRHyLl5FvR4wDz1aIl/hqkhhAl2wxOJWfAKBq6klPzUmIxDVFJdLW7aHHrc6Xinmc0esRu5qhXnoRcjsOQSvm7qsgHkJ1HTPVc1qal57raqxyUP3h4nR+uSF9aMwO0kyDj10e0Ii/khUtPen0hzY9tSWXUzKi3no9cs2MqmDNXXdlArwJsBZKoIkUuUYB/aYtb1zu1vxWdi2chSamlcR4fpg2wbHcbyf2UNvC3MSnN7OUts11XoDoiTYi2jfvj3OPffcSDdC1ZBrdAMA9t1/v1ptVqh23XVXUxccTe1fTEYfqkFVseuuu9Z6M8pi24b99tsP5513HiCuN4ScqPWm1TVRhYoA4kJcgQugffv2td6syKpKQHeAwHBrtAOgDUadOnXCAw89WOOtoXqw7777si4QRATHf+MEHP+NE2q9KdSgmIdOREQUAxwXJCIiigHmoRMREYWJeehERERUKuahExERhYl56ERERFQqBnQiIqIY4P3QiYiIYoB56ERERDHAIXciIqIYYB46ERFRmJiHTkRERKViHjoREVGYmIdOREREpWJAJyIiigHmoRMREcUA89CJiIhigEPuREREMcA8dCIiojAxD52IiIhKxTx0IiKiMDEPnYiIiErFgE5ERBQDzEMnIiKKAeahExERxQCH3ImIiGKAeehERERhYh46ERERlYp56ERERGFiHjoRERGVigGdiIgoBpiHXg5m4JVFNV4FGLf9qbaol1+r7Y/27lSfmi9VZdGVqKkabxLMQ3dUEcWgrqoQEf/75s2b8dPrfgKR6O1Ltdkyy3zsm986FUcffXSNtio88+fPx2233ArHMaeuKgDc1vtM2blQjBw5Evvss0/WuhIFdrtfeeUV/OMf/4ATwTauVuzxYv3md79Fhw4dgAjWg1qrSkCPi2Bjs2XLFtx666013qJoCA4DKRQKgYigV69esQjoSxZ/jNtvvx1QFy4Agfj77Ob7Q4JC4YiDb558CvbZZ5/IBXPbJtjtfu+993D7rbdFfrShWsRrDwDTTqgIrv/5DejYsWNtNyyimIdehMxeg99bhyJRw+2KChFzAi6wX4qkKiDxCXfiNeCmPqSOKU5Syc+FtBr9ipLM7RV/yFiRgJnpTLmJOGhR2w5Esw5kVaM8dPbQi9DqoPV+FkjVP7AoUvVGz9QbXkMUL7rkpmIOXMerCuqkzlXcOO1oBYiaHlpcGnL1T+zMvvDzz0/UhXgjdqpmfIujG6VjHnqRsl4H9geLKB9bbOZwjRdF6gRPHcB1Abhmnx22SwU54pjRmgy2UY9KkM/VPlB+9vNXuLADGlH5zPOqUR46e+hFylbJBMJGuwAXSA2nAukjkBr9AWmB15jDgbguEgj2ylg/CrFBL9slrSjJ3F4XgAMBB/DycwOn+Y4CSZ4ElSX6LWqVcBioDOpCoHDgTXzJ0ohHmagdOk5hdSmOnwETKL2o1Yu0tsFJbXt8ZohUjkAAUX8UL4HUPARqO+ahFylqjUy9MAFcoBC/gbPXF+N20EqgbktE63m12bYhyj3ZtLbBS79yoNHeqaoxZWSbAhcCFba3peL90IlCw7pNBifDUS1wyJ2IiCgGmIdeJqat5edkLgxoi0sQqzx0Mwkqy+OsH3mxfWhssZ00yvuhExERUamYh14mll8Rsp2kKmKRtmbl2hPWj8bGz7+QmHbReT90IiIiKhUDOhERUQwwD50oNKzbZMR2shfVNeahE4WGdZsM5qFTLXDInYiIKAaYh14m5pnmxzx01o982D40tthemmAeOhEREZWKeehlYvkVgXno1KD4+RcS0y4689CJiIioVAzoREREMcA8dKLQsG6TEdvJXlTXmIdOFBrWbTKYh061wCF3IiKiGGAeepmYZ5of89BZP/Jh+9DYYntpgnnoREREVCrmoZeJ5VcE5qFTg+LnX0hMu+jMQyciIqJSMaATERHFAPPQiULDuk1GbCd7UV1jHjpRaFi3yWAeOtUCh9yJiIhigHnoZWKeaX7MQ2f9yIftQ2OL7aUJ5qETERFRqZiHXiaWXxGYh04Nip9/ITHtojMPnYiIiErFgE5ERBQDzEMnCg3rNhmxnexFdY156EShYd0mg3noVAscciciIooB5qGXiXmm+TEPnfUjH7YPjS22lyaYh05ERESlYh56mVh+RWAeOjUofv6FxLSLzjx0IiIiKhUDOhERUQw0VeNNHHiThmKUh56a6xDTIaPQCBwACoXE5LPPxkyKM/vnqPnZPMb6kY9tElQAVYVI9OqI3W5VBRyBwkyISpjf1njr6ptN7wvGBs4jLF1VAnowD93RzGnP0ZCrsWG+aQFqgnnC+8zVhyO4hQAAEzZJREFUC+0K0/jFgYq3X+IA6kJtwyQClw16Xo4CrppGPIrBHIAfzP3vEEAUqt6lVMortjPda4BD7gWomtqW2djYxyk/EUnrmduTO4GYljwmBAKFC0GqV+5qfNLyKinKIzeZ7YPtXXIyXHGCwTzJk9+yMQ+9gGy9Bju0BvDssjCF4/Vcgj31OIW6VCNuvitMUBdxoAzqeQUPn+AoWFSG31v1zkXMyIyacRq2D/m5An8YQ+CVZ/1/7IXVKA+9KkPuUZetoXEcB3vttVeNt6z+iQhc183aOG+//fY12KLwdejQAXvttRfEUSDpwnEcqEqsTloqrX379q2CYlT4vXMRdN5+O/To0cOrA4zmpXAcDhyXinnoBaRNeEHq4N1+++2xYOFHtdy0SMjsvQQfi4sjvnZkel1w4zM/oOKCKwcCkawjwTp+4YUX4sILL/QmBkgUpwtVl2b+2Lq9iKQa5aGzh15ALCpXDQV7L0C0GupitdonBvPi5SiqqNSR4GfPOlACr5j8kRlkKUsqGsc2isDKVR47upE52hEXcdynWotKeWb77KOy7fUk2May/ErH+6FTxWX2YOJ4ghTHfaqlKJVn5rZGadvrEcuvdLwfOhERUQxwyJ2IiCgGmIdOREQUJt4PnYiIiErFPHQiIqIw8X7oREREVCoGdCIiohhgHjoREVEMMA+diIgoBjjkTkREFAPMQyciIgoT89CJiIioVMxDJyIiChPz0ImIiKhUDOhEREQxwDx0IiKiGGAeOhERUQxwyJ2IiCgGmIdOREQUJuahExERUamYh05ERBQm5qETERFRqRjQiYiIYoB56G2kyrS7UrHsqFGwrlMtMA+9jUTMCQkP2OLZshKR2Jdb3PcvbMHyilPZ2XaC2i5O9aDaOOTeRsHgRMUJllVcy431ojS56kaUG/Uob3s9aIQT/0phHnoRVNVvbII9dDbeZGXWBdaP8kS57KK87bUSPF5icewwD71+sbEOT6OcebOX0XZxK6+47U8lNcIoXjUwD70AG7yz9dKpbeJ6IpTZuwBMHYnjvoZOAUg860bc9qfSYtVLr1EeelNV3y2CcgXx5uZmTJgwAVUeUYmc4MlQ5gSoQw45BHv36V3DrQvH6tWrMWnSJMBNBXPXdeE4DntpRRARDBgwADvtsjOAaDfm8+fPx/T3p/Gzb4NgG+FCMXz4cLRr167WmxVJDOglUFV8/vnnOPXUU5HgMZuXi9zDz3/84x/xgx9eVf2NCpGqYub0GTj1lG8CABIicNWFI2zQi6Feeb380ssYuPPRkR/ZeOpfT+Lqq6+Gqy4EwmuaBYgIWryysj+vXr0aXbruUOMtiybmoZfA77WzvS7IQfq1RAfxmrhh64LdL1UXKkCSwbwoogqBRLpXHmRPXhMAG4giqLoQASAKBwpVBa8Cl4556EShYd0mw2VQohqIU2eJiIioYTEPvUzVzjOMGsebxeyzxSUAxG39BxHlIvvZMetHfmwfGpsT1+JhHjoRERGVinnoZWL5FSHbSaoC0PicT+baE9aPxsbPv5CYdtF5P3QiIiIqFQM6ERFRDDAPnSg0rNtkxHayF9U15qEThYZ1mwzmoVMtcMidiIgoBpiHXibmmebHPHTWj3zYPjS22F6aYB46ERERlYp56GVi+RWBeejUoPj5FxLTLjrz0ImIiKhUDOhEREQxwDx0otCwbpMR28leVNeYh04UGtZtMpiHTrXAIXciIqIYYB56mZhnmh/z0Fk/8mH70Nhie2mCeehERERUKuahl4nlVwTmoVOD4udfSEy76MxDJyIiolIxoBMREcUA89CJQsO6TUZsJ3tRXWMeOlFoWLfJYB461QKH3ImIiGKAeehlYp5pfsxDZ/3Ih+1DY4vtpQnmoRMREVGpmIdeJpZfEZiHTg2Kn38hMe2iMw+diIiISsWATkREFAPMQycKDes2GbGd7EV1jXnoRKFh3SaDeehUCxxyJyIiigHmoZeJeab5MQ+d9SMftg+NLbaXJpiHTkRERKViHnqZWH5FYB46NSh+/oXEtIvOPHQiIiIqFQM6ERFRDDAPnSg0rNtkxHayF9U15qEThYZ1mwzmoVMtcMidiIgoBpiHXibmmebHPHTWj3zYPjS22F6aYB46ERERlYp56GVi+RWBeejUoPj5FxLTLjrz0ImIiKhUDOhEREQxwDx0qjgn8AUACkVCJFZnky4AEQcKM8zqIJWuSfGmqv53Ea99U+Fwe5EcNV+uFxs4j7B0TdV4k2AeuqOZ056jIe1gReogZqOdn0Ih3ued+regRd3YlJ0kzKlJ0qvbLhSOOIBqbPaxUvw64aS3CZnHW72y22m/u27qE+dnXwT7EWuqjYAjkfn8601VAnocZAbzLl26YP5HC2q4RdGhqnAcxz8Jsrp161ajLQrXYYcdhgULP2q1f1SY450A7bbbbv5jmUGyntnts98v+t53ccqp3/R7meyk5yea+rxFTF3Ybrvt6v5zr1fMQy9CZsNiK99ee+3FildAFBrlcnXs2BF77bVXrTcj8oINO4BI1pvOnTtju+22q/VmRFKs2grmodevbJUsVpWvguJeRpm9cvbSS2d75VEW9/peKWxPw8E89BJFZUiw1uJeRpn7xnrRdsHyYrk1pth97sxDjxY22sXJNpEwToL7ZP/NetE2cSmvONbvamHZhYMBvYBcFS0ujVA1xbLMMuZWUNtFvTHniVz5spZdtKtFTTAPvQAepJQPa0f5on6MRX376xaLtc14P3QiIqIY4JA7ERFRDDAPnYiIKEzMQyciIqJSMQ+diIgoTMxDJyIiolIxoBMREcVAzoCuIaaXOd5rOQVeMtuqW0RERFGhqlW7qbuL9Nv05gzoElpWvyJp3zzwkuvXr2/9nt4CDVxWlYiIokZVsWHDhpq9f8WH3BVAkwCqZpVMe96yatWq9OcFeuRxuOsSERE1FhHB6tWra/b+TZ2264SNGz9Pe1AEcN20ZapL5ijgauo1EzAr+s2ZMyfjPdNv4sEeOhERRYoCM2fO9H+sWh66Ap07bwtnl112af0725sOYVtsXBZJ/VuhWLlyJT6YPcd7P834GwZzIiKKBhvD5syeXdUeuqNep1mAnXbdBc4uO+4CRyXtS9Ss8JaAtPpdW79UASfHycG//vWvnL1xDrkTEVG982OYmphmiaDs+Fnoy4x3C6CCnXbcBU7Pnj1bzWgPb0Jclp0H4Ii5dH///fdDVf3gnXkdnYiIqJ7ZOV/qunjggQf8x92qjbabN+rZsyec3r17Zw3gYaatBXdM4J3RQDFv3jyMHz/eLxAGcSIiihoRwfjx4zFv3jwo1J8rVpX39t6pT58+cPY74AAkA8FboXBFYUJuGEFdIMgcIjCPOgCuu+ZabFy/gTPbiYio5toSh+wzN27ciOuuuw6AmfhdvVCm/lYccMABcA48+CB/CBzQtLOK1OOVs3TpUlx66aUA2jbMzuBPRERhy4xD+WKNfealF1+CJUuWVH3p1eCWHXjggXAOOuggdOzYsdUvq9VjdgCMHTsWN/72d61+l+3ausXheSIiqiR7KThfLLzxt7/D2LFjzfMDUdStQohSb22XTp064YCDDoTjOA6OOOIIqJiReLsRrrreRmlFv+AN7v/0pz/FzTfelNrQwDX14ApyRERElZArhTpXUL/pdzfipz/9qXmON8KtSKV9Vz5+msvXhx9+OJqamuCICAYPHuwHcH9HQruGXpgjAERx3XXX4dyzz8GGDRuy9sAZ2ImIqFJyjfxmTtr+/PPPcc5ZZ+MnP/kJHJhg7nhrrQhSi6lVgwtgyJAhALylX4cOHZo2092k1GnaZLbK5dF5C9l4MfqRRx7BgfsfgPFjx8FtSSITZ8MTEVGlZHYYgzFHky4eHTce+++7H8aNG+fdeMzrmWtqMpzXR618/PRi6NChQ837qqq6roue3Xtg2SfL/KGCRJUm3dsTB/vdzrgXCPr27YsLLroQp556KvbZZ5+qbA8REVFwwZj5H36Ixx9/HA888IBJTVOFQtEkXm8856tUNo66AHbffXcsXrwYTlPCBHQAuOrKH+C222/1n2h7z5WmInDVNTPq1W2VE28vBOy6667Yb7/9sMsuu6BDhw4AODGOiIjKF5z8JiJwXRdbt27FihUrMGfOHHzy6Sd+qrV63U/A3BrczjszHWHvGrr/ypUP6FdeeSX+9Oc/AwKI67oqInjn7Sk44sjDs9yznEGTiIioVuwItpvld2+99RYOPfwwAEj10KFA//4HY+a06RlJ8QzoREREtSIiaMkygn3wwQdj6nvv+WE6lQeviou/fynsNDTOIyciIqod1/tqURdN4iAh4qXHKRwA37v4+2l9blEDIoLNn29Cz5498dna1RDXW1SOHXQiIqKaE28CnitAt25dsWjxEnTq1Mn/vQOkJpd13LYTrrzySriu+QOHwZyIiKimbGq3I6nF36644oq0YA4ErqHbXvratWvxpT77YM2aNV7XnlGdiIio2lzAS49z/GywpCq6du2K+fPno0vXHdKe7wDpifNdunTBtddeG5iYT0RERNUmYu5W6noT4pLejPWf/OQnfjAPLoSTmuUe0Lz1CxxwwAH4aP6H4Cx3IiKi6ktC0xZ5S0KxT599MGPWTGyzzTatnp/1bm/t2m+DW265Ba631Lz9z18UHqnZd0RERBS+BIDgPc8FgltuuSVrMAdyBHQAGDp8GEaMGGEuwDumn+7YNdftwuvC5DYiIqJSKcwlb5HWN0Szi6EqTAf6jDPOwNDhw3K+VtYhd2vVqlXof0g/LFu2zF/yzvEuzkMcKNyqLRFLREQUNyKpa+SteSFeHOy6666YPn06uu20Y+7XCgb0tLvKeP/+zwv/xoknnoikm/TH8u1ZBGM5ERFR6ewN0fw7tUnqMZOqZma2P/fcczj2+OPS1pzP5KS/sKT9W1Vx7HHHYdSoUem3V/V+4m3JiYiISucGJqM5Tvpj6s1sv/7663HcCcfnDeZAjiH3zD9wXRffPPkUPPX0U2l3nIEDiMtuOhERUTk0Y90Xe1e34cOH419PPVnU3UXTln7NF/k3btyIwUcPwtSpU72L+HYZOgZ0IiKickjgVuK2n31Q/3547bXX0KlTp+IDOtC6V55JVbHi0+UYOHAg5s+fD4iae7/yQjoREVEobE+9d+/eePn117D77rsX/bd5Z7lns2TJEgw48mtYunQpHAAiCtXU+rJmi8wUfOFFdiIiIn/dFnvJ2t7fPPizfd6ee+6JN96cjO7du7fpPXLmoefSvXt3TJ48GX369DGLy2SL2aImtY03YSUiogZlc8wzmZugqh+AHTH/cgH07t0bkye3PZgDJQR0VcWePbrj1VdfRb9+/aAQs6KcCpzAVwICzpcjIqJGllT1e+cJb/EYu0a7nfpmn9OvXz+8/vrr2LNH24M5UMKQO5C63r5x40acOeIMPD3haX/2O+wmMpgTERH57C1QVc34tb23OQAMH3YSxj/2KDp27FjUBLhs2txDB1L56p07d8aTTz6Jn9/wcwDerd5K3BAiIqK4sYvEAF4AzwjmIsAN1/8c/3rqybKCOVBkDz3fDHj7uxf//R+cd955WLpsqZl27w0ycGlYIiJqRHaoXQN3TQs+tsfue2DMmDEYcuwxaau0AigpsBfsoRdKZ7P568ccdyymvv8ezjn7HG9CHBERUWMTKJrE8S5Fp27AcvZZZ+P96dNwzHHHtlqltdReeknX0PNRVTz/7HO44srLMX/+AvbQiYiIYHrnffr0wa233ooTTzzRXFAPUegB3friiy9w22234cbf/g6rV69Oy7UTUSS95zmafo0hyyZWYvOIiIjyKjjWnOMW4urFNUcFSe8upd26dcO1P7kOI0eORPv27UPfVrM5FQro1vq16/DnP/8Zt912G9asWZN2LSFXnrqdMGBu686ATkRE1SdejEq7OZl3mVm96BSMV8FZ6+otjb7jjjti5MiRuOqqq7D9Dl0qu72VDujWpk2bMGbMGNxz192YNm0axOutJ7114QHTW7cUZjQiifTbyvm/1/SfiYiIwuQEZqRnlx7oXXWh3qIx/Q7ph4svvhjnnXceOnTqWIWtDTmg55pAl/n4O29PwWOPPYaxY8fik0+XpT3XCQRvV9MLMn/BEhERVV62UWSFYvfddseZZ56J008/HYcedlhawCo0wTwMFeuhF3OzFwB4792pmDhxIl5++WW89dZb+Pzzz83v7czAPDPm8197JyIiKl0S2UeCbezZtlNnHH744RgyZAiGDh+G/v37F4x7he5sWo6q9NCL/X2yuQUzZ878/+3dMWuEMACG4W9w642Co4sgbRf//89wcnBwFmfX69orpRxij7vwPHsgZHlJAknGccw0TZnnOcuyZNu2rOuafd9vFgQA/ss111zeLmmaJnVdp23bdF2Xvu8zDEPePz9SVdXtmDti/fRB/z7Bsyb7iCMKADjqt07de/18ttN36MmxF24A4JX8DPRfcX/pO3QA4HEOfc4CADwXQQeAAgg6ABRA0AGgAIIOAAUQdAAogKADQAEEHQAKIOgAUABBB4ACCDoAFOALH4nLE+sgvj0AAAAASUVORK5CYII=;" vertex="1" parent="1">
          <mxGeometry x="616" y="182.5" width="25" height="25" as="geometry" />
        </mxCell>
        <mxCell id="efof93Qg9sC8hvgrrkQ7-20" value="" style="group" vertex="1" connectable="0" parent="1">
          <mxGeometry x="540" y="220" width="240" height="70" as="geometry" />
        </mxCell>
        <mxCell id="efof93Qg9sC8hvgrrkQ7-13" value="" style="rounded=1;whiteSpace=wrap;html=1;" vertex="1" parent="efof93Qg9sC8hvgrrkQ7-20">
          <mxGeometry width="240" height="70" as="geometry" />
        </mxCell>
        <mxCell id="efof93Qg9sC8hvgrrkQ7-14" value="実験レポート&amp;nbsp; &amp;nbsp; &amp;nbsp; &amp;nbsp; &amp;nbsp; &amp;nbsp; &amp;nbsp; &amp;nbsp; &amp;nbsp; &amp;nbsp; &amp;nbsp; &amp;nbsp; 優先度:10&lt;br&gt;&amp;nbsp; &amp;nbsp;重要度:&lt;br&gt;&amp;nbsp; &amp;nbsp; &amp;nbsp; &amp;nbsp;軽さ:&lt;br&gt;締め切り:2023-10-02 11:59 PM&lt;div style=&quot;border-color: var(--border-color);&quot;&gt;&lt;br style=&quot;border-color: var(--border-color);&quot;&gt;&lt;/div&gt;" style="text;html=1;strokeColor=none;fillColor=none;align=left;verticalAlign=middle;whiteSpace=wrap;rounded=0;" vertex="1" parent="efof93Qg9sC8hvgrrkQ7-20">
          <mxGeometry x="10" y="10" width="220" height="60" as="geometry" />
        </mxCell>
        <mxCell id="efof93Qg9sC8hvgrrkQ7-16" value="" style="shape=image;verticalLabelPosition=bottom;labelBackgroundColor=default;verticalAlign=top;aspect=fixed;imageAspect=0;image=data:image/png,iVBORw0KGgoAAAANSUhEUgAAAx0AAABfCAYAAACN4appAAAAAXNSR0IArs4c6QAAAARnQU1BAACxjwv8YQUAAAAJcEhZcwAAFiUAABYlAUlSJPAAABy8SURBVHhe7Z1pcxvJkYaLxMn7EqWRZiSNZzze3QnP7obX//9HbGyEHWt7bM+hkzp44Qa5+VZ3QqVeiAQokGiQzyMls7pxdHV/qMoXWcfSuREAAAAAAACuieXcAwAAAAAAXAuIDgAAAAAAuFYQHQAAAAAAcK0gOgAAAAAA4FphIjkAwB3nqt3A0tJSXgIAALgYRAcAwC0nbeYnKYtxXUNRZPjxp847iBMAAEB0AADcUsaJitS7pcdOWnaKIkP+U2Vn3DkAALh7IDoAAG4hRQHhx16+yJy0LIrC4lOWvu7l1AMAwN0D0QEAcEsYJxjG+YvM3/MpimJieXn5/52bxgMAwN0A0QEAsOCkYqFoF+GvF/1lXEVA6D2ppecAAOD2g+gAAFhw1IyndnZ2NvKiGOg7sw74dU0nrY/wOqSZkdQAAOB2g+gAAFhwUpHh3k0oqL8o2E/LTvFYFLsLP5Z382Ovi5d1/dT0/WmdAADgdoPoAABYMLzZdp8G+G5+TqTBfdFEWhZpeRz+val3S4+9DvL6zrQexTqJogcAgNsDogMAYEHw5lreg/n0nJOWRRrcu/n51Iu0fBGfum56PrUi6bVTkxhx/D0AALD4IDoAABaAtKmW2EjN8SA9DeKL55y0LIrHk1DsPtJjL8uPsxRdW2LDzetylToBAEA5QXQAACwA3lTLD4fDKDbkZQrO3dLgPQ3gxU0H8Wn34vV1oZTej6hUKiPzexE3XWcAALgeEB0AACVHzbTMg3Uv+7EH6TIXGi46xDwDd9XPvdc5vQ+nWHd5LwMAwOKD6AAAKCnePMunAbufc4qBetHKQCo0xpnwusrrftzKcg8AAHB1EB0AACUkbZoVsKdDqlxMuI0THMJ9GfD7cT9OhPg51TsdbiXKdC8AADA95K0BAErKuKDcTSgQTzMCbjpftiDd6+R1lJhI6+v4/aX3LdwDAMBiQqYDAKBkeLAt8wA89R6sp0G7B+5pAF9m0nv0+3IT6b2l97go9wcAAB+D6AAAKBlpEK7hVH7OGReQi0UKyP1+5P1+U5/ek9+nGwAALB603gAAJcQDcDeRBt9eToPzRUL1dfN7Sk3oGfhcFpUBAGBxIdMBAFAi1CR7sO0mikF5GrRPS2z085Y/zzfYNWNhxKc6hvRqfmmrhRc+en0aXFjIUrElSyeV+70DAMBigegAACgBHnCLNOCW6EizAQq8Pei+iujQJexKubdrWeFM5ZH39+ldHyNxocvpivLL8foffDT7t6w3TInfv5tnOGTpvcuLq9w7AADMD0QHAEAJUFOsANuDbi/LK7hOg24Ptq8mOD4WGkMrRIvXstdyQaLXXXXkLoqJWBfzEhoVi/8rsW5Z+SMRkn9mUlQX97Feiejw+/d7LxoAAJQfRAcAQAnwAFtNsrzwAFyBtQuOVHRMg7f0LjgkMiQ2BrKh/Jkdf3j9zP6MOgcrqJwJDBccS6Eqq2Rexy489L4rVHGE7t9Fh2d63Pz+UwECAADlB9EBAFAC0l/2i82yiw23adBXSUjI61v7piz6JjJ6ue/0z0JnMIy+NzjLRIjZ0F6T+PCa6PMSGLUoNJZD3cqN2nJoVJdDM/c6V9Nr1Q/Cw/5GPw26//R5pLjgcEN0AAAsBogOAIA5o2bYf9V30eG/4rt5gD2p6PCWXYIjG0KVZTckLlr9YWj3Mn/cGZgNw5H5Vm8YhUdPosS8Pqev0XfJJCwkNCQyZBuNSlhvVMNGU74SVutmNfnlKD6U/bD/0U+DP4/Uuwk9gzTzAwAA5QfRAQAwR7wJluBwEx5Qy4oC5DK8VZdkkNhQdkNDqPomIk66mdA4yv2bk354cyrrhaP2ILSV+TBrmyBRxkPfFTMeZismJtZMWKyZwJDtrtbMqmFnrRZ2zG82q2HLbHOlGpomUJQR8SFY08gOFxippYLMBUdxjgsAAJQXRAcAwBzxJngwGIxEhwfW1Wo1eg+qJw2u9ZUWqkcv4RCzF4Pz0DXxcWjC4m2rH961zJvYeHHUNeuFF4fdKD5Oe8NwaoJEJrEiwZGJjvOwboJCWY0oLkxYPNioh/ub9ej31+thz8SHbNdM4qTuQ67MTysL0q7Jn4uekYSHnok/H4kOgfAAACg3iA4AgDnhza+8/5IvL/yXfBcd0wiOOKTKzL4uZiw0fCpmOMyU0Tg46YcD86MsR+4lSDoaelXIdGTf+XGmQ8OpJC72lO1Yq4Y9Ex337Pie+f31WtheqUWBsqHMh5lGWMX7sDpOqg/8+ei5uChLRYeeUZrpQHgAAJQXRAcAwBxIBYdMwbSb8KDaRcekSBz4alQSDUcmON6cmNAwUSGx8eq4F+2l2Ws7f5LP6ZAgaWtOxzDLiijLIeGiasaa2h9lLhrVpdHcjs18PoeExfZKNewr8yHRIR+zH7XoZRpipZWtMotVnRjPdKSiwwWHTERBg+gAACgtiA4AgDngYqNoRdEhmzSYto/HLMdodSoTD8pg/HrYDb++l3XC86NeeG7HMokPDb3SsCt5fU5L5ZobTSLXn7wUV6TKlsbN5mlo3oavXKVshg+1ksj4arsRnuyuhCc7zfB4txnfoyV1/TumQc/EBYdMzyN9NqkBAEA5QXQAAMyBVGik5hSD6svwj0osdCQkNCHc/EsTGT++aYe/H5iZl/h4dtiJXqJDn7Mrjz4/DVF8RBES4spVEhwPNhtRdHy91wzf3V8L3+2vml8NqyZOavmSuhIs0+BiIxUd40zPCwAAygktNADAnBgnNoQC6Glw4aAsh4ZUafUpzeF43x7EuRsSF5owLqGhIVVH7WxpXP/clbGPZkvyaoWs89DqZRPVNW8kDuGKk9SzrIqGd2kIlzIwV6EoMJz02RWfIwAAlAdEBwDAHPAA2UWHbFxgnQbYnyITHCEOi9KyuBIdx91BeN/KJoi/NgGgYVUaXqWy9uToSnS44LhirP7hutmQLu37IdHhc0c0b8RFh+oRRcdg+oulzyJ9HumzAwCAcoPoAACYE+OCZg+siwH2RejjspjpsOBfO4x7pkMrU8VMhwX+z8xipsNFR/65D1efDr+m5oFo4rk2F9R3S2BkmQ6Jjl54ZsLjwK6rfUE+J9Ph3svp80ufIQAAlI+ZzOnwTkdjib3TU4pfpl/e1KPlDgDgTuLyYclawlg+t+D7fGgN6NAa4rNQq1VDrWpmvpqvWJUG2BcR29q8zdX+GnHfjTi0qRd+PGiHP784DX9+mZkml+tf/n9maG64z9fQ3A2tYvV0rxknkz/dbYav91bC11bWXI+vdprxM5ffWYa6Kc3lcK9J5VpC1/ft8PkvmnwPAAAf/0Ajn84T9Plv6XtugpmIjq7Wde8NQsdMXks0uindPjxfiin4aBN3MwAAt4dlC/ErS+cxOK9Yub40CPXQj9ZYPgtb62thayOz1WZj1Bl45/Ap1IDH3caH2RK5Gt7087tO+OltJ/p/vOlE4aFJ5DK9L35ulorDUL+VTSrPJpfvrNbCo61GeJibJpP/Lrdv7q3E99sdRn8ZPoFcJqFxeno6sl6vN+pMvUMFALjrpO2ifpBpNBqhXq9HX6vVRudvst2cieg46fTD4Wk3HLbMzL841i63+qWtH960BkFDeAdnS+Yz8QEAcNeQ4Kia1UxgyK8v98L6ktlyN2zWhuHhvd3wcD8zCQ/vLFx8fAq14HF5XDPNl3jX6oe/vm6Hvx20wt/MS3xoydxn7zOvjMissxxCVfQ9OLQsrvbv0EaB99a1S3k9fP9wLfz+0Xr4wexfHqzl759MeKT7dPT7/fD27duRSXj4s5IBAEAI1Wo1igp5iYz19fWwtrYWbWVlJZ731xZKdLw76YbXh63wyuz1YTv8qF/Wcnt22As9ExzRTHQo6wEAcNeoLp2FhomNuokOZTa2K52wa7ZXbYd7jWH49vHD8M3jL8JvHz8K+7tbHwXSl4kOzc9w09yJP704za0VJ4/HHcjtvFaQiqLjmlA1VVP51VolbK5ku5HL/uOrjfBfTzbCHx5vhh++XB8JFPkLbi+SDqfqdrvh+fPn0Z49exYODw9Hz+iyZwUAcFeQmHBrNpthe3t7ZBIgynq4qe28CWYiOl6+b4d/HhyHnw5Oov3jbTf83Uz++VE/9HPBIR/neAAA3DGU3ZDgqJv4qC+fh50oOtpht9oJ9010fP/No/D9b76M9mh/5yPBcZno0MRxrVgl0+pU//3sJPxPbpo8/r41iJPKD9v9a802x1rmVdXGgeuNSlhrVKP/TxMdf3y6Gf74ZDMKkHSPDwmPi0hFh4ZT/fzzz+GXX36J/t27dyPBgegAAMiQ2PBMhoZUpaJjY2MjrK6uRlPW46bmw81E2mgDqrfWqf36vhf+8roTfjZ/cDoIJ73zmOHom+DIM/oAAHcStX/K9PbPl0P3bDm0hpVwNKiGd/1aeGN2PKiFzlk1nC99PMZ2kiBawkOmdlbzOrR8rQTIaW8Y987QjuPKcFx3Gxy/P7+InOqjRUa8TrKemTIyGg4W6zRBpVxUqGMsjkGewe9mAAC3Dl90Q0NS9WNNu90OJycnMTt8dHQUWq1WPH+TbejMRMc7Ex2/vO+a6GhH0fH6dBiOc9GhOR3qbOkbAOCucmZtYBQd1iZKdJya6DgeuuioW7kWuufVcJaIjkkEhxMDfGtkNU9cG/+1JTq6Eh3DGOQr8L8J4lXsj9r7WJ9YJwkPExpWD9VNpsnvk4oOURQe0zwbAIC7hsSEZ4mLokO2uKLDOjdNGP/FxMb/vhojOvJhVTd3WwAA5ULtnxbTGGU6zpJMR68ejqLoqITzpcnmcqSoz1AeQ7piYAfKJmSZjmzvDE0wj3M5bqgR1mVUJ10yExwfshya9J5lOjJBMsmuHUXBcRVRBgBwl/BMh0SH5sJJZBwfH4f3799H0eGr/y2c6FB1YwrdKq7ORabOJHY8uQEAwIc2Ue28duzQMuIKvP14NCliWryhNR/3ThpZduwvz4X84qqF7lN10imVRy9OCYIDAOByXFTIy3z58fT8TTET0QEAAOXAuw959SXxOB6oMD+8Ht6/jTq6OdcLAABuBkQHAMCCo7jdLZIfxMD+Bn/FuhBVJbos25GVAQDgrjAT0aEk97KWP1zKlkCMyyBqvG3+GklwAICMUbtof5Ys7NZO5WqI/fgqobh/34h4Qv/zwrxRXWJ9vE6fX6ubHBIAALCo+FBUnwdXnDN4k0NVZyI6mrXlsLdaDV9t18Pv7q+Ex+b31ypho74U16OvmlXsnm7utgAAyoXav7gjuTYJXD4Lq8vDsFkdhJ1aP+zVe2Gz0g+NpUFYOs/G26Zjbi8ltq/6sceuUQmhUV2Om/NpV3DtkaE2unpDjbAuoT5Mph+f9CNUza5dl1m9GtWlWJ9axepkr03S4ek5+KRI2VTPBgDgDuKLb2ivDu3ToT05tD+H9unY2tqKO5NrY8DFEx3WkexE0dEI3+2PER2x8zmPnRAAwF1k2dpAtYM1axMlOtYqw7BRMdFR7YW9Ws/KEh3DsHz+IaieNLBW02rxe9xkT4G8gvvV+nJYb1bDmomOhkSH3nDNxCvYHwmgWB/rYSR2anYgkSExpLrIS4Rog8BJq5UKj1R0qMO8yU4TAGARULvookPiQpsAaidyCQ6ZRMjCio5dEx1fmtj4br8ZRce9tWpYz0VHzTpadSx0CwBwV1H7F0WHZzpMdIwyHbnoaMZMx8dB9STCQ32GLAb51tgqm7BSr4SNuCN4JbbRCv7171pRPfJrxA7P6pJlOkxkWJ1kEhyqj87p9Un6u1RwuBWfC8IDAOADnunQjuRF0bG5uTkX0bFkDfdkP6VdwLuTbnh92AqvzF4ftsOPbzoje3bYi3t1RMs3xwIAuGtUJTZMdNRNcEh0bFc6YbfSDntm9xrD8O3jh+Ebs98+eRj2d7djh1EcezsOteDa98Lt4LQX/vTiNPz5RSv6X99b+3zSCwfR+ha8ayr37FENVU9VVabhXVsr1WibzWr49y/Xwx8eb4Y/PNkIv3+0HrMy+jFKXu+/CIkMrTXv680/f/58ZFpvXtf1ZwUAACGKDbdmsxmHVblJfEhwuN1U2zkT0XHS6YfD0244bJmZf3HcDy+Oemb9uGmgdiTXBoHaGEvrswMA3DWU5YhzOkxwyK8v9cL6ctd8N2zWhuHh/m74wuzR/l7Y2lj7SHBcJjq04V40a2zftvrhr69a4a+v22at8PO7Tnh+aIG62mTz2kdJn/FVpGaFqqg5HFpURGJiw4TG3lptZN8/XAs/PNoIP5j4+NcHa/H9ep8yIxfcXiTNcPT7/fD27duRacMrRAcAwMdoWJUPr5LwkNDQPA6Zsh46769d1MfMkpmIjm5/GNq9QeiYyR91hiNr2WvKbmQbVJnlqXcAgLuEVqmS8FCgXbFyPfRDzUy+aUJEQmNr3cz86kozdgIeTF+EGvC+CQ7t8C1/2B6Ef7zphH++7Zhvh5/M/2TCQ14CRO/J2uPZiQ616uqzfDiV/PZqLXyxUQ8PNjP73f218G9frEXB8e3+Snz/JIJDaGiVm7IdEhraTdd31J1UoAEA3BW8XZRJfGgyubIa8hIaft7bzptgJqIj7nprvdjQTOWBdX4fdia3N5jlDgDgTuJNupbFjeXzoTWeuYWzUM9/carVqqFqHYEH0Jd1BmpXszbXAnJrc487wzikKjMTHiY2fnzdCn87aIcfzXqDM2uX1WZnbffn4rWTmKpWNFcjW61K2Y0vt5tmjfCV+W9MaPz23moUHE/3VuJnLr6zD6ib8nkuPrdD4kNex2nnCgAA1r4m/Ye8t5Fe9vP+nptgJqIDAACmw3+5d/PG3zuF1C4j/sCTW6s3DC+Pe+HVcd+sF/75th3+8qoVTUOu2v1hzIpIfKRDrfL/U6GqWQ2j1z5NjVo2UVwrVD3YqIenuyvhyW5z5LXC4eOdZni41ci/YTLUTaXCw885aWc6yfMCAICbh5+FAADmRCosPFj2ANttEpRl0IRsDWuqWdC/Vq+E7ZVquLdeC/fX62Hf7L6JgH073lmtxb07VvJldCvWC0wymTtFb9X7s2tmK2ZpZaq4YlazGnZWNI8jG1alTIcEh0SIJpVLlFwFfxbF54LIAABYDBAdAABzwIPlVHAID6rTIPsy7Bti8C/RUbeCRIcCfBcbmeAwM689lbSUbrNWicvo6jP2P8tY5N93EfE9qrP9c6GTiQ7fkLAa53Pcs+s92GiER1vN8GTn80RH+izS5+HPLn1+AABQThAdAABzwgNmHxrkTCI0UvRRCYAY/JuQWDVRMcp0uOjYkBDIMx0mDOKu4HbdmO3QF+SXnyZ8l1jRZ+OO4xId+d4gEja6loTGoy0NqWrErEcUHXbdq+CCoyg8UhAfAADlhTkdAABzIA2gU9O8BeGrihQFyWVocni2klW2mtXr436c1+ErWGmex6uTfjgwf3DaD524+uBZnOuhZXft46O5HSqnSGREkWReIkfCJZoJDmU4smxKNqTrq51m+M3eSvh6L/MSJZ6N0WenQc/EJ43L/Jmk8zjcAACgnCA6AADmgDe9qdhwEy465KcJpvW16cRyLaH76kQTy3vhtYmNl0fduI/SSzOdO+pomXMze5+Eh30kig75ourQHhzZXhzZPI71RjXOD5Epu6EJ4g83G+EL819oqdw8yyJTNkRiQ/ci0TINLjjGrVYlE4gOAIByg+gAAJgTqfBIA2vhgsNFx6QBdaYVTMRYQb7dP4vL6B53B9G/MNHx7H03PD/shedWfqOsx2kvvDntx/dI88Rl0OPns+904lCsXHBowrqGcG2b2NheqcUMh5bG1epUWqVKS+ZKlGw0JUqq8XPW5dh96O9k+PPx55KKjnHPBtEBAFBeEB0AAHPEm2Dfd0KmcwqofUfZzwmqle0YDbeygP2FiQ3t3+F7eWh5XQkR+cN2396ffUb+vLCIbhQblaU4AV0TwrPdxuthb70WMxtP8+Vxn5rw2DBBkomUbK7JtKRdkz8XFx0uOGRppgMAAMoLogMAYI54E5wG1sKHDskUUKc2DXHD1lxEaBPBt61+eHPSCwcn5k/78fidmfxJZ2jC5MN8EGU7Rli5Vs1Wx2qYl+jYNGGx1axGv2sC5EGyWpYmlSu74StcTYOeSdEkNtxS0XGVZwIAADcPogMAYM54UO2/5Os4FRkyFx/+y/6kqIWPO5DHa4Rw2huGk65ZZ5B5Oz6V72pOx1noDtyyOSEfOI+CI5s4riV3l8NKPVuxSraulaualbApEWKmiePSGlblqSeO+/NIvcxf0zPwLMe0zwMAAOYDogMAoAS44PAgO8WD66sE2fGb7I+F7fa92SRzz2T4sCvtTq5jiQ0JD7dMdGSfE1Fo1LKNBeWV+aiZENGQq7hsbl6WVzVNLunPxHM4HN1/+jxSXHi56RgAAMoPogMAoASkgsMDbZVlCqzTX/ZnGWgrA6JeIA7DMgGSCY5haPUy0ZF1EJlXhmM1ZjiyTIcyGMpmZKtSxTfOBN2/iw553a+b3797GQAAlB9EBwBACXCx4UIjFSAeZLvw8EB7FgG3egBJCnmJDGU7egPzmtMxEh0ZymJoLocyGRo+pcvHIVT695lVSbuioujQPY8TG24AAFB+EB0AACVATbE3xwq23fyX/qLo8GD7c4PueEX7I3mh0VTDYTbxXKbsR4qvROWrUunS9ld/9P+zKN5/UXT4vcuL9BkAAED5QXQAAJQID74VbLuJcaJjloF37Ajsj8SHeoVo8ZUP6FK6WrxuPJEdzwK/b1kquOT93rWEsN8/AAAsFogOAICSoWa5KDoUaHvAfV3CYx54F+RiY5x30eEGAACLB6IDAKBkeMAtc9GR4sIjFR9+flFIu570fmVF/F7dAABg8aD1BgAoIS4sfEiVUHDuQ47cdC4N4BcJr3t6P+l9fUpcAQDA4oHoAAAoGR5gy1x0qFwM0D1oT23RSOuue3JRJdL7d+EFAACLCcOrAABKSNo0p8G4fCpKLrOy4MIiLbsVBZTq7fM3XHCJMt0PAABMB6IDAKCkePMsr8DcTcfpawrG0yFIXk4D9nnj9S7eg5vX3U11d3PKci8AADA9iA4AgJLjgXkauKdzO4rBejokyc/PC+9ivK5e7/R+RJrZSOs97/oDAMBsYJAsAEDJ8cDbA3MPwj2IH2dpQC/v5ZsivaaXVadxdU7r6qKjDIIJAABmB5kOAIAFIG2qi0F7EQ/Wi6ZAvvi6H6d+Erw+43zRLhNAuq4LKs92+HkAALgdIDoAABYEb649iPfMQXosn5oC92L2oOjdhPtPoe90itcaVy8/J/w64+pRPOfvBwCA2wGiAwBgwVCznVox85GaAvdiFkHm5TTQnyTY9y4jvX5RZOi67r3s15RVq9WPjqe5PgAALCaIDgCABWcwGERTgO9lN+HBfRrkp+YB/6TBvncbLjpkqdgoCg55XVdio1arRe91cQECAAC3G0QHAMCCUwzwUxMSE0Vx4eakXYGXi91D+n5RPNb7x5nq5SIjtVT4AADA7QbRAQCw4Cio9+Be3gWIH4/Dz6fvc+82jlSwyFw0+LG/x/FyKjD8/cXPAQDA7QXRAQCw4KTNuAuGVEAURUXqfViWW/paERcILhYuylykln5G5t+VegAAuN0gOgAAbhlq1r1pT0VEan7ORYd88TX/DicVDiqPEx2fEh+IDACAuw2iAwDgluHNuvw4c0EhS4dipefdUlxwuI0TFzJ/LX2fo2MAALh7IDoAAG4hadOeCohx5VRspOeLuGBIfSou0vPjzgEAwN0F0QEAcEe4rLmftju4SEggMgAAIAXRAQAAAAAA1wqLowMAAAAAwLWC6AAAAAAAgGskhP8DSVIAIZQWWAIAAAAASUVORK5CYII=;" vertex="1" parent="efof93Qg9sC8hvgrrkQ7-20">
          <mxGeometry x="62.210000000000036" y="16" width="167.79" height="20" as="geometry" />
        </mxCell>
        <mxCell id="efof93Qg9sC8hvgrrkQ7-17" value="" style="shape=image;verticalLabelPosition=bottom;labelBackgroundColor=default;verticalAlign=top;aspect=fixed;imageAspect=0;image=data:image/png,iVBORw0KGgoAAAANSUhEUgAAAx0AAABfCAYAAACN4appAAAAAXNSR0IArs4c6QAAAARnQU1BAACxjwv8YQUAAAAJcEhZcwAAFiUAABYlAUlSJPAAABy8SURBVHhe7Z1pcxvJkYaLxMn7EqWRZiSNZzze3QnP7obX//9HbGyEHWt7bM+hkzp44Qa5+VZ3QqVeiAQokGiQzyMls7pxdHV/qMoXWcfSuREAAAAAAACuieXcAwAAAAAAXAuIDgAAAAAAuFYQHQAAAAAAcK0gOgAAAAAA4FphIjkAwB3nqt3A0tJSXgIAALgYRAcAwC0nbeYnKYtxXUNRZPjxp847iBMAAEB0AADcUsaJitS7pcdOWnaKIkP+U2Vn3DkAALh7IDoAAG4hRQHhx16+yJy0LIrC4lOWvu7l1AMAwN0D0QEAcEsYJxjG+YvM3/MpimJieXn5/52bxgMAwN0A0QEAsOCkYqFoF+GvF/1lXEVA6D2ppecAAOD2g+gAAFhw1IyndnZ2NvKiGOg7sw74dU0nrY/wOqSZkdQAAOB2g+gAAFhwUpHh3k0oqL8o2E/LTvFYFLsLP5Z382Ovi5d1/dT0/WmdAADgdoPoAABYMLzZdp8G+G5+TqTBfdFEWhZpeRz+val3S4+9DvL6zrQexTqJogcAgNsDogMAYEHw5lreg/n0nJOWRRrcu/n51Iu0fBGfum56PrUi6bVTkxhx/D0AALD4IDoAABaAtKmW2EjN8SA9DeKL55y0LIrHk1DsPtJjL8uPsxRdW2LDzetylToBAEA5QXQAACwA3lTLD4fDKDbkZQrO3dLgPQ3gxU0H8Wn34vV1oZTej6hUKiPzexE3XWcAALgeEB0AACVHzbTMg3Uv+7EH6TIXGi46xDwDd9XPvdc5vQ+nWHd5LwMAwOKD6AAAKCnePMunAbufc4qBetHKQCo0xpnwusrrftzKcg8AAHB1EB0AACUkbZoVsKdDqlxMuI0THMJ9GfD7cT9OhPg51TsdbiXKdC8AADA95K0BAErKuKDcTSgQTzMCbjpftiDd6+R1lJhI6+v4/aX3LdwDAMBiQqYDAKBkeLAt8wA89R6sp0G7B+5pAF9m0nv0+3IT6b2l97go9wcAAB+D6AAAKBlpEK7hVH7OGReQi0UKyP1+5P1+U5/ek9+nGwAALB603gAAJcQDcDeRBt9eToPzRUL1dfN7Sk3oGfhcFpUBAGBxIdMBAFAi1CR7sO0mikF5GrRPS2z085Y/zzfYNWNhxKc6hvRqfmmrhRc+en0aXFjIUrElSyeV+70DAMBigegAACgBHnCLNOCW6EizAQq8Pei+iujQJexKubdrWeFM5ZH39+ldHyNxocvpivLL8foffDT7t6w3TInfv5tnOGTpvcuLq9w7AADMD0QHAEAJUFOsANuDbi/LK7hOg24Ptq8mOD4WGkMrRIvXstdyQaLXXXXkLoqJWBfzEhoVi/8rsW5Z+SMRkn9mUlQX97Feiejw+/d7LxoAAJQfRAcAQAnwAFtNsrzwAFyBtQuOVHRMg7f0LjgkMiQ2BrKh/Jkdf3j9zP6MOgcrqJwJDBccS6Eqq2Rexy489L4rVHGE7t9Fh2d63Pz+UwECAADlB9EBAFAC0l/2i82yiw23adBXSUjI61v7piz6JjJ6ue/0z0JnMIy+NzjLRIjZ0F6T+PCa6PMSGLUoNJZD3cqN2nJoVJdDM/c6V9Nr1Q/Cw/5GPw26//R5pLjgcEN0AAAsBogOAIA5o2bYf9V30eG/4rt5gD2p6PCWXYIjG0KVZTckLlr9YWj3Mn/cGZgNw5H5Vm8YhUdPosS8Pqev0XfJJCwkNCQyZBuNSlhvVMNGU74SVutmNfnlKD6U/bD/0U+DP4/Uuwk9gzTzAwAA5QfRAQAwR7wJluBwEx5Qy4oC5DK8VZdkkNhQdkNDqPomIk66mdA4yv2bk354cyrrhaP2ILSV+TBrmyBRxkPfFTMeZismJtZMWKyZwJDtrtbMqmFnrRZ2zG82q2HLbHOlGpomUJQR8SFY08gOFxippYLMBUdxjgsAAJQXRAcAwBzxJngwGIxEhwfW1Wo1eg+qJw2u9ZUWqkcv4RCzF4Pz0DXxcWjC4m2rH961zJvYeHHUNeuFF4fdKD5Oe8NwaoJEJrEiwZGJjvOwboJCWY0oLkxYPNioh/ub9ej31+thz8SHbNdM4qTuQ67MTysL0q7Jn4uekYSHnok/H4kOgfAAACg3iA4AgDnhza+8/5IvL/yXfBcd0wiOOKTKzL4uZiw0fCpmOMyU0Tg46YcD86MsR+4lSDoaelXIdGTf+XGmQ8OpJC72lO1Yq4Y9Ex337Pie+f31WtheqUWBsqHMh5lGWMX7sDpOqg/8+ei5uChLRYeeUZrpQHgAAJQXRAcAwBxIBYdMwbSb8KDaRcekSBz4alQSDUcmON6cmNAwUSGx8eq4F+2l2Ws7f5LP6ZAgaWtOxzDLiijLIeGiasaa2h9lLhrVpdHcjs18PoeExfZKNewr8yHRIR+zH7XoZRpipZWtMotVnRjPdKSiwwWHTERBg+gAACgtiA4AgDngYqNoRdEhmzSYto/HLMdodSoTD8pg/HrYDb++l3XC86NeeG7HMokPDb3SsCt5fU5L5ZobTSLXn7wUV6TKlsbN5mlo3oavXKVshg+1ksj4arsRnuyuhCc7zfB4txnfoyV1/TumQc/EBYdMzyN9NqkBAEA5QXQAAMyBVGik5hSD6svwj0osdCQkNCHc/EsTGT++aYe/H5iZl/h4dtiJXqJDn7Mrjz4/DVF8RBES4spVEhwPNhtRdHy91wzf3V8L3+2vml8NqyZOavmSuhIs0+BiIxUd40zPCwAAygktNADAnBgnNoQC6Glw4aAsh4ZUafUpzeF43x7EuRsSF5owLqGhIVVH7WxpXP/clbGPZkvyaoWs89DqZRPVNW8kDuGKk9SzrIqGd2kIlzIwV6EoMJz02RWfIwAAlAdEBwDAHPAA2UWHbFxgnQbYnyITHCEOi9KyuBIdx91BeN/KJoi/NgGgYVUaXqWy9uToSnS44LhirP7hutmQLu37IdHhc0c0b8RFh+oRRcdg+oulzyJ9HumzAwCAcoPoAACYE+OCZg+siwH2RejjspjpsOBfO4x7pkMrU8VMhwX+z8xipsNFR/65D1efDr+m5oFo4rk2F9R3S2BkmQ6Jjl54ZsLjwK6rfUE+J9Ph3svp80ufIQAAlI+ZzOnwTkdjib3TU4pfpl/e1KPlDgDgTuLyYclawlg+t+D7fGgN6NAa4rNQq1VDrWpmvpqvWJUG2BcR29q8zdX+GnHfjTi0qRd+PGiHP784DX9+mZkml+tf/n9maG64z9fQ3A2tYvV0rxknkz/dbYav91bC11bWXI+vdprxM5ffWYa6Kc3lcK9J5VpC1/ft8PkvmnwPAAAf/0Ajn84T9Plv6XtugpmIjq7Wde8NQsdMXks0uindPjxfiin4aBN3MwAAt4dlC/ErS+cxOK9Yub40CPXQj9ZYPgtb62thayOz1WZj1Bl45/Ap1IDH3caH2RK5Gt7087tO+OltJ/p/vOlE4aFJ5DK9L35ulorDUL+VTSrPJpfvrNbCo61GeJibJpP/Lrdv7q3E99sdRn8ZPoFcJqFxeno6sl6vN+pMvUMFALjrpO2ifpBpNBqhXq9HX6vVRudvst2cieg46fTD4Wk3HLbMzL841i63+qWtH960BkFDeAdnS+Yz8QEAcNeQ4Kia1UxgyK8v98L6ktlyN2zWhuHhvd3wcD8zCQ/vLFx8fAq14HF5XDPNl3jX6oe/vm6Hvx20wt/MS3xoydxn7zOvjMissxxCVfQ9OLQsrvbv0EaB99a1S3k9fP9wLfz+0Xr4wexfHqzl759MeKT7dPT7/fD27duRSXj4s5IBAEAI1Wo1igp5iYz19fWwtrYWbWVlJZ731xZKdLw76YbXh63wyuz1YTv8qF/Wcnt22As9ExzRTHQo6wEAcNeoLp2FhomNuokOZTa2K52wa7ZXbYd7jWH49vHD8M3jL8JvHz8K+7tbHwXSl4kOzc9w09yJP704za0VJ4/HHcjtvFaQiqLjmlA1VVP51VolbK5ku5HL/uOrjfBfTzbCHx5vhh++XB8JFPkLbi+SDqfqdrvh+fPn0Z49exYODw9Hz+iyZwUAcFeQmHBrNpthe3t7ZBIgynq4qe28CWYiOl6+b4d/HhyHnw5Oov3jbTf83Uz++VE/9HPBIR/neAAA3DGU3ZDgqJv4qC+fh50oOtpht9oJ9010fP/No/D9b76M9mh/5yPBcZno0MRxrVgl0+pU//3sJPxPbpo8/r41iJPKD9v9a802x1rmVdXGgeuNSlhrVKP/TxMdf3y6Gf74ZDMKkHSPDwmPi0hFh4ZT/fzzz+GXX36J/t27dyPBgegAAMiQ2PBMhoZUpaJjY2MjrK6uRlPW46bmw81E2mgDqrfWqf36vhf+8roTfjZ/cDoIJ73zmOHom+DIM/oAAHcStX/K9PbPl0P3bDm0hpVwNKiGd/1aeGN2PKiFzlk1nC99PMZ2kiBawkOmdlbzOrR8rQTIaW8Y987QjuPKcFx3Gxy/P7+InOqjRUa8TrKemTIyGg4W6zRBpVxUqGMsjkGewe9mAAC3Dl90Q0NS9WNNu90OJycnMTt8dHQUWq1WPH+TbejMRMc7Ex2/vO+a6GhH0fH6dBiOc9GhOR3qbOkbAOCucmZtYBQd1iZKdJya6DgeuuioW7kWuufVcJaIjkkEhxMDfGtkNU9cG/+1JTq6Eh3DGOQr8L8J4lXsj9r7WJ9YJwkPExpWD9VNpsnvk4oOURQe0zwbAIC7hsSEZ4mLokO2uKLDOjdNGP/FxMb/vhojOvJhVTd3WwAA5ULtnxbTGGU6zpJMR68ejqLoqITzpcnmcqSoz1AeQ7piYAfKJmSZjmzvDE0wj3M5bqgR1mVUJ10yExwfshya9J5lOjJBMsmuHUXBcRVRBgBwl/BMh0SH5sJJZBwfH4f3799H0eGr/y2c6FB1YwrdKq7ORabOJHY8uQEAwIc2Ue28duzQMuIKvP14NCliWryhNR/3ThpZduwvz4X84qqF7lN10imVRy9OCYIDAOByXFTIy3z58fT8TTET0QEAAOXAuw959SXxOB6oMD+8Ht6/jTq6OdcLAABuBkQHAMCCo7jdLZIfxMD+Bn/FuhBVJbos25GVAQDgrjAT0aEk97KWP1zKlkCMyyBqvG3+GklwAICMUbtof5Ys7NZO5WqI/fgqobh/34h4Qv/zwrxRXWJ9vE6fX6ubHBIAALCo+FBUnwdXnDN4k0NVZyI6mrXlsLdaDV9t18Pv7q+Ex+b31ypho74U16OvmlXsnm7utgAAyoXav7gjuTYJXD4Lq8vDsFkdhJ1aP+zVe2Gz0g+NpUFYOs/G26Zjbi8ltq/6sceuUQmhUV2Om/NpV3DtkaE2unpDjbAuoT5Mph+f9CNUza5dl1m9GtWlWJ9axepkr03S4ek5+KRI2VTPBgDgDuKLb2ivDu3ToT05tD+H9unY2tqKO5NrY8DFEx3WkexE0dEI3+2PER2x8zmPnRAAwF1k2dpAtYM1axMlOtYqw7BRMdFR7YW9Ws/KEh3DsHz+IaieNLBW02rxe9xkT4G8gvvV+nJYb1bDmomOhkSH3nDNxCvYHwmgWB/rYSR2anYgkSExpLrIS4Rog8BJq5UKj1R0qMO8yU4TAGARULvookPiQpsAaidyCQ6ZRMjCio5dEx1fmtj4br8ZRce9tWpYz0VHzTpadSx0CwBwV1H7F0WHZzpMdIwyHbnoaMZMx8dB9STCQ32GLAb51tgqm7BSr4SNuCN4JbbRCv7171pRPfJrxA7P6pJlOkxkWJ1kEhyqj87p9Un6u1RwuBWfC8IDAOADnunQjuRF0bG5uTkX0bFkDfdkP6VdwLuTbnh92AqvzF4ftsOPbzoje3bYi3t1RMs3xwIAuGtUJTZMdNRNcEh0bFc6YbfSDntm9xrD8O3jh+Ebs98+eRj2d7djh1EcezsOteDa98Lt4LQX/vTiNPz5RSv6X99b+3zSCwfR+ha8ayr37FENVU9VVabhXVsr1WibzWr49y/Xwx8eb4Y/PNkIv3+0HrMy+jFKXu+/CIkMrTXv680/f/58ZFpvXtf1ZwUAACGKDbdmsxmHVblJfEhwuN1U2zkT0XHS6YfD0244bJmZf3HcDy+Oemb9uGmgdiTXBoHaGEvrswMA3DWU5YhzOkxwyK8v9cL6ctd8N2zWhuHh/m74wuzR/l7Y2lj7SHBcJjq04V40a2zftvrhr69a4a+v22at8PO7Tnh+aIG62mTz2kdJn/FVpGaFqqg5HFpURGJiw4TG3lptZN8/XAs/PNoIP5j4+NcHa/H9ep8yIxfcXiTNcPT7/fD27duRacMrRAcAwMdoWJUPr5LwkNDQPA6Zsh46769d1MfMkpmIjm5/GNq9QeiYyR91hiNr2WvKbmQbVJnlqXcAgLuEVqmS8FCgXbFyPfRDzUy+aUJEQmNr3cz86kozdgIeTF+EGvC+CQ7t8C1/2B6Ef7zphH++7Zhvh5/M/2TCQ14CRO/J2uPZiQ616uqzfDiV/PZqLXyxUQ8PNjP73f218G9frEXB8e3+Snz/JIJDaGiVm7IdEhraTdd31J1UoAEA3BW8XZRJfGgyubIa8hIaft7bzptgJqIj7nprvdjQTOWBdX4fdia3N5jlDgDgTuJNupbFjeXzoTWeuYWzUM9/carVqqFqHYEH0Jd1BmpXszbXAnJrc487wzikKjMTHiY2fnzdCn87aIcfzXqDM2uX1WZnbffn4rWTmKpWNFcjW61K2Y0vt5tmjfCV+W9MaPz23moUHE/3VuJnLr6zD6ib8nkuPrdD4kNex2nnCgAA1r4m/Ye8t5Fe9vP+nptgJqIDAACmw3+5d/PG3zuF1C4j/sCTW6s3DC+Pe+HVcd+sF/75th3+8qoVTUOu2v1hzIpIfKRDrfL/U6GqWQ2j1z5NjVo2UVwrVD3YqIenuyvhyW5z5LXC4eOdZni41ci/YTLUTaXCw885aWc6yfMCAICbh5+FAADmRCosPFj2ANttEpRl0IRsDWuqWdC/Vq+E7ZVquLdeC/fX62Hf7L6JgH073lmtxb07VvJldCvWC0wymTtFb9X7s2tmK2ZpZaq4YlazGnZWNI8jG1alTIcEh0SIJpVLlFwFfxbF54LIAABYDBAdAABzwIPlVHAID6rTIPsy7Bti8C/RUbeCRIcCfBcbmeAwM689lbSUbrNWicvo6jP2P8tY5N93EfE9qrP9c6GTiQ7fkLAa53Pcs+s92GiER1vN8GTn80RH+izS5+HPLn1+AABQThAdAABzwgNmHxrkTCI0UvRRCYAY/JuQWDVRMcp0uOjYkBDIMx0mDOKu4HbdmO3QF+SXnyZ8l1jRZ+OO4xId+d4gEja6loTGoy0NqWrErEcUHXbdq+CCoyg8UhAfAADlhTkdAABzIA2gU9O8BeGrihQFyWVocni2klW2mtXr436c1+ErWGmex6uTfjgwf3DaD524+uBZnOuhZXft46O5HSqnSGREkWReIkfCJZoJDmU4smxKNqTrq51m+M3eSvh6L/MSJZ6N0WenQc/EJ43L/Jmk8zjcAACgnCA6AADmgDe9qdhwEy465KcJpvW16cRyLaH76kQTy3vhtYmNl0fduI/SSzOdO+pomXMze5+Eh30kig75ourQHhzZXhzZPI71RjXOD5Epu6EJ4g83G+EL819oqdw8yyJTNkRiQ/ci0TINLjjGrVYlE4gOAIByg+gAAJgTqfBIA2vhgsNFx6QBdaYVTMRYQb7dP4vL6B53B9G/MNHx7H03PD/shedWfqOsx2kvvDntx/dI88Rl0OPns+904lCsXHBowrqGcG2b2NheqcUMh5bG1epUWqVKS+ZKlGw0JUqq8XPW5dh96O9k+PPx55KKjnHPBtEBAFBeEB0AAHPEm2Dfd0KmcwqofUfZzwmqle0YDbeygP2FiQ3t3+F7eWh5XQkR+cN2396ffUb+vLCIbhQblaU4AV0TwrPdxuthb70WMxtP8+Vxn5rw2DBBkomUbK7JtKRdkz8XFx0uOGRppgMAAMoLogMAYI54E5wG1sKHDskUUKc2DXHD1lxEaBPBt61+eHPSCwcn5k/78fidmfxJZ2jC5MN8EGU7Rli5Vs1Wx2qYl+jYNGGx1axGv2sC5EGyWpYmlSu74StcTYOeSdEkNtxS0XGVZwIAADcPogMAYM54UO2/5Os4FRkyFx/+y/6kqIWPO5DHa4Rw2huGk65ZZ5B5Oz6V72pOx1noDtyyOSEfOI+CI5s4riV3l8NKPVuxSraulaualbApEWKmiePSGlblqSeO+/NIvcxf0zPwLMe0zwMAAOYDogMAoAS44PAgO8WD66sE2fGb7I+F7fa92SRzz2T4sCvtTq5jiQ0JD7dMdGSfE1Fo1LKNBeWV+aiZENGQq7hsbl6WVzVNLunPxHM4HN1/+jxSXHi56RgAAMoPogMAoASkgsMDbZVlCqzTX/ZnGWgrA6JeIA7DMgGSCY5haPUy0ZF1EJlXhmM1ZjiyTIcyGMpmZKtSxTfOBN2/iw553a+b3797GQAAlB9EBwBACXCx4UIjFSAeZLvw8EB7FgG3egBJCnmJDGU7egPzmtMxEh0ZymJoLocyGRo+pcvHIVT695lVSbuioujQPY8TG24AAFB+EB0AACVATbE3xwq23fyX/qLo8GD7c4PueEX7I3mh0VTDYTbxXKbsR4qvROWrUunS9ld/9P+zKN5/UXT4vcuL9BkAAED5QXQAAJQID74VbLuJcaJjloF37Ajsj8SHeoVo8ZUP6FK6WrxuPJEdzwK/b1kquOT93rWEsN8/AAAsFogOAICSoWa5KDoUaHvAfV3CYx54F+RiY5x30eEGAACLB6IDAKBkeMAtc9GR4sIjFR9+flFIu570fmVF/F7dAABg8aD1BgAoIS4sfEiVUHDuQ47cdC4N4BcJr3t6P+l9fUpcAQDA4oHoAAAoGR5gy1x0qFwM0D1oT23RSOuue3JRJdL7d+EFAACLCcOrAABKSNo0p8G4fCpKLrOy4MIiLbsVBZTq7fM3XHCJMt0PAABMB6IDAKCkePMsr8DcTcfpawrG0yFIXk4D9nnj9S7eg5vX3U11d3PKci8AADA9iA4AgJLjgXkauKdzO4rBejokyc/PC+9ivK5e7/R+RJrZSOs97/oDAMBsYJAsAEDJ8cDbA3MPwj2IH2dpQC/v5ZsivaaXVadxdU7r6qKjDIIJAABmB5kOAIAFIG2qi0F7EQ/Wi6ZAvvi6H6d+Erw+43zRLhNAuq4LKs92+HkAALgdIDoAABYEb649iPfMQXosn5oC92L2oOjdhPtPoe90itcaVy8/J/w64+pRPOfvBwCA2wGiAwBgwVCznVox85GaAvdiFkHm5TTQnyTY9y4jvX5RZOi67r3s15RVq9WPjqe5PgAALCaIDgCABWcwGERTgO9lN+HBfRrkp+YB/6TBvncbLjpkqdgoCg55XVdio1arRe91cQECAAC3G0QHAMCCUwzwUxMSE0Vx4eakXYGXi91D+n5RPNb7x5nq5SIjtVT4AADA7QbRAQCw4Cio9+Be3gWIH4/Dz6fvc+82jlSwyFw0+LG/x/FyKjD8/cXPAQDA7QXRAQCw4KTNuAuGVEAURUXqfViWW/paERcILhYuylykln5G5t+VegAAuN0gOgAAbhlq1r1pT0VEan7ORYd88TX/DicVDiqPEx2fEh+IDACAuw2iAwDgluHNuvw4c0EhS4dipefdUlxwuI0TFzJ/LX2fo2MAALh7IDoAAG4hadOeCohx5VRspOeLuGBIfSou0vPjzgEAwN0F0QEAcEe4rLmftju4SEggMgAAIAXRAQAAAAAA1wqLowMAAAAAwLWC6AAAAAAAgGskhP8DSVIAIZQWWAIAAAAASUVORK5CYII=;" vertex="1" parent="efof93Qg9sC8hvgrrkQ7-20">
          <mxGeometry x="62.210000000000036" y="30" width="167.79" height="20" as="geometry" />
        </mxCell>
        <mxCell id="efof93Qg9sC8hvgrrkQ7-21" value="" style="group" vertex="1" connectable="0" parent="1">
          <mxGeometry x="540" y="300" width="240" height="70" as="geometry" />
        </mxCell>
        <mxCell id="efof93Qg9sC8hvgrrkQ7-22" value="" style="rounded=1;whiteSpace=wrap;html=1;" vertex="1" parent="efof93Qg9sC8hvgrrkQ7-21">
          <mxGeometry width="240" height="70" as="geometry" />
        </mxCell>
        <mxCell id="efof93Qg9sC8hvgrrkQ7-23" value="実験レポート&amp;nbsp; &amp;nbsp; &amp;nbsp; &amp;nbsp; &amp;nbsp; &amp;nbsp; &amp;nbsp; &amp;nbsp; &amp;nbsp; &amp;nbsp; &amp;nbsp; &amp;nbsp; 優先度:10&lt;br&gt;&amp;nbsp; &amp;nbsp;重要度:&lt;br&gt;&amp;nbsp; &amp;nbsp; &amp;nbsp; &amp;nbsp;軽さ:&lt;br&gt;締め切り:2023-10-02 11:59 PM&lt;div style=&quot;border-color: var(--border-color);&quot;&gt;&lt;br style=&quot;border-color: var(--border-color);&quot;&gt;&lt;/div&gt;" style="text;html=1;strokeColor=none;fillColor=none;align=left;verticalAlign=middle;whiteSpace=wrap;rounded=0;" vertex="1" parent="efof93Qg9sC8hvgrrkQ7-21">
          <mxGeometry x="10" y="10" width="220" height="60" as="geometry" />
        </mxCell>
        <mxCell id="efof93Qg9sC8hvgrrkQ7-24" value="" style="shape=image;verticalLabelPosition=bottom;labelBackgroundColor=default;verticalAlign=top;aspect=fixed;imageAspect=0;image=data:image/png,iVBORw0KGgoAAAANSUhEUgAAAx0AAABfCAYAAACN4appAAAAAXNSR0IArs4c6QAAAARnQU1BAACxjwv8YQUAAAAJcEhZcwAAFiUAABYlAUlSJPAAABy8SURBVHhe7Z1pcxvJkYaLxMn7EqWRZiSNZzze3QnP7obX//9HbGyEHWt7bM+hkzp44Qa5+VZ3QqVeiAQokGiQzyMls7pxdHV/qMoXWcfSuREAAAAAAACuieXcAwAAAAAAXAuIDgAAAAAAuFYQHQAAAAAAcK0gOgAAAAAA4FphIjkAwB3nqt3A0tJSXgIAALgYRAcAwC0nbeYnKYtxXUNRZPjxp847iBMAAEB0AADcUsaJitS7pcdOWnaKIkP+U2Vn3DkAALh7IDoAAG4hRQHhx16+yJy0LIrC4lOWvu7l1AMAwN0D0QEAcEsYJxjG+YvM3/MpimJieXn5/52bxgMAwN0A0QEAsOCkYqFoF+GvF/1lXEVA6D2ppecAAOD2g+gAAFhw1IyndnZ2NvKiGOg7sw74dU0nrY/wOqSZkdQAAOB2g+gAAFhwUpHh3k0oqL8o2E/LTvFYFLsLP5Z382Ovi5d1/dT0/WmdAADgdoPoAABYMLzZdp8G+G5+TqTBfdFEWhZpeRz+val3S4+9DvL6zrQexTqJogcAgNsDogMAYEHw5lreg/n0nJOWRRrcu/n51Iu0fBGfum56PrUi6bVTkxhx/D0AALD4IDoAABaAtKmW2EjN8SA9DeKL55y0LIrHk1DsPtJjL8uPsxRdW2LDzetylToBAEA5QXQAACwA3lTLD4fDKDbkZQrO3dLgPQ3gxU0H8Wn34vV1oZTej6hUKiPzexE3XWcAALgeEB0AACVHzbTMg3Uv+7EH6TIXGi46xDwDd9XPvdc5vQ+nWHd5LwMAwOKD6AAAKCnePMunAbufc4qBetHKQCo0xpnwusrrftzKcg8AAHB1EB0AACUkbZoVsKdDqlxMuI0THMJ9GfD7cT9OhPg51TsdbiXKdC8AADA95K0BAErKuKDcTSgQTzMCbjpftiDd6+R1lJhI6+v4/aX3LdwDAMBiQqYDAKBkeLAt8wA89R6sp0G7B+5pAF9m0nv0+3IT6b2l97go9wcAAB+D6AAAKBlpEK7hVH7OGReQi0UKyP1+5P1+U5/ek9+nGwAALB603gAAJcQDcDeRBt9eToPzRUL1dfN7Sk3oGfhcFpUBAGBxIdMBAFAi1CR7sO0mikF5GrRPS2z085Y/zzfYNWNhxKc6hvRqfmmrhRc+en0aXFjIUrElSyeV+70DAMBigegAACgBHnCLNOCW6EizAQq8Pei+iujQJexKubdrWeFM5ZH39+ldHyNxocvpivLL8foffDT7t6w3TInfv5tnOGTpvcuLq9w7AADMD0QHAEAJUFOsANuDbi/LK7hOg24Ptq8mOD4WGkMrRIvXstdyQaLXXXXkLoqJWBfzEhoVi/8rsW5Z+SMRkn9mUlQX97Feiejw+/d7LxoAAJQfRAcAQAnwAFtNsrzwAFyBtQuOVHRMg7f0LjgkMiQ2BrKh/Jkdf3j9zP6MOgcrqJwJDBccS6Eqq2Rexy489L4rVHGE7t9Fh2d63Pz+UwECAADlB9EBAFAC0l/2i82yiw23adBXSUjI61v7piz6JjJ6ue/0z0JnMIy+NzjLRIjZ0F6T+PCa6PMSGLUoNJZD3cqN2nJoVJdDM/c6V9Nr1Q/Cw/5GPw26//R5pLjgcEN0AAAsBogOAIA5o2bYf9V30eG/4rt5gD2p6PCWXYIjG0KVZTckLlr9YWj3Mn/cGZgNw5H5Vm8YhUdPosS8Pqev0XfJJCwkNCQyZBuNSlhvVMNGU74SVutmNfnlKD6U/bD/0U+DP4/Uuwk9gzTzAwAA5QfRAQAwR7wJluBwEx5Qy4oC5DK8VZdkkNhQdkNDqPomIk66mdA4yv2bk354cyrrhaP2ILSV+TBrmyBRxkPfFTMeZismJtZMWKyZwJDtrtbMqmFnrRZ2zG82q2HLbHOlGpomUJQR8SFY08gOFxippYLMBUdxjgsAAJQXRAcAwBzxJngwGIxEhwfW1Wo1eg+qJw2u9ZUWqkcv4RCzF4Pz0DXxcWjC4m2rH961zJvYeHHUNeuFF4fdKD5Oe8NwaoJEJrEiwZGJjvOwboJCWY0oLkxYPNioh/ub9ej31+thz8SHbNdM4qTuQ67MTysL0q7Jn4uekYSHnok/H4kOgfAAACg3iA4AgDnhza+8/5IvL/yXfBcd0wiOOKTKzL4uZiw0fCpmOMyU0Tg46YcD86MsR+4lSDoaelXIdGTf+XGmQ8OpJC72lO1Yq4Y9Ex337Pie+f31WtheqUWBsqHMh5lGWMX7sDpOqg/8+ei5uChLRYeeUZrpQHgAAJQXRAcAwBxIBYdMwbSb8KDaRcekSBz4alQSDUcmON6cmNAwUSGx8eq4F+2l2Ws7f5LP6ZAgaWtOxzDLiijLIeGiasaa2h9lLhrVpdHcjs18PoeExfZKNewr8yHRIR+zH7XoZRpipZWtMotVnRjPdKSiwwWHTERBg+gAACgtiA4AgDngYqNoRdEhmzSYto/HLMdodSoTD8pg/HrYDb++l3XC86NeeG7HMokPDb3SsCt5fU5L5ZobTSLXn7wUV6TKlsbN5mlo3oavXKVshg+1ksj4arsRnuyuhCc7zfB4txnfoyV1/TumQc/EBYdMzyN9NqkBAEA5QXQAAMyBVGik5hSD6svwj0osdCQkNCHc/EsTGT++aYe/H5iZl/h4dtiJXqJDn7Mrjz4/DVF8RBES4spVEhwPNhtRdHy91wzf3V8L3+2vml8NqyZOavmSuhIs0+BiIxUd40zPCwAAygktNADAnBgnNoQC6Glw4aAsh4ZUafUpzeF43x7EuRsSF5owLqGhIVVH7WxpXP/clbGPZkvyaoWs89DqZRPVNW8kDuGKk9SzrIqGd2kIlzIwV6EoMJz02RWfIwAAlAdEBwDAHPAA2UWHbFxgnQbYnyITHCEOi9KyuBIdx91BeN/KJoi/NgGgYVUaXqWy9uToSnS44LhirP7hutmQLu37IdHhc0c0b8RFh+oRRcdg+oulzyJ9HumzAwCAcoPoAACYE+OCZg+siwH2RejjspjpsOBfO4x7pkMrU8VMhwX+z8xipsNFR/65D1efDr+m5oFo4rk2F9R3S2BkmQ6Jjl54ZsLjwK6rfUE+J9Ph3svp80ufIQAAlI+ZzOnwTkdjib3TU4pfpl/e1KPlDgDgTuLyYclawlg+t+D7fGgN6NAa4rNQq1VDrWpmvpqvWJUG2BcR29q8zdX+GnHfjTi0qRd+PGiHP784DX9+mZkml+tf/n9maG64z9fQ3A2tYvV0rxknkz/dbYav91bC11bWXI+vdprxM5ffWYa6Kc3lcK9J5VpC1/ft8PkvmnwPAAAf/0Ajn84T9Plv6XtugpmIjq7Wde8NQsdMXks0uindPjxfiin4aBN3MwAAt4dlC/ErS+cxOK9Yub40CPXQj9ZYPgtb62thayOz1WZj1Bl45/Ap1IDH3caH2RK5Gt7087tO+OltJ/p/vOlE4aFJ5DK9L35ulorDUL+VTSrPJpfvrNbCo61GeJibJpP/Lrdv7q3E99sdRn8ZPoFcJqFxeno6sl6vN+pMvUMFALjrpO2ifpBpNBqhXq9HX6vVRudvst2cieg46fTD4Wk3HLbMzL841i63+qWtH960BkFDeAdnS+Yz8QEAcNeQ4Kia1UxgyK8v98L6ktlyN2zWhuHhvd3wcD8zCQ/vLFx8fAq14HF5XDPNl3jX6oe/vm6Hvx20wt/MS3xoydxn7zOvjMissxxCVfQ9OLQsrvbv0EaB99a1S3k9fP9wLfz+0Xr4wexfHqzl759MeKT7dPT7/fD27duRSXj4s5IBAEAI1Wo1igp5iYz19fWwtrYWbWVlJZ731xZKdLw76YbXh63wyuz1YTv8qF/Wcnt22As9ExzRTHQo6wEAcNeoLp2FhomNuokOZTa2K52wa7ZXbYd7jWH49vHD8M3jL8JvHz8K+7tbHwXSl4kOzc9w09yJP704za0VJ4/HHcjtvFaQiqLjmlA1VVP51VolbK5ku5HL/uOrjfBfTzbCHx5vhh++XB8JFPkLbi+SDqfqdrvh+fPn0Z49exYODw9Hz+iyZwUAcFeQmHBrNpthe3t7ZBIgynq4qe28CWYiOl6+b4d/HhyHnw5Oov3jbTf83Uz++VE/9HPBIR/neAAA3DGU3ZDgqJv4qC+fh50oOtpht9oJ9010fP/No/D9b76M9mh/5yPBcZno0MRxrVgl0+pU//3sJPxPbpo8/r41iJPKD9v9a802x1rmVdXGgeuNSlhrVKP/TxMdf3y6Gf74ZDMKkHSPDwmPi0hFh4ZT/fzzz+GXX36J/t27dyPBgegAAMiQ2PBMhoZUpaJjY2MjrK6uRlPW46bmw81E2mgDqrfWqf36vhf+8roTfjZ/cDoIJ73zmOHom+DIM/oAAHcStX/K9PbPl0P3bDm0hpVwNKiGd/1aeGN2PKiFzlk1nC99PMZ2kiBawkOmdlbzOrR8rQTIaW8Y987QjuPKcFx3Gxy/P7+InOqjRUa8TrKemTIyGg4W6zRBpVxUqGMsjkGewe9mAAC3Dl90Q0NS9WNNu90OJycnMTt8dHQUWq1WPH+TbejMRMc7Ex2/vO+a6GhH0fH6dBiOc9GhOR3qbOkbAOCucmZtYBQd1iZKdJya6DgeuuioW7kWuufVcJaIjkkEhxMDfGtkNU9cG/+1JTq6Eh3DGOQr8L8J4lXsj9r7WJ9YJwkPExpWD9VNpsnvk4oOURQe0zwbAIC7hsSEZ4mLokO2uKLDOjdNGP/FxMb/vhojOvJhVTd3WwAA5ULtnxbTGGU6zpJMR68ejqLoqITzpcnmcqSoz1AeQ7piYAfKJmSZjmzvDE0wj3M5bqgR1mVUJ10yExwfshya9J5lOjJBMsmuHUXBcRVRBgBwl/BMh0SH5sJJZBwfH4f3799H0eGr/y2c6FB1YwrdKq7ORabOJHY8uQEAwIc2Ue28duzQMuIKvP14NCliWryhNR/3ThpZduwvz4X84qqF7lN10imVRy9OCYIDAOByXFTIy3z58fT8TTET0QEAAOXAuw959SXxOB6oMD+8Ht6/jTq6OdcLAABuBkQHAMCCo7jdLZIfxMD+Bn/FuhBVJbos25GVAQDgrjAT0aEk97KWP1zKlkCMyyBqvG3+GklwAICMUbtof5Ys7NZO5WqI/fgqobh/34h4Qv/zwrxRXWJ9vE6fX6ubHBIAALCo+FBUnwdXnDN4k0NVZyI6mrXlsLdaDV9t18Pv7q+Ex+b31ypho74U16OvmlXsnm7utgAAyoXav7gjuTYJXD4Lq8vDsFkdhJ1aP+zVe2Gz0g+NpUFYOs/G26Zjbi8ltq/6sceuUQmhUV2Om/NpV3DtkaE2unpDjbAuoT5Mph+f9CNUza5dl1m9GtWlWJ9axepkr03S4ek5+KRI2VTPBgDgDuKLb2ivDu3ToT05tD+H9unY2tqKO5NrY8DFEx3WkexE0dEI3+2PER2x8zmPnRAAwF1k2dpAtYM1axMlOtYqw7BRMdFR7YW9Ws/KEh3DsHz+IaieNLBW02rxe9xkT4G8gvvV+nJYb1bDmomOhkSH3nDNxCvYHwmgWB/rYSR2anYgkSExpLrIS4Rog8BJq5UKj1R0qMO8yU4TAGARULvookPiQpsAaidyCQ6ZRMjCio5dEx1fmtj4br8ZRce9tWpYz0VHzTpadSx0CwBwV1H7F0WHZzpMdIwyHbnoaMZMx8dB9STCQ32GLAb51tgqm7BSr4SNuCN4JbbRCv7171pRPfJrxA7P6pJlOkxkWJ1kEhyqj87p9Un6u1RwuBWfC8IDAOADnunQjuRF0bG5uTkX0bFkDfdkP6VdwLuTbnh92AqvzF4ftsOPbzoje3bYi3t1RMs3xwIAuGtUJTZMdNRNcEh0bFc6YbfSDntm9xrD8O3jh+Ebs98+eRj2d7djh1EcezsOteDa98Lt4LQX/vTiNPz5RSv6X99b+3zSCwfR+ha8ayr37FENVU9VVabhXVsr1WibzWr49y/Xwx8eb4Y/PNkIv3+0HrMy+jFKXu+/CIkMrTXv680/f/58ZFpvXtf1ZwUAACGKDbdmsxmHVblJfEhwuN1U2zkT0XHS6YfD0244bJmZf3HcDy+Oemb9uGmgdiTXBoHaGEvrswMA3DWU5YhzOkxwyK8v9cL6ctd8N2zWhuHh/m74wuzR/l7Y2lj7SHBcJjq04V40a2zftvrhr69a4a+v22at8PO7Tnh+aIG62mTz2kdJn/FVpGaFqqg5HFpURGJiw4TG3lptZN8/XAs/PNoIP5j4+NcHa/H9ep8yIxfcXiTNcPT7/fD27duRacMrRAcAwMdoWJUPr5LwkNDQPA6Zsh46769d1MfMkpmIjm5/GNq9QeiYyR91hiNr2WvKbmQbVJnlqXcAgLuEVqmS8FCgXbFyPfRDzUy+aUJEQmNr3cz86kozdgIeTF+EGvC+CQ7t8C1/2B6Ef7zphH++7Zhvh5/M/2TCQ14CRO/J2uPZiQ616uqzfDiV/PZqLXyxUQ8PNjP73f218G9frEXB8e3+Snz/JIJDaGiVm7IdEhraTdd31J1UoAEA3BW8XZRJfGgyubIa8hIaft7bzptgJqIj7nprvdjQTOWBdX4fdia3N5jlDgDgTuJNupbFjeXzoTWeuYWzUM9/carVqqFqHYEH0Jd1BmpXszbXAnJrc487wzikKjMTHiY2fnzdCn87aIcfzXqDM2uX1WZnbffn4rWTmKpWNFcjW61K2Y0vt5tmjfCV+W9MaPz23moUHE/3VuJnLr6zD6ib8nkuPrdD4kNex2nnCgAA1r4m/Ye8t5Fe9vP+nptgJqIDAACmw3+5d/PG3zuF1C4j/sCTW6s3DC+Pe+HVcd+sF/75th3+8qoVTUOu2v1hzIpIfKRDrfL/U6GqWQ2j1z5NjVo2UVwrVD3YqIenuyvhyW5z5LXC4eOdZni41ci/YTLUTaXCw885aWc6yfMCAICbh5+FAADmRCosPFj2ANttEpRl0IRsDWuqWdC/Vq+E7ZVquLdeC/fX62Hf7L6JgH073lmtxb07VvJldCvWC0wymTtFb9X7s2tmK2ZpZaq4YlazGnZWNI8jG1alTIcEh0SIJpVLlFwFfxbF54LIAABYDBAdAABzwIPlVHAID6rTIPsy7Bti8C/RUbeCRIcCfBcbmeAwM689lbSUbrNWicvo6jP2P8tY5N93EfE9qrP9c6GTiQ7fkLAa53Pcs+s92GiER1vN8GTn80RH+izS5+HPLn1+AABQThAdAABzwgNmHxrkTCI0UvRRCYAY/JuQWDVRMcp0uOjYkBDIMx0mDOKu4HbdmO3QF+SXnyZ8l1jRZ+OO4xId+d4gEja6loTGoy0NqWrErEcUHXbdq+CCoyg8UhAfAADlhTkdAABzIA2gU9O8BeGrihQFyWVocni2klW2mtXr436c1+ErWGmex6uTfjgwf3DaD524+uBZnOuhZXft46O5HSqnSGREkWReIkfCJZoJDmU4smxKNqTrq51m+M3eSvh6L/MSJZ6N0WenQc/EJ43L/Jmk8zjcAACgnCA6AADmgDe9qdhwEy465KcJpvW16cRyLaH76kQTy3vhtYmNl0fduI/SSzOdO+pomXMze5+Eh30kig75ourQHhzZXhzZPI71RjXOD5Epu6EJ4g83G+EL819oqdw8yyJTNkRiQ/ci0TINLjjGrVYlE4gOAIByg+gAAJgTqfBIA2vhgsNFx6QBdaYVTMRYQb7dP4vL6B53B9G/MNHx7H03PD/shedWfqOsx2kvvDntx/dI88Rl0OPns+904lCsXHBowrqGcG2b2NheqcUMh5bG1epUWqVKS+ZKlGw0JUqq8XPW5dh96O9k+PPx55KKjnHPBtEBAFBeEB0AAHPEm2Dfd0KmcwqofUfZzwmqle0YDbeygP2FiQ3t3+F7eWh5XQkR+cN2396ffUb+vLCIbhQblaU4AV0TwrPdxuthb70WMxtP8+Vxn5rw2DBBkomUbK7JtKRdkz8XFx0uOGRppgMAAMoLogMAYI54E5wG1sKHDskUUKc2DXHD1lxEaBPBt61+eHPSCwcn5k/78fidmfxJZ2jC5MN8EGU7Rli5Vs1Wx2qYl+jYNGGx1axGv2sC5EGyWpYmlSu74StcTYOeSdEkNtxS0XGVZwIAADcPogMAYM54UO2/5Os4FRkyFx/+y/6kqIWPO5DHa4Rw2huGk65ZZ5B5Oz6V72pOx1noDtyyOSEfOI+CI5s4riV3l8NKPVuxSraulaualbApEWKmiePSGlblqSeO+/NIvcxf0zPwLMe0zwMAAOYDogMAoAS44PAgO8WD66sE2fGb7I+F7fa92SRzz2T4sCvtTq5jiQ0JD7dMdGSfE1Fo1LKNBeWV+aiZENGQq7hsbl6WVzVNLunPxHM4HN1/+jxSXHi56RgAAMoPogMAoASkgsMDbZVlCqzTX/ZnGWgrA6JeIA7DMgGSCY5haPUy0ZF1EJlXhmM1ZjiyTIcyGMpmZKtSxTfOBN2/iw553a+b3797GQAAlB9EBwBACXCx4UIjFSAeZLvw8EB7FgG3egBJCnmJDGU7egPzmtMxEh0ZymJoLocyGRo+pcvHIVT695lVSbuioujQPY8TG24AAFB+EB0AACVATbE3xwq23fyX/qLo8GD7c4PueEX7I3mh0VTDYTbxXKbsR4qvROWrUunS9ld/9P+zKN5/UXT4vcuL9BkAAED5QXQAAJQID74VbLuJcaJjloF37Ajsj8SHeoVo8ZUP6FK6WrxuPJEdzwK/b1kquOT93rWEsN8/AAAsFogOAICSoWa5KDoUaHvAfV3CYx54F+RiY5x30eEGAACLB6IDAKBkeMAtc9GR4sIjFR9+flFIu570fmVF/F7dAABg8aD1BgAoIS4sfEiVUHDuQ47cdC4N4BcJr3t6P+l9fUpcAQDA4oHoAAAoGR5gy1x0qFwM0D1oT23RSOuue3JRJdL7d+EFAACLCcOrAABKSNo0p8G4fCpKLrOy4MIiLbsVBZTq7fM3XHCJMt0PAABMB6IDAKCkePMsr8DcTcfpawrG0yFIXk4D9nnj9S7eg5vX3U11d3PKci8AADA9iA4AgJLjgXkauKdzO4rBejokyc/PC+9ivK5e7/R+RJrZSOs97/oDAMBsYJAsAEDJ8cDbA3MPwj2IH2dpQC/v5ZsivaaXVadxdU7r6qKjDIIJAABmB5kOAIAFIG2qi0F7EQ/Wi6ZAvvi6H6d+Erw+43zRLhNAuq4LKs92+HkAALgdIDoAABYEb649iPfMQXosn5oC92L2oOjdhPtPoe90itcaVy8/J/w64+pRPOfvBwCA2wGiAwBgwVCznVox85GaAvdiFkHm5TTQnyTY9y4jvX5RZOi67r3s15RVq9WPjqe5PgAALCaIDgCABWcwGERTgO9lN+HBfRrkp+YB/6TBvncbLjpkqdgoCg55XVdio1arRe91cQECAAC3G0QHAMCCUwzwUxMSE0Vx4eakXYGXi91D+n5RPNb7x5nq5SIjtVT4AADA7QbRAQCw4Cio9+Be3gWIH4/Dz6fvc+82jlSwyFw0+LG/x/FyKjD8/cXPAQDA7QXRAQCw4KTNuAuGVEAURUXqfViWW/paERcILhYuylykln5G5t+VegAAuN0gOgAAbhlq1r1pT0VEan7ORYd88TX/DicVDiqPEx2fEh+IDACAuw2iAwDgluHNuvw4c0EhS4dipefdUlxwuI0TFzJ/LX2fo2MAALh7IDoAAG4hadOeCohx5VRspOeLuGBIfSou0vPjzgEAwN0F0QEAcEe4rLmftju4SEggMgAAIAXRAQAAAAAA1wqLowMAAAAAwLWC6AAAAAAAgGskhP8DSVIAIZQWWAIAAAAASUVORK5CYII=;" vertex="1" parent="efof93Qg9sC8hvgrrkQ7-21">
          <mxGeometry x="62.210000000000036" y="16" width="167.79" height="20" as="geometry" />
        </mxCell>
        <mxCell id="efof93Qg9sC8hvgrrkQ7-25" value="" style="shape=image;verticalLabelPosition=bottom;labelBackgroundColor=default;verticalAlign=top;aspect=fixed;imageAspect=0;image=data:image/png,iVBORw0KGgoAAAANSUhEUgAAAx0AAABfCAYAAACN4appAAAAAXNSR0IArs4c6QAAAARnQU1BAACxjwv8YQUAAAAJcEhZcwAAFiUAABYlAUlSJPAAABy8SURBVHhe7Z1pcxvJkYaLxMn7EqWRZiSNZzze3QnP7obX//9HbGyEHWt7bM+hkzp44Qa5+VZ3QqVeiAQokGiQzyMls7pxdHV/qMoXWcfSuREAAAAAAACuieXcAwAAAAAAXAuIDgAAAAAAuFYQHQAAAAAAcK0gOgAAAAAA4FphIjkAwB3nqt3A0tJSXgIAALgYRAcAwC0nbeYnKYtxXUNRZPjxp847iBMAAEB0AADcUsaJitS7pcdOWnaKIkP+U2Vn3DkAALh7IDoAAG4hRQHhx16+yJy0LIrC4lOWvu7l1AMAwN0D0QEAcEsYJxjG+YvM3/MpimJieXn5/52bxgMAwN0A0QEAsOCkYqFoF+GvF/1lXEVA6D2ppecAAOD2g+gAAFhw1IyndnZ2NvKiGOg7sw74dU0nrY/wOqSZkdQAAOB2g+gAAFhwUpHh3k0oqL8o2E/LTvFYFLsLP5Z382Ovi5d1/dT0/WmdAADgdoPoAABYMLzZdp8G+G5+TqTBfdFEWhZpeRz+val3S4+9DvL6zrQexTqJogcAgNsDogMAYEHw5lreg/n0nJOWRRrcu/n51Iu0fBGfum56PrUi6bVTkxhx/D0AALD4IDoAABaAtKmW2EjN8SA9DeKL55y0LIrHk1DsPtJjL8uPsxRdW2LDzetylToBAEA5QXQAACwA3lTLD4fDKDbkZQrO3dLgPQ3gxU0H8Wn34vV1oZTej6hUKiPzexE3XWcAALgeEB0AACVHzbTMg3Uv+7EH6TIXGi46xDwDd9XPvdc5vQ+nWHd5LwMAwOKD6AAAKCnePMunAbufc4qBetHKQCo0xpnwusrrftzKcg8AAHB1EB0AACUkbZoVsKdDqlxMuI0THMJ9GfD7cT9OhPg51TsdbiXKdC8AADA95K0BAErKuKDcTSgQTzMCbjpftiDd6+R1lJhI6+v4/aX3LdwDAMBiQqYDAKBkeLAt8wA89R6sp0G7B+5pAF9m0nv0+3IT6b2l97go9wcAAB+D6AAAKBlpEK7hVH7OGReQi0UKyP1+5P1+U5/ek9+nGwAALB603gAAJcQDcDeRBt9eToPzRUL1dfN7Sk3oGfhcFpUBAGBxIdMBAFAi1CR7sO0mikF5GrRPS2z085Y/zzfYNWNhxKc6hvRqfmmrhRc+en0aXFjIUrElSyeV+70DAMBigegAACgBHnCLNOCW6EizAQq8Pei+iujQJexKubdrWeFM5ZH39+ldHyNxocvpivLL8foffDT7t6w3TInfv5tnOGTpvcuLq9w7AADMD0QHAEAJUFOsANuDbi/LK7hOg24Ptq8mOD4WGkMrRIvXstdyQaLXXXXkLoqJWBfzEhoVi/8rsW5Z+SMRkn9mUlQX97Feiejw+/d7LxoAAJQfRAcAQAnwAFtNsrzwAFyBtQuOVHRMg7f0LjgkMiQ2BrKh/Jkdf3j9zP6MOgcrqJwJDBccS6Eqq2Rexy489L4rVHGE7t9Fh2d63Pz+UwECAADlB9EBAFAC0l/2i82yiw23adBXSUjI61v7piz6JjJ6ue/0z0JnMIy+NzjLRIjZ0F6T+PCa6PMSGLUoNJZD3cqN2nJoVJdDM/c6V9Nr1Q/Cw/5GPw26//R5pLjgcEN0AAAsBogOAIA5o2bYf9V30eG/4rt5gD2p6PCWXYIjG0KVZTckLlr9YWj3Mn/cGZgNw5H5Vm8YhUdPosS8Pqev0XfJJCwkNCQyZBuNSlhvVMNGU74SVutmNfnlKD6U/bD/0U+DP4/Uuwk9gzTzAwAA5QfRAQAwR7wJluBwEx5Qy4oC5DK8VZdkkNhQdkNDqPomIk66mdA4yv2bk354cyrrhaP2ILSV+TBrmyBRxkPfFTMeZismJtZMWKyZwJDtrtbMqmFnrRZ2zG82q2HLbHOlGpomUJQR8SFY08gOFxippYLMBUdxjgsAAJQXRAcAwBzxJngwGIxEhwfW1Wo1eg+qJw2u9ZUWqkcv4RCzF4Pz0DXxcWjC4m2rH961zJvYeHHUNeuFF4fdKD5Oe8NwaoJEJrEiwZGJjvOwboJCWY0oLkxYPNioh/ub9ej31+thz8SHbNdM4qTuQ67MTysL0q7Jn4uekYSHnok/H4kOgfAAACg3iA4AgDnhza+8/5IvL/yXfBcd0wiOOKTKzL4uZiw0fCpmOMyU0Tg46YcD86MsR+4lSDoaelXIdGTf+XGmQ8OpJC72lO1Yq4Y9Ex337Pie+f31WtheqUWBsqHMh5lGWMX7sDpOqg/8+ei5uChLRYeeUZrpQHgAAJQXRAcAwBxIBYdMwbSb8KDaRcekSBz4alQSDUcmON6cmNAwUSGx8eq4F+2l2Ws7f5LP6ZAgaWtOxzDLiijLIeGiasaa2h9lLhrVpdHcjs18PoeExfZKNewr8yHRIR+zH7XoZRpipZWtMotVnRjPdKSiwwWHTERBg+gAACgtiA4AgDngYqNoRdEhmzSYto/HLMdodSoTD8pg/HrYDb++l3XC86NeeG7HMokPDb3SsCt5fU5L5ZobTSLXn7wUV6TKlsbN5mlo3oavXKVshg+1ksj4arsRnuyuhCc7zfB4txnfoyV1/TumQc/EBYdMzyN9NqkBAEA5QXQAAMyBVGik5hSD6svwj0osdCQkNCHc/EsTGT++aYe/H5iZl/h4dtiJXqJDn7Mrjz4/DVF8RBES4spVEhwPNhtRdHy91wzf3V8L3+2vml8NqyZOavmSuhIs0+BiIxUd40zPCwAAygktNADAnBgnNoQC6Glw4aAsh4ZUafUpzeF43x7EuRsSF5owLqGhIVVH7WxpXP/clbGPZkvyaoWs89DqZRPVNW8kDuGKk9SzrIqGd2kIlzIwV6EoMJz02RWfIwAAlAdEBwDAHPAA2UWHbFxgnQbYnyITHCEOi9KyuBIdx91BeN/KJoi/NgGgYVUaXqWy9uToSnS44LhirP7hutmQLu37IdHhc0c0b8RFh+oRRcdg+oulzyJ9HumzAwCAcoPoAACYE+OCZg+siwH2RejjspjpsOBfO4x7pkMrU8VMhwX+z8xipsNFR/65D1efDr+m5oFo4rk2F9R3S2BkmQ6Jjl54ZsLjwK6rfUE+J9Ph3svp80ufIQAAlI+ZzOnwTkdjib3TU4pfpl/e1KPlDgDgTuLyYclawlg+t+D7fGgN6NAa4rNQq1VDrWpmvpqvWJUG2BcR29q8zdX+GnHfjTi0qRd+PGiHP784DX9+mZkml+tf/n9maG64z9fQ3A2tYvV0rxknkz/dbYav91bC11bWXI+vdprxM5ffWYa6Kc3lcK9J5VpC1/ft8PkvmnwPAAAf/0Ajn84T9Plv6XtugpmIjq7Wde8NQsdMXks0uindPjxfiin4aBN3MwAAt4dlC/ErS+cxOK9Yub40CPXQj9ZYPgtb62thayOz1WZj1Bl45/Ap1IDH3caH2RK5Gt7087tO+OltJ/p/vOlE4aFJ5DK9L35ulorDUL+VTSrPJpfvrNbCo61GeJibJpP/Lrdv7q3E99sdRn8ZPoFcJqFxeno6sl6vN+pMvUMFALjrpO2ifpBpNBqhXq9HX6vVRudvst2cieg46fTD4Wk3HLbMzL841i63+qWtH960BkFDeAdnS+Yz8QEAcNeQ4Kia1UxgyK8v98L6ktlyN2zWhuHhvd3wcD8zCQ/vLFx8fAq14HF5XDPNl3jX6oe/vm6Hvx20wt/MS3xoydxn7zOvjMissxxCVfQ9OLQsrvbv0EaB99a1S3k9fP9wLfz+0Xr4wexfHqzl759MeKT7dPT7/fD27duRSXj4s5IBAEAI1Wo1igp5iYz19fWwtrYWbWVlJZ731xZKdLw76YbXh63wyuz1YTv8qF/Wcnt22As9ExzRTHQo6wEAcNeoLp2FhomNuokOZTa2K52wa7ZXbYd7jWH49vHD8M3jL8JvHz8K+7tbHwXSl4kOzc9w09yJP704za0VJ4/HHcjtvFaQiqLjmlA1VVP51VolbK5ku5HL/uOrjfBfTzbCHx5vhh++XB8JFPkLbi+SDqfqdrvh+fPn0Z49exYODw9Hz+iyZwUAcFeQmHBrNpthe3t7ZBIgynq4qe28CWYiOl6+b4d/HhyHnw5Oov3jbTf83Uz++VE/9HPBIR/neAAA3DGU3ZDgqJv4qC+fh50oOtpht9oJ9010fP/No/D9b76M9mh/5yPBcZno0MRxrVgl0+pU//3sJPxPbpo8/r41iJPKD9v9a802x1rmVdXGgeuNSlhrVKP/TxMdf3y6Gf74ZDMKkHSPDwmPi0hFh4ZT/fzzz+GXX36J/t27dyPBgegAAMiQ2PBMhoZUpaJjY2MjrK6uRlPW46bmw81E2mgDqrfWqf36vhf+8roTfjZ/cDoIJ73zmOHom+DIM/oAAHcStX/K9PbPl0P3bDm0hpVwNKiGd/1aeGN2PKiFzlk1nC99PMZ2kiBawkOmdlbzOrR8rQTIaW8Y987QjuPKcFx3Gxy/P7+InOqjRUa8TrKemTIyGg4W6zRBpVxUqGMsjkGewe9mAAC3Dl90Q0NS9WNNu90OJycnMTt8dHQUWq1WPH+TbejMRMc7Ex2/vO+a6GhH0fH6dBiOc9GhOR3qbOkbAOCucmZtYBQd1iZKdJya6DgeuuioW7kWuufVcJaIjkkEhxMDfGtkNU9cG/+1JTq6Eh3DGOQr8L8J4lXsj9r7WJ9YJwkPExpWD9VNpsnvk4oOURQe0zwbAIC7hsSEZ4mLokO2uKLDOjdNGP/FxMb/vhojOvJhVTd3WwAA5ULtnxbTGGU6zpJMR68ejqLoqITzpcnmcqSoz1AeQ7piYAfKJmSZjmzvDE0wj3M5bqgR1mVUJ10yExwfshya9J5lOjJBMsmuHUXBcRVRBgBwl/BMh0SH5sJJZBwfH4f3799H0eGr/y2c6FB1YwrdKq7ORabOJHY8uQEAwIc2Ue28duzQMuIKvP14NCliWryhNR/3ThpZduwvz4X84qqF7lN10imVRy9OCYIDAOByXFTIy3z58fT8TTET0QEAAOXAuw959SXxOB6oMD+8Ht6/jTq6OdcLAABuBkQHAMCCo7jdLZIfxMD+Bn/FuhBVJbos25GVAQDgrjAT0aEk97KWP1zKlkCMyyBqvG3+GklwAICMUbtof5Ys7NZO5WqI/fgqobh/34h4Qv/zwrxRXWJ9vE6fX6ubHBIAALCo+FBUnwdXnDN4k0NVZyI6mrXlsLdaDV9t18Pv7q+Ex+b31ypho74U16OvmlXsnm7utgAAyoXav7gjuTYJXD4Lq8vDsFkdhJ1aP+zVe2Gz0g+NpUFYOs/G26Zjbi8ltq/6sceuUQmhUV2Om/NpV3DtkaE2unpDjbAuoT5Mph+f9CNUza5dl1m9GtWlWJ9axepkr03S4ek5+KRI2VTPBgDgDuKLb2ivDu3ToT05tD+H9unY2tqKO5NrY8DFEx3WkexE0dEI3+2PER2x8zmPnRAAwF1k2dpAtYM1axMlOtYqw7BRMdFR7YW9Ws/KEh3DsHz+IaieNLBW02rxe9xkT4G8gvvV+nJYb1bDmomOhkSH3nDNxCvYHwmgWB/rYSR2anYgkSExpLrIS4Rog8BJq5UKj1R0qMO8yU4TAGARULvookPiQpsAaidyCQ6ZRMjCio5dEx1fmtj4br8ZRce9tWpYz0VHzTpadSx0CwBwV1H7F0WHZzpMdIwyHbnoaMZMx8dB9STCQ32GLAb51tgqm7BSr4SNuCN4JbbRCv7171pRPfJrxA7P6pJlOkxkWJ1kEhyqj87p9Un6u1RwuBWfC8IDAOADnunQjuRF0bG5uTkX0bFkDfdkP6VdwLuTbnh92AqvzF4ftsOPbzoje3bYi3t1RMs3xwIAuGtUJTZMdNRNcEh0bFc6YbfSDntm9xrD8O3jh+Ebs98+eRj2d7djh1EcezsOteDa98Lt4LQX/vTiNPz5RSv6X99b+3zSCwfR+ha8ayr37FENVU9VVabhXVsr1WibzWr49y/Xwx8eb4Y/PNkIv3+0HrMy+jFKXu+/CIkMrTXv680/f/58ZFpvXtf1ZwUAACGKDbdmsxmHVblJfEhwuN1U2zkT0XHS6YfD0244bJmZf3HcDy+Oemb9uGmgdiTXBoHaGEvrswMA3DWU5YhzOkxwyK8v9cL6ctd8N2zWhuHh/m74wuzR/l7Y2lj7SHBcJjq04V40a2zftvrhr69a4a+v22at8PO7Tnh+aIG62mTz2kdJn/FVpGaFqqg5HFpURGJiw4TG3lptZN8/XAs/PNoIP5j4+NcHa/H9ep8yIxfcXiTNcPT7/fD27duRacMrRAcAwMdoWJUPr5LwkNDQPA6Zsh46769d1MfMkpmIjm5/GNq9QeiYyR91hiNr2WvKbmQbVJnlqXcAgLuEVqmS8FCgXbFyPfRDzUy+aUJEQmNr3cz86kozdgIeTF+EGvC+CQ7t8C1/2B6Ef7zphH++7Zhvh5/M/2TCQ14CRO/J2uPZiQ616uqzfDiV/PZqLXyxUQ8PNjP73f218G9frEXB8e3+Snz/JIJDaGiVm7IdEhraTdd31J1UoAEA3BW8XZRJfGgyubIa8hIaft7bzptgJqIj7nprvdjQTOWBdX4fdia3N5jlDgDgTuJNupbFjeXzoTWeuYWzUM9/carVqqFqHYEH0Jd1BmpXszbXAnJrc487wzikKjMTHiY2fnzdCn87aIcfzXqDM2uX1WZnbffn4rWTmKpWNFcjW61K2Y0vt5tmjfCV+W9MaPz23moUHE/3VuJnLr6zD6ib8nkuPrdD4kNex2nnCgAA1r4m/Ye8t5Fe9vP+nptgJqIDAACmw3+5d/PG3zuF1C4j/sCTW6s3DC+Pe+HVcd+sF/75th3+8qoVTUOu2v1hzIpIfKRDrfL/U6GqWQ2j1z5NjVo2UVwrVD3YqIenuyvhyW5z5LXC4eOdZni41ci/YTLUTaXCw885aWc6yfMCAICbh5+FAADmRCosPFj2ANttEpRl0IRsDWuqWdC/Vq+E7ZVquLdeC/fX62Hf7L6JgH073lmtxb07VvJldCvWC0wymTtFb9X7s2tmK2ZpZaq4YlazGnZWNI8jG1alTIcEh0SIJpVLlFwFfxbF54LIAABYDBAdAABzwIPlVHAID6rTIPsy7Bti8C/RUbeCRIcCfBcbmeAwM689lbSUbrNWicvo6jP2P8tY5N93EfE9qrP9c6GTiQ7fkLAa53Pcs+s92GiER1vN8GTn80RH+izS5+HPLn1+AABQThAdAABzwgNmHxrkTCI0UvRRCYAY/JuQWDVRMcp0uOjYkBDIMx0mDOKu4HbdmO3QF+SXnyZ8l1jRZ+OO4xId+d4gEja6loTGoy0NqWrErEcUHXbdq+CCoyg8UhAfAADlhTkdAABzIA2gU9O8BeGrihQFyWVocni2klW2mtXr436c1+ErWGmex6uTfjgwf3DaD524+uBZnOuhZXft46O5HSqnSGREkWReIkfCJZoJDmU4smxKNqTrq51m+M3eSvh6L/MSJZ6N0WenQc/EJ43L/Jmk8zjcAACgnCA6AADmgDe9qdhwEy465KcJpvW16cRyLaH76kQTy3vhtYmNl0fduI/SSzOdO+pomXMze5+Eh30kig75ourQHhzZXhzZPI71RjXOD5Epu6EJ4g83G+EL819oqdw8yyJTNkRiQ/ci0TINLjjGrVYlE4gOAIByg+gAAJgTqfBIA2vhgsNFx6QBdaYVTMRYQb7dP4vL6B53B9G/MNHx7H03PD/shedWfqOsx2kvvDntx/dI88Rl0OPns+904lCsXHBowrqGcG2b2NheqcUMh5bG1epUWqVKS+ZKlGw0JUqq8XPW5dh96O9k+PPx55KKjnHPBtEBAFBeEB0AAHPEm2Dfd0KmcwqofUfZzwmqle0YDbeygP2FiQ3t3+F7eWh5XQkR+cN2396ffUb+vLCIbhQblaU4AV0TwrPdxuthb70WMxtP8+Vxn5rw2DBBkomUbK7JtKRdkz8XFx0uOGRppgMAAMoLogMAYI54E5wG1sKHDskUUKc2DXHD1lxEaBPBt61+eHPSCwcn5k/78fidmfxJZ2jC5MN8EGU7Rli5Vs1Wx2qYl+jYNGGx1axGv2sC5EGyWpYmlSu74StcTYOeSdEkNtxS0XGVZwIAADcPogMAYM54UO2/5Os4FRkyFx/+y/6kqIWPO5DHa4Rw2huGk65ZZ5B5Oz6V72pOx1noDtyyOSEfOI+CI5s4riV3l8NKPVuxSraulaualbApEWKmiePSGlblqSeO+/NIvcxf0zPwLMe0zwMAAOYDogMAoAS44PAgO8WD66sE2fGb7I+F7fa92SRzz2T4sCvtTq5jiQ0JD7dMdGSfE1Fo1LKNBeWV+aiZENGQq7hsbl6WVzVNLunPxHM4HN1/+jxSXHi56RgAAMoPogMAoASkgsMDbZVlCqzTX/ZnGWgrA6JeIA7DMgGSCY5haPUy0ZF1EJlXhmM1ZjiyTIcyGMpmZKtSxTfOBN2/iw553a+b3797GQAAlB9EBwBACXCx4UIjFSAeZLvw8EB7FgG3egBJCnmJDGU7egPzmtMxEh0ZymJoLocyGRo+pcvHIVT695lVSbuioujQPY8TG24AAFB+EB0AACVATbE3xwq23fyX/qLo8GD7c4PueEX7I3mh0VTDYTbxXKbsR4qvROWrUunS9ld/9P+zKN5/UXT4vcuL9BkAAED5QXQAAJQID74VbLuJcaJjloF37Ajsj8SHeoVo8ZUP6FK6WrxuPJEdzwK/b1kquOT93rWEsN8/AAAsFogOAICSoWa5KDoUaHvAfV3CYx54F+RiY5x30eEGAACLB6IDAKBkeMAtc9GR4sIjFR9+flFIu570fmVF/F7dAABg8aD1BgAoIS4sfEiVUHDuQ47cdC4N4BcJr3t6P+l9fUpcAQDA4oHoAAAoGR5gy1x0qFwM0D1oT23RSOuue3JRJdL7d+EFAACLCcOrAABKSNo0p8G4fCpKLrOy4MIiLbsVBZTq7fM3XHCJMt0PAABMB6IDAKCkePMsr8DcTcfpawrG0yFIXk4D9nnj9S7eg5vX3U11d3PKci8AADA9iA4AgJLjgXkauKdzO4rBejokyc/PC+9ivK5e7/R+RJrZSOs97/oDAMBsYJAsAEDJ8cDbA3MPwj2IH2dpQC/v5ZsivaaXVadxdU7r6qKjDIIJAABmB5kOAIAFIG2qi0F7EQ/Wi6ZAvvi6H6d+Erw+43zRLhNAuq4LKs92+HkAALgdIDoAABYEb649iPfMQXosn5oC92L2oOjdhPtPoe90itcaVy8/J/w64+pRPOfvBwCA2wGiAwBgwVCznVox85GaAvdiFkHm5TTQnyTY9y4jvX5RZOi67r3s15RVq9WPjqe5PgAALCaIDgCABWcwGERTgO9lN+HBfRrkp+YB/6TBvncbLjpkqdgoCg55XVdio1arRe91cQECAAC3G0QHAMCCUwzwUxMSE0Vx4eakXYGXi91D+n5RPNb7x5nq5SIjtVT4AADA7QbRAQCw4Cio9+Be3gWIH4/Dz6fvc+82jlSwyFw0+LG/x/FyKjD8/cXPAQDA7QXRAQCw4KTNuAuGVEAURUXqfViWW/paERcILhYuylykln5G5t+VegAAuN0gOgAAbhlq1r1pT0VEan7ORYd88TX/DicVDiqPEx2fEh+IDACAuw2iAwDgluHNuvw4c0EhS4dipefdUlxwuI0TFzJ/LX2fo2MAALh7IDoAAG4hadOeCohx5VRspOeLuGBIfSou0vPjzgEAwN0F0QEAcEe4rLmftju4SEggMgAAIAXRAQAAAAAA1wqLowMAAAAAwLWC6AAAAAAAgGskhP8DSVIAIZQWWAIAAAAASUVORK5CYII=;" vertex="1" parent="efof93Qg9sC8hvgrrkQ7-21">
          <mxGeometry x="62.210000000000036" y="30" width="167.79" height="20" as="geometry" />
        </mxCell>
        <mxCell id="efof93Qg9sC8hvgrrkQ7-26" value="" style="group" vertex="1" connectable="0" parent="1">
          <mxGeometry x="540" y="380" width="240" height="70" as="geometry" />
        </mxCell>
        <mxCell id="efof93Qg9sC8hvgrrkQ7-27" value="" style="rounded=1;whiteSpace=wrap;html=1;" vertex="1" parent="efof93Qg9sC8hvgrrkQ7-26">
          <mxGeometry width="240" height="70" as="geometry" />
        </mxCell>
        <mxCell id="efof93Qg9sC8hvgrrkQ7-28" value="実験レポート&amp;nbsp; &amp;nbsp; &amp;nbsp; &amp;nbsp; &amp;nbsp; &amp;nbsp; &amp;nbsp; &amp;nbsp; &amp;nbsp; &amp;nbsp; &amp;nbsp; &amp;nbsp; 優先度:10&lt;br&gt;&amp;nbsp; &amp;nbsp;重要度:&lt;br&gt;&amp;nbsp; &amp;nbsp; &amp;nbsp; &amp;nbsp;軽さ:&lt;br&gt;締め切り:2023-10-02 11:59 PM&lt;div style=&quot;border-color: var(--border-color);&quot;&gt;&lt;br style=&quot;border-color: var(--border-color);&quot;&gt;&lt;/div&gt;" style="text;html=1;strokeColor=none;fillColor=none;align=left;verticalAlign=middle;whiteSpace=wrap;rounded=0;" vertex="1" parent="efof93Qg9sC8hvgrrkQ7-26">
          <mxGeometry x="10" y="10" width="220" height="60" as="geometry" />
        </mxCell>
        <mxCell id="efof93Qg9sC8hvgrrkQ7-29" value="" style="shape=image;verticalLabelPosition=bottom;labelBackgroundColor=default;verticalAlign=top;aspect=fixed;imageAspect=0;image=data:image/png,iVBORw0KGgoAAAANSUhEUgAAAx0AAABfCAYAAACN4appAAAAAXNSR0IArs4c6QAAAARnQU1BAACxjwv8YQUAAAAJcEhZcwAAFiUAABYlAUlSJPAAABy8SURBVHhe7Z1pcxvJkYaLxMn7EqWRZiSNZzze3QnP7obX//9HbGyEHWt7bM+hkzp44Qa5+VZ3QqVeiAQokGiQzyMls7pxdHV/qMoXWcfSuREAAAAAAACuieXcAwAAAAAAXAuIDgAAAAAAuFYQHQAAAAAAcK0gOgAAAAAA4FphIjkAwB3nqt3A0tJSXgIAALgYRAcAwC0nbeYnKYtxXUNRZPjxp847iBMAAEB0AADcUsaJitS7pcdOWnaKIkP+U2Vn3DkAALh7IDoAAG4hRQHhx16+yJy0LIrC4lOWvu7l1AMAwN0D0QEAcEsYJxjG+YvM3/MpimJieXn5/52bxgMAwN0A0QEAsOCkYqFoF+GvF/1lXEVA6D2ppecAAOD2g+gAAFhw1IyndnZ2NvKiGOg7sw74dU0nrY/wOqSZkdQAAOB2g+gAAFhwUpHh3k0oqL8o2E/LTvFYFLsLP5Z382Ovi5d1/dT0/WmdAADgdoPoAABYMLzZdp8G+G5+TqTBfdFEWhZpeRz+val3S4+9DvL6zrQexTqJogcAgNsDogMAYEHw5lreg/n0nJOWRRrcu/n51Iu0fBGfum56PrUi6bVTkxhx/D0AALD4IDoAABaAtKmW2EjN8SA9DeKL55y0LIrHk1DsPtJjL8uPsxRdW2LDzetylToBAEA5QXQAACwA3lTLD4fDKDbkZQrO3dLgPQ3gxU0H8Wn34vV1oZTej6hUKiPzexE3XWcAALgeEB0AACVHzbTMg3Uv+7EH6TIXGi46xDwDd9XPvdc5vQ+nWHd5LwMAwOKD6AAAKCnePMunAbufc4qBetHKQCo0xpnwusrrftzKcg8AAHB1EB0AACUkbZoVsKdDqlxMuI0THMJ9GfD7cT9OhPg51TsdbiXKdC8AADA95K0BAErKuKDcTSgQTzMCbjpftiDd6+R1lJhI6+v4/aX3LdwDAMBiQqYDAKBkeLAt8wA89R6sp0G7B+5pAF9m0nv0+3IT6b2l97go9wcAAB+D6AAAKBlpEK7hVH7OGReQi0UKyP1+5P1+U5/ek9+nGwAALB603gAAJcQDcDeRBt9eToPzRUL1dfN7Sk3oGfhcFpUBAGBxIdMBAFAi1CR7sO0mikF5GrRPS2z085Y/zzfYNWNhxKc6hvRqfmmrhRc+en0aXFjIUrElSyeV+70DAMBigegAACgBHnCLNOCW6EizAQq8Pei+iujQJexKubdrWeFM5ZH39+ldHyNxocvpivLL8foffDT7t6w3TInfv5tnOGTpvcuLq9w7AADMD0QHAEAJUFOsANuDbi/LK7hOg24Ptq8mOD4WGkMrRIvXstdyQaLXXXXkLoqJWBfzEhoVi/8rsW5Z+SMRkn9mUlQX97Feiejw+/d7LxoAAJQfRAcAQAnwAFtNsrzwAFyBtQuOVHRMg7f0LjgkMiQ2BrKh/Jkdf3j9zP6MOgcrqJwJDBccS6Eqq2Rexy489L4rVHGE7t9Fh2d63Pz+UwECAADlB9EBAFAC0l/2i82yiw23adBXSUjI61v7piz6JjJ6ue/0z0JnMIy+NzjLRIjZ0F6T+PCa6PMSGLUoNJZD3cqN2nJoVJdDM/c6V9Nr1Q/Cw/5GPw26//R5pLjgcEN0AAAsBogOAIA5o2bYf9V30eG/4rt5gD2p6PCWXYIjG0KVZTckLlr9YWj3Mn/cGZgNw5H5Vm8YhUdPosS8Pqev0XfJJCwkNCQyZBuNSlhvVMNGU74SVutmNfnlKD6U/bD/0U+DP4/Uuwk9gzTzAwAA5QfRAQAwR7wJluBwEx5Qy4oC5DK8VZdkkNhQdkNDqPomIk66mdA4yv2bk354cyrrhaP2ILSV+TBrmyBRxkPfFTMeZismJtZMWKyZwJDtrtbMqmFnrRZ2zG82q2HLbHOlGpomUJQR8SFY08gOFxippYLMBUdxjgsAAJQXRAcAwBzxJngwGIxEhwfW1Wo1eg+qJw2u9ZUWqkcv4RCzF4Pz0DXxcWjC4m2rH961zJvYeHHUNeuFF4fdKD5Oe8NwaoJEJrEiwZGJjvOwboJCWY0oLkxYPNioh/ub9ej31+thz8SHbNdM4qTuQ67MTysL0q7Jn4uekYSHnok/H4kOgfAAACg3iA4AgDnhza+8/5IvL/yXfBcd0wiOOKTKzL4uZiw0fCpmOMyU0Tg46YcD86MsR+4lSDoaelXIdGTf+XGmQ8OpJC72lO1Yq4Y9Ex337Pie+f31WtheqUWBsqHMh5lGWMX7sDpOqg/8+ei5uChLRYeeUZrpQHgAAJQXRAcAwBxIBYdMwbSb8KDaRcekSBz4alQSDUcmON6cmNAwUSGx8eq4F+2l2Ws7f5LP6ZAgaWtOxzDLiijLIeGiasaa2h9lLhrVpdHcjs18PoeExfZKNewr8yHRIR+zH7XoZRpipZWtMotVnRjPdKSiwwWHTERBg+gAACgtiA4AgDngYqNoRdEhmzSYto/HLMdodSoTD8pg/HrYDb++l3XC86NeeG7HMokPDb3SsCt5fU5L5ZobTSLXn7wUV6TKlsbN5mlo3oavXKVshg+1ksj4arsRnuyuhCc7zfB4txnfoyV1/TumQc/EBYdMzyN9NqkBAEA5QXQAAMyBVGik5hSD6svwj0osdCQkNCHc/EsTGT++aYe/H5iZl/h4dtiJXqJDn7Mrjz4/DVF8RBES4spVEhwPNhtRdHy91wzf3V8L3+2vml8NqyZOavmSuhIs0+BiIxUd40zPCwAAygktNADAnBgnNoQC6Glw4aAsh4ZUafUpzeF43x7EuRsSF5owLqGhIVVH7WxpXP/clbGPZkvyaoWs89DqZRPVNW8kDuGKk9SzrIqGd2kIlzIwV6EoMJz02RWfIwAAlAdEBwDAHPAA2UWHbFxgnQbYnyITHCEOi9KyuBIdx91BeN/KJoi/NgGgYVUaXqWy9uToSnS44LhirP7hutmQLu37IdHhc0c0b8RFh+oRRcdg+oulzyJ9HumzAwCAcoPoAACYE+OCZg+siwH2RejjspjpsOBfO4x7pkMrU8VMhwX+z8xipsNFR/65D1efDr+m5oFo4rk2F9R3S2BkmQ6Jjl54ZsLjwK6rfUE+J9Ph3svp80ufIQAAlI+ZzOnwTkdjib3TU4pfpl/e1KPlDgDgTuLyYclawlg+t+D7fGgN6NAa4rNQq1VDrWpmvpqvWJUG2BcR29q8zdX+GnHfjTi0qRd+PGiHP784DX9+mZkml+tf/n9maG64z9fQ3A2tYvV0rxknkz/dbYav91bC11bWXI+vdprxM5ffWYa6Kc3lcK9J5VpC1/ft8PkvmnwPAAAf/0Ajn84T9Plv6XtugpmIjq7Wde8NQsdMXks0uindPjxfiin4aBN3MwAAt4dlC/ErS+cxOK9Yub40CPXQj9ZYPgtb62thayOz1WZj1Bl45/Ap1IDH3caH2RK5Gt7087tO+OltJ/p/vOlE4aFJ5DK9L35ulorDUL+VTSrPJpfvrNbCo61GeJibJpP/Lrdv7q3E99sdRn8ZPoFcJqFxeno6sl6vN+pMvUMFALjrpO2ifpBpNBqhXq9HX6vVRudvst2cieg46fTD4Wk3HLbMzL841i63+qWtH960BkFDeAdnS+Yz8QEAcNeQ4Kia1UxgyK8v98L6ktlyN2zWhuHhvd3wcD8zCQ/vLFx8fAq14HF5XDPNl3jX6oe/vm6Hvx20wt/MS3xoydxn7zOvjMissxxCVfQ9OLQsrvbv0EaB99a1S3k9fP9wLfz+0Xr4wexfHqzl759MeKT7dPT7/fD27duRSXj4s5IBAEAI1Wo1igp5iYz19fWwtrYWbWVlJZ731xZKdLw76YbXh63wyuz1YTv8qF/Wcnt22As9ExzRTHQo6wEAcNeoLp2FhomNuokOZTa2K52wa7ZXbYd7jWH49vHD8M3jL8JvHz8K+7tbHwXSl4kOzc9w09yJP704za0VJ4/HHcjtvFaQiqLjmlA1VVP51VolbK5ku5HL/uOrjfBfTzbCHx5vhh++XB8JFPkLbi+SDqfqdrvh+fPn0Z49exYODw9Hz+iyZwUAcFeQmHBrNpthe3t7ZBIgynq4qe28CWYiOl6+b4d/HhyHnw5Oov3jbTf83Uz++VE/9HPBIR/neAAA3DGU3ZDgqJv4qC+fh50oOtpht9oJ9010fP/No/D9b76M9mh/5yPBcZno0MRxrVgl0+pU//3sJPxPbpo8/r41iJPKD9v9a802x1rmVdXGgeuNSlhrVKP/TxMdf3y6Gf74ZDMKkHSPDwmPi0hFh4ZT/fzzz+GXX36J/t27dyPBgegAAMiQ2PBMhoZUpaJjY2MjrK6uRlPW46bmw81E2mgDqrfWqf36vhf+8roTfjZ/cDoIJ73zmOHom+DIM/oAAHcStX/K9PbPl0P3bDm0hpVwNKiGd/1aeGN2PKiFzlk1nC99PMZ2kiBawkOmdlbzOrR8rQTIaW8Y987QjuPKcFx3Gxy/P7+InOqjRUa8TrKemTIyGg4W6zRBpVxUqGMsjkGewe9mAAC3Dl90Q0NS9WNNu90OJycnMTt8dHQUWq1WPH+TbejMRMc7Ex2/vO+a6GhH0fH6dBiOc9GhOR3qbOkbAOCucmZtYBQd1iZKdJya6DgeuuioW7kWuufVcJaIjkkEhxMDfGtkNU9cG/+1JTq6Eh3DGOQr8L8J4lXsj9r7WJ9YJwkPExpWD9VNpsnvk4oOURQe0zwbAIC7hsSEZ4mLokO2uKLDOjdNGP/FxMb/vhojOvJhVTd3WwAA5ULtnxbTGGU6zpJMR68ejqLoqITzpcnmcqSoz1AeQ7piYAfKJmSZjmzvDE0wj3M5bqgR1mVUJ10yExwfshya9J5lOjJBMsmuHUXBcRVRBgBwl/BMh0SH5sJJZBwfH4f3799H0eGr/y2c6FB1YwrdKq7ORabOJHY8uQEAwIc2Ue28duzQMuIKvP14NCliWryhNR/3ThpZduwvz4X84qqF7lN10imVRy9OCYIDAOByXFTIy3z58fT8TTET0QEAAOXAuw959SXxOB6oMD+8Ht6/jTq6OdcLAABuBkQHAMCCo7jdLZIfxMD+Bn/FuhBVJbos25GVAQDgrjAT0aEk97KWP1zKlkCMyyBqvG3+GklwAICMUbtof5Ys7NZO5WqI/fgqobh/34h4Qv/zwrxRXWJ9vE6fX6ubHBIAALCo+FBUnwdXnDN4k0NVZyI6mrXlsLdaDV9t18Pv7q+Ex+b31ypho74U16OvmlXsnm7utgAAyoXav7gjuTYJXD4Lq8vDsFkdhJ1aP+zVe2Gz0g+NpUFYOs/G26Zjbi8ltq/6sceuUQmhUV2Om/NpV3DtkaE2unpDjbAuoT5Mph+f9CNUza5dl1m9GtWlWJ9axepkr03S4ek5+KRI2VTPBgDgDuKLb2ivDu3ToT05tD+H9unY2tqKO5NrY8DFEx3WkexE0dEI3+2PER2x8zmPnRAAwF1k2dpAtYM1axMlOtYqw7BRMdFR7YW9Ws/KEh3DsHz+IaieNLBW02rxe9xkT4G8gvvV+nJYb1bDmomOhkSH3nDNxCvYHwmgWB/rYSR2anYgkSExpLrIS4Rog8BJq5UKj1R0qMO8yU4TAGARULvookPiQpsAaidyCQ6ZRMjCio5dEx1fmtj4br8ZRce9tWpYz0VHzTpadSx0CwBwV1H7F0WHZzpMdIwyHbnoaMZMx8dB9STCQ32GLAb51tgqm7BSr4SNuCN4JbbRCv7171pRPfJrxA7P6pJlOkxkWJ1kEhyqj87p9Un6u1RwuBWfC8IDAOADnunQjuRF0bG5uTkX0bFkDfdkP6VdwLuTbnh92AqvzF4ftsOPbzoje3bYi3t1RMs3xwIAuGtUJTZMdNRNcEh0bFc6YbfSDntm9xrD8O3jh+Ebs98+eRj2d7djh1EcezsOteDa98Lt4LQX/vTiNPz5RSv6X99b+3zSCwfR+ha8ayr37FENVU9VVabhXVsr1WibzWr49y/Xwx8eb4Y/PNkIv3+0HrMy+jFKXu+/CIkMrTXv680/f/58ZFpvXtf1ZwUAACGKDbdmsxmHVblJfEhwuN1U2zkT0XHS6YfD0244bJmZf3HcDy+Oemb9uGmgdiTXBoHaGEvrswMA3DWU5YhzOkxwyK8v9cL6ctd8N2zWhuHh/m74wuzR/l7Y2lj7SHBcJjq04V40a2zftvrhr69a4a+v22at8PO7Tnh+aIG62mTz2kdJn/FVpGaFqqg5HFpURGJiw4TG3lptZN8/XAs/PNoIP5j4+NcHa/H9ep8yIxfcXiTNcPT7/fD27duRacMrRAcAwMdoWJUPr5LwkNDQPA6Zsh46769d1MfMkpmIjm5/GNq9QeiYyR91hiNr2WvKbmQbVJnlqXcAgLuEVqmS8FCgXbFyPfRDzUy+aUJEQmNr3cz86kozdgIeTF+EGvC+CQ7t8C1/2B6Ef7zphH++7Zhvh5/M/2TCQ14CRO/J2uPZiQ616uqzfDiV/PZqLXyxUQ8PNjP73f218G9frEXB8e3+Snz/JIJDaGiVm7IdEhraTdd31J1UoAEA3BW8XZRJfGgyubIa8hIaft7bzptgJqIj7nprvdjQTOWBdX4fdia3N5jlDgDgTuJNupbFjeXzoTWeuYWzUM9/carVqqFqHYEH0Jd1BmpXszbXAnJrc487wzikKjMTHiY2fnzdCn87aIcfzXqDM2uX1WZnbffn4rWTmKpWNFcjW61K2Y0vt5tmjfCV+W9MaPz23moUHE/3VuJnLr6zD6ib8nkuPrdD4kNex2nnCgAA1r4m/Ye8t5Fe9vP+nptgJqIDAACmw3+5d/PG3zuF1C4j/sCTW6s3DC+Pe+HVcd+sF/75th3+8qoVTUOu2v1hzIpIfKRDrfL/U6GqWQ2j1z5NjVo2UVwrVD3YqIenuyvhyW5z5LXC4eOdZni41ci/YTLUTaXCw885aWc6yfMCAICbh5+FAADmRCosPFj2ANttEpRl0IRsDWuqWdC/Vq+E7ZVquLdeC/fX62Hf7L6JgH073lmtxb07VvJldCvWC0wymTtFb9X7s2tmK2ZpZaq4YlazGnZWNI8jG1alTIcEh0SIJpVLlFwFfxbF54LIAABYDBAdAABzwIPlVHAID6rTIPsy7Bti8C/RUbeCRIcCfBcbmeAwM689lbSUbrNWicvo6jP2P8tY5N93EfE9qrP9c6GTiQ7fkLAa53Pcs+s92GiER1vN8GTn80RH+izS5+HPLn1+AABQThAdAABzwgNmHxrkTCI0UvRRCYAY/JuQWDVRMcp0uOjYkBDIMx0mDOKu4HbdmO3QF+SXnyZ8l1jRZ+OO4xId+d4gEja6loTGoy0NqWrErEcUHXbdq+CCoyg8UhAfAADlhTkdAABzIA2gU9O8BeGrihQFyWVocni2klW2mtXr436c1+ErWGmex6uTfjgwf3DaD524+uBZnOuhZXft46O5HSqnSGREkWReIkfCJZoJDmU4smxKNqTrq51m+M3eSvh6L/MSJZ6N0WenQc/EJ43L/Jmk8zjcAACgnCA6AADmgDe9qdhwEy465KcJpvW16cRyLaH76kQTy3vhtYmNl0fduI/SSzOdO+pomXMze5+Eh30kig75ourQHhzZXhzZPI71RjXOD5Epu6EJ4g83G+EL819oqdw8yyJTNkRiQ/ci0TINLjjGrVYlE4gOAIByg+gAAJgTqfBIA2vhgsNFx6QBdaYVTMRYQb7dP4vL6B53B9G/MNHx7H03PD/shedWfqOsx2kvvDntx/dI88Rl0OPns+904lCsXHBowrqGcG2b2NheqcUMh5bG1epUWqVKS+ZKlGw0JUqq8XPW5dh96O9k+PPx55KKjnHPBtEBAFBeEB0AAHPEm2Dfd0KmcwqofUfZzwmqle0YDbeygP2FiQ3t3+F7eWh5XQkR+cN2396ffUb+vLCIbhQblaU4AV0TwrPdxuthb70WMxtP8+Vxn5rw2DBBkomUbK7JtKRdkz8XFx0uOGRppgMAAMoLogMAYI54E5wG1sKHDskUUKc2DXHD1lxEaBPBt61+eHPSCwcn5k/78fidmfxJZ2jC5MN8EGU7Rli5Vs1Wx2qYl+jYNGGx1axGv2sC5EGyWpYmlSu74StcTYOeSdEkNtxS0XGVZwIAADcPogMAYM54UO2/5Os4FRkyFx/+y/6kqIWPO5DHa4Rw2huGk65ZZ5B5Oz6V72pOx1noDtyyOSEfOI+CI5s4riV3l8NKPVuxSraulaualbApEWKmiePSGlblqSeO+/NIvcxf0zPwLMe0zwMAAOYDogMAoAS44PAgO8WD66sE2fGb7I+F7fa92SRzz2T4sCvtTq5jiQ0JD7dMdGSfE1Fo1LKNBeWV+aiZENGQq7hsbl6WVzVNLunPxHM4HN1/+jxSXHi56RgAAMoPogMAoASkgsMDbZVlCqzTX/ZnGWgrA6JeIA7DMgGSCY5haPUy0ZF1EJlXhmM1ZjiyTIcyGMpmZKtSxTfOBN2/iw553a+b3797GQAAlB9EBwBACXCx4UIjFSAeZLvw8EB7FgG3egBJCnmJDGU7egPzmtMxEh0ZymJoLocyGRo+pcvHIVT695lVSbuioujQPY8TG24AAFB+EB0AACVATbE3xwq23fyX/qLo8GD7c4PueEX7I3mh0VTDYTbxXKbsR4qvROWrUunS9ld/9P+zKN5/UXT4vcuL9BkAAED5QXQAAJQID74VbLuJcaJjloF37Ajsj8SHeoVo8ZUP6FK6WrxuPJEdzwK/b1kquOT93rWEsN8/AAAsFogOAICSoWa5KDoUaHvAfV3CYx54F+RiY5x30eEGAACLB6IDAKBkeMAtc9GR4sIjFR9+flFIu570fmVF/F7dAABg8aD1BgAoIS4sfEiVUHDuQ47cdC4N4BcJr3t6P+l9fUpcAQDA4oHoAAAoGR5gy1x0qFwM0D1oT23RSOuue3JRJdL7d+EFAACLCcOrAABKSNo0p8G4fCpKLrOy4MIiLbsVBZTq7fM3XHCJMt0PAABMB6IDAKCkePMsr8DcTcfpawrG0yFIXk4D9nnj9S7eg5vX3U11d3PKci8AADA9iA4AgJLjgXkauKdzO4rBejokyc/PC+9ivK5e7/R+RJrZSOs97/oDAMBsYJAsAEDJ8cDbA3MPwj2IH2dpQC/v5ZsivaaXVadxdU7r6qKjDIIJAABmB5kOAIAFIG2qi0F7EQ/Wi6ZAvvi6H6d+Erw+43zRLhNAuq4LKs92+HkAALgdIDoAABYEb649iPfMQXosn5oC92L2oOjdhPtPoe90itcaVy8/J/w64+pRPOfvBwCA2wGiAwBgwVCznVox85GaAvdiFkHm5TTQnyTY9y4jvX5RZOi67r3s15RVq9WPjqe5PgAALCaIDgCABWcwGERTgO9lN+HBfRrkp+YB/6TBvncbLjpkqdgoCg55XVdio1arRe91cQECAAC3G0QHAMCCUwzwUxMSE0Vx4eakXYGXi91D+n5RPNb7x5nq5SIjtVT4AADA7QbRAQCw4Cio9+Be3gWIH4/Dz6fvc+82jlSwyFw0+LG/x/FyKjD8/cXPAQDA7QXRAQCw4KTNuAuGVEAURUXqfViWW/paERcILhYuylykln5G5t+VegAAuN0gOgAAbhlq1r1pT0VEan7ORYd88TX/DicVDiqPEx2fEh+IDACAuw2iAwDgluHNuvw4c0EhS4dipefdUlxwuI0TFzJ/LX2fo2MAALh7IDoAAG4hadOeCohx5VRspOeLuGBIfSou0vPjzgEAwN0F0QEAcEe4rLmftju4SEggMgAAIAXRAQAAAAAA1wqLowMAAAAAwLWC6AAAAAAAgGskhP8DSVIAIZQWWAIAAAAASUVORK5CYII=;" vertex="1" parent="efof93Qg9sC8hvgrrkQ7-26">
          <mxGeometry x="62.210000000000036" y="16" width="167.79" height="20" as="geometry" />
        </mxCell>
        <mxCell id="efof93Qg9sC8hvgrrkQ7-30" value="" style="shape=image;verticalLabelPosition=bottom;labelBackgroundColor=default;verticalAlign=top;aspect=fixed;imageAspect=0;image=data:image/png,iVBORw0KGgoAAAANSUhEUgAAAx0AAABfCAYAAACN4appAAAAAXNSR0IArs4c6QAAAARnQU1BAACxjwv8YQUAAAAJcEhZcwAAFiUAABYlAUlSJPAAABy8SURBVHhe7Z1pcxvJkYaLxMn7EqWRZiSNZzze3QnP7obX//9HbGyEHWt7bM+hkzp44Qa5+VZ3QqVeiAQokGiQzyMls7pxdHV/qMoXWcfSuREAAAAAAACuieXcAwAAAAAAXAuIDgAAAAAAuFYQHQAAAAAAcK0gOgAAAAAA4FphIjkAwB3nqt3A0tJSXgIAALgYRAcAwC0nbeYnKYtxXUNRZPjxp847iBMAAEB0AADcUsaJitS7pcdOWnaKIkP+U2Vn3DkAALh7IDoAAG4hRQHhx16+yJy0LIrC4lOWvu7l1AMAwN0D0QEAcEsYJxjG+YvM3/MpimJieXn5/52bxgMAwN0A0QEAsOCkYqFoF+GvF/1lXEVA6D2ppecAAOD2g+gAAFhw1IyndnZ2NvKiGOg7sw74dU0nrY/wOqSZkdQAAOB2g+gAAFhwUpHh3k0oqL8o2E/LTvFYFLsLP5Z382Ovi5d1/dT0/WmdAADgdoPoAABYMLzZdp8G+G5+TqTBfdFEWhZpeRz+val3S4+9DvL6zrQexTqJogcAgNsDogMAYEHw5lreg/n0nJOWRRrcu/n51Iu0fBGfum56PrUi6bVTkxhx/D0AALD4IDoAABaAtKmW2EjN8SA9DeKL55y0LIrHk1DsPtJjL8uPsxRdW2LDzetylToBAEA5QXQAACwA3lTLD4fDKDbkZQrO3dLgPQ3gxU0H8Wn34vV1oZTej6hUKiPzexE3XWcAALgeEB0AACVHzbTMg3Uv+7EH6TIXGi46xDwDd9XPvdc5vQ+nWHd5LwMAwOKD6AAAKCnePMunAbufc4qBetHKQCo0xpnwusrrftzKcg8AAHB1EB0AACUkbZoVsKdDqlxMuI0THMJ9GfD7cT9OhPg51TsdbiXKdC8AADA95K0BAErKuKDcTSgQTzMCbjpftiDd6+R1lJhI6+v4/aX3LdwDAMBiQqYDAKBkeLAt8wA89R6sp0G7B+5pAF9m0nv0+3IT6b2l97go9wcAAB+D6AAAKBlpEK7hVH7OGReQi0UKyP1+5P1+U5/ek9+nGwAALB603gAAJcQDcDeRBt9eToPzRUL1dfN7Sk3oGfhcFpUBAGBxIdMBAFAi1CR7sO0mikF5GrRPS2z085Y/zzfYNWNhxKc6hvRqfmmrhRc+en0aXFjIUrElSyeV+70DAMBigegAACgBHnCLNOCW6EizAQq8Pei+iujQJexKubdrWeFM5ZH39+ldHyNxocvpivLL8foffDT7t6w3TInfv5tnOGTpvcuLq9w7AADMD0QHAEAJUFOsANuDbi/LK7hOg24Ptq8mOD4WGkMrRIvXstdyQaLXXXXkLoqJWBfzEhoVi/8rsW5Z+SMRkn9mUlQX97Feiejw+/d7LxoAAJQfRAcAQAnwAFtNsrzwAFyBtQuOVHRMg7f0LjgkMiQ2BrKh/Jkdf3j9zP6MOgcrqJwJDBccS6Eqq2Rexy489L4rVHGE7t9Fh2d63Pz+UwECAADlB9EBAFAC0l/2i82yiw23adBXSUjI61v7piz6JjJ6ue/0z0JnMIy+NzjLRIjZ0F6T+PCa6PMSGLUoNJZD3cqN2nJoVJdDM/c6V9Nr1Q/Cw/5GPw26//R5pLjgcEN0AAAsBogOAIA5o2bYf9V30eG/4rt5gD2p6PCWXYIjG0KVZTckLlr9YWj3Mn/cGZgNw5H5Vm8YhUdPosS8Pqev0XfJJCwkNCQyZBuNSlhvVMNGU74SVutmNfnlKD6U/bD/0U+DP4/Uuwk9gzTzAwAA5QfRAQAwR7wJluBwEx5Qy4oC5DK8VZdkkNhQdkNDqPomIk66mdA4yv2bk354cyrrhaP2ILSV+TBrmyBRxkPfFTMeZismJtZMWKyZwJDtrtbMqmFnrRZ2zG82q2HLbHOlGpomUJQR8SFY08gOFxippYLMBUdxjgsAAJQXRAcAwBzxJngwGIxEhwfW1Wo1eg+qJw2u9ZUWqkcv4RCzF4Pz0DXxcWjC4m2rH961zJvYeHHUNeuFF4fdKD5Oe8NwaoJEJrEiwZGJjvOwboJCWY0oLkxYPNioh/ub9ej31+thz8SHbNdM4qTuQ67MTysL0q7Jn4uekYSHnok/H4kOgfAAACg3iA4AgDnhza+8/5IvL/yXfBcd0wiOOKTKzL4uZiw0fCpmOMyU0Tg46YcD86MsR+4lSDoaelXIdGTf+XGmQ8OpJC72lO1Yq4Y9Ex337Pie+f31WtheqUWBsqHMh5lGWMX7sDpOqg/8+ei5uChLRYeeUZrpQHgAAJQXRAcAwBxIBYdMwbSb8KDaRcekSBz4alQSDUcmON6cmNAwUSGx8eq4F+2l2Ws7f5LP6ZAgaWtOxzDLiijLIeGiasaa2h9lLhrVpdHcjs18PoeExfZKNewr8yHRIR+zH7XoZRpipZWtMotVnRjPdKSiwwWHTERBg+gAACgtiA4AgDngYqNoRdEhmzSYto/HLMdodSoTD8pg/HrYDb++l3XC86NeeG7HMokPDb3SsCt5fU5L5ZobTSLXn7wUV6TKlsbN5mlo3oavXKVshg+1ksj4arsRnuyuhCc7zfB4txnfoyV1/TumQc/EBYdMzyN9NqkBAEA5QXQAAMyBVGik5hSD6svwj0osdCQkNCHc/EsTGT++aYe/H5iZl/h4dtiJXqJDn7Mrjz4/DVF8RBES4spVEhwPNhtRdHy91wzf3V8L3+2vml8NqyZOavmSuhIs0+BiIxUd40zPCwAAygktNADAnBgnNoQC6Glw4aAsh4ZUafUpzeF43x7EuRsSF5owLqGhIVVH7WxpXP/clbGPZkvyaoWs89DqZRPVNW8kDuGKk9SzrIqGd2kIlzIwV6EoMJz02RWfIwAAlAdEBwDAHPAA2UWHbFxgnQbYnyITHCEOi9KyuBIdx91BeN/KJoi/NgGgYVUaXqWy9uToSnS44LhirP7hutmQLu37IdHhc0c0b8RFh+oRRcdg+oulzyJ9HumzAwCAcoPoAACYE+OCZg+siwH2RejjspjpsOBfO4x7pkMrU8VMhwX+z8xipsNFR/65D1efDr+m5oFo4rk2F9R3S2BkmQ6Jjl54ZsLjwK6rfUE+J9Ph3svp80ufIQAAlI+ZzOnwTkdjib3TU4pfpl/e1KPlDgDgTuLyYclawlg+t+D7fGgN6NAa4rNQq1VDrWpmvpqvWJUG2BcR29q8zdX+GnHfjTi0qRd+PGiHP784DX9+mZkml+tf/n9maG64z9fQ3A2tYvV0rxknkz/dbYav91bC11bWXI+vdprxM5ffWYa6Kc3lcK9J5VpC1/ft8PkvmnwPAAAf/0Ajn84T9Plv6XtugpmIjq7Wde8NQsdMXks0uindPjxfiin4aBN3MwAAt4dlC/ErS+cxOK9Yub40CPXQj9ZYPgtb62thayOz1WZj1Bl45/Ap1IDH3caH2RK5Gt7087tO+OltJ/p/vOlE4aFJ5DK9L35ulorDUL+VTSrPJpfvrNbCo61GeJibJpP/Lrdv7q3E99sdRn8ZPoFcJqFxeno6sl6vN+pMvUMFALjrpO2ifpBpNBqhXq9HX6vVRudvst2cieg46fTD4Wk3HLbMzL841i63+qWtH960BkFDeAdnS+Yz8QEAcNeQ4Kia1UxgyK8v98L6ktlyN2zWhuHhvd3wcD8zCQ/vLFx8fAq14HF5XDPNl3jX6oe/vm6Hvx20wt/MS3xoydxn7zOvjMissxxCVfQ9OLQsrvbv0EaB99a1S3k9fP9wLfz+0Xr4wexfHqzl759MeKT7dPT7/fD27duRSXj4s5IBAEAI1Wo1igp5iYz19fWwtrYWbWVlJZ731xZKdLw76YbXh63wyuz1YTv8qF/Wcnt22As9ExzRTHQo6wEAcNeoLp2FhomNuokOZTa2K52wa7ZXbYd7jWH49vHD8M3jL8JvHz8K+7tbHwXSl4kOzc9w09yJP704za0VJ4/HHcjtvFaQiqLjmlA1VVP51VolbK5ku5HL/uOrjfBfTzbCHx5vhh++XB8JFPkLbi+SDqfqdrvh+fPn0Z49exYODw9Hz+iyZwUAcFeQmHBrNpthe3t7ZBIgynq4qe28CWYiOl6+b4d/HhyHnw5Oov3jbTf83Uz++VE/9HPBIR/neAAA3DGU3ZDgqJv4qC+fh50oOtpht9oJ9010fP/No/D9b76M9mh/5yPBcZno0MRxrVgl0+pU//3sJPxPbpo8/r41iJPKD9v9a802x1rmVdXGgeuNSlhrVKP/TxMdf3y6Gf74ZDMKkHSPDwmPi0hFh4ZT/fzzz+GXX36J/t27dyPBgegAAMiQ2PBMhoZUpaJjY2MjrK6uRlPW46bmw81E2mgDqrfWqf36vhf+8roTfjZ/cDoIJ73zmOHom+DIM/oAAHcStX/K9PbPl0P3bDm0hpVwNKiGd/1aeGN2PKiFzlk1nC99PMZ2kiBawkOmdlbzOrR8rQTIaW8Y987QjuPKcFx3Gxy/P7+InOqjRUa8TrKemTIyGg4W6zRBpVxUqGMsjkGewe9mAAC3Dl90Q0NS9WNNu90OJycnMTt8dHQUWq1WPH+TbejMRMc7Ex2/vO+a6GhH0fH6dBiOc9GhOR3qbOkbAOCucmZtYBQd1iZKdJya6DgeuuioW7kWuufVcJaIjkkEhxMDfGtkNU9cG/+1JTq6Eh3DGOQr8L8J4lXsj9r7WJ9YJwkPExpWD9VNpsnvk4oOURQe0zwbAIC7hsSEZ4mLokO2uKLDOjdNGP/FxMb/vhojOvJhVTd3WwAA5ULtnxbTGGU6zpJMR68ejqLoqITzpcnmcqSoz1AeQ7piYAfKJmSZjmzvDE0wj3M5bqgR1mVUJ10yExwfshya9J5lOjJBMsmuHUXBcRVRBgBwl/BMh0SH5sJJZBwfH4f3799H0eGr/y2c6FB1YwrdKq7ORabOJHY8uQEAwIc2Ue28duzQMuIKvP14NCliWryhNR/3ThpZduwvz4X84qqF7lN10imVRy9OCYIDAOByXFTIy3z58fT8TTET0QEAAOXAuw959SXxOB6oMD+8Ht6/jTq6OdcLAABuBkQHAMCCo7jdLZIfxMD+Bn/FuhBVJbos25GVAQDgrjAT0aEk97KWP1zKlkCMyyBqvG3+GklwAICMUbtof5Ys7NZO5WqI/fgqobh/34h4Qv/zwrxRXWJ9vE6fX6ubHBIAALCo+FBUnwdXnDN4k0NVZyI6mrXlsLdaDV9t18Pv7q+Ex+b31ypho74U16OvmlXsnm7utgAAyoXav7gjuTYJXD4Lq8vDsFkdhJ1aP+zVe2Gz0g+NpUFYOs/G26Zjbi8ltq/6sceuUQmhUV2Om/NpV3DtkaE2unpDjbAuoT5Mph+f9CNUza5dl1m9GtWlWJ9axepkr03S4ek5+KRI2VTPBgDgDuKLb2ivDu3ToT05tD+H9unY2tqKO5NrY8DFEx3WkexE0dEI3+2PER2x8zmPnRAAwF1k2dpAtYM1axMlOtYqw7BRMdFR7YW9Ws/KEh3DsHz+IaieNLBW02rxe9xkT4G8gvvV+nJYb1bDmomOhkSH3nDNxCvYHwmgWB/rYSR2anYgkSExpLrIS4Rog8BJq5UKj1R0qMO8yU4TAGARULvookPiQpsAaidyCQ6ZRMjCio5dEx1fmtj4br8ZRce9tWpYz0VHzTpadSx0CwBwV1H7F0WHZzpMdIwyHbnoaMZMx8dB9STCQ32GLAb51tgqm7BSr4SNuCN4JbbRCv7171pRPfJrxA7P6pJlOkxkWJ1kEhyqj87p9Un6u1RwuBWfC8IDAOADnunQjuRF0bG5uTkX0bFkDfdkP6VdwLuTbnh92AqvzF4ftsOPbzoje3bYi3t1RMs3xwIAuGtUJTZMdNRNcEh0bFc6YbfSDntm9xrD8O3jh+Ebs98+eRj2d7djh1EcezsOteDa98Lt4LQX/vTiNPz5RSv6X99b+3zSCwfR+ha8ayr37FENVU9VVabhXVsr1WibzWr49y/Xwx8eb4Y/PNkIv3+0HrMy+jFKXu+/CIkMrTXv680/f/58ZFpvXtf1ZwUAACGKDbdmsxmHVblJfEhwuN1U2zkT0XHS6YfD0244bJmZf3HcDy+Oemb9uGmgdiTXBoHaGEvrswMA3DWU5YhzOkxwyK8v9cL6ctd8N2zWhuHh/m74wuzR/l7Y2lj7SHBcJjq04V40a2zftvrhr69a4a+v22at8PO7Tnh+aIG62mTz2kdJn/FVpGaFqqg5HFpURGJiw4TG3lptZN8/XAs/PNoIP5j4+NcHa/H9ep8yIxfcXiTNcPT7/fD27duRacMrRAcAwMdoWJUPr5LwkNDQPA6Zsh46769d1MfMkpmIjm5/GNq9QeiYyR91hiNr2WvKbmQbVJnlqXcAgLuEVqmS8FCgXbFyPfRDzUy+aUJEQmNr3cz86kozdgIeTF+EGvC+CQ7t8C1/2B6Ef7zphH++7Zhvh5/M/2TCQ14CRO/J2uPZiQ616uqzfDiV/PZqLXyxUQ8PNjP73f218G9frEXB8e3+Snz/JIJDaGiVm7IdEhraTdd31J1UoAEA3BW8XZRJfGgyubIa8hIaft7bzptgJqIj7nprvdjQTOWBdX4fdia3N5jlDgDgTuJNupbFjeXzoTWeuYWzUM9/carVqqFqHYEH0Jd1BmpXszbXAnJrc487wzikKjMTHiY2fnzdCn87aIcfzXqDM2uX1WZnbffn4rWTmKpWNFcjW61K2Y0vt5tmjfCV+W9MaPz23moUHE/3VuJnLr6zD6ib8nkuPrdD4kNex2nnCgAA1r4m/Ye8t5Fe9vP+nptgJqIDAACmw3+5d/PG3zuF1C4j/sCTW6s3DC+Pe+HVcd+sF/75th3+8qoVTUOu2v1hzIpIfKRDrfL/U6GqWQ2j1z5NjVo2UVwrVD3YqIenuyvhyW5z5LXC4eOdZni41ci/YTLUTaXCw885aWc6yfMCAICbh5+FAADmRCosPFj2ANttEpRl0IRsDWuqWdC/Vq+E7ZVquLdeC/fX62Hf7L6JgH073lmtxb07VvJldCvWC0wymTtFb9X7s2tmK2ZpZaq4YlazGnZWNI8jG1alTIcEh0SIJpVLlFwFfxbF54LIAABYDBAdAABzwIPlVHAID6rTIPsy7Bti8C/RUbeCRIcCfBcbmeAwM689lbSUbrNWicvo6jP2P8tY5N93EfE9qrP9c6GTiQ7fkLAa53Pcs+s92GiER1vN8GTn80RH+izS5+HPLn1+AABQThAdAABzwgNmHxrkTCI0UvRRCYAY/JuQWDVRMcp0uOjYkBDIMx0mDOKu4HbdmO3QF+SXnyZ8l1jRZ+OO4xId+d4gEja6loTGoy0NqWrErEcUHXbdq+CCoyg8UhAfAADlhTkdAABzIA2gU9O8BeGrihQFyWVocni2klW2mtXr436c1+ErWGmex6uTfjgwf3DaD524+uBZnOuhZXft46O5HSqnSGREkWReIkfCJZoJDmU4smxKNqTrq51m+M3eSvh6L/MSJZ6N0WenQc/EJ43L/Jmk8zjcAACgnCA6AADmgDe9qdhwEy465KcJpvW16cRyLaH76kQTy3vhtYmNl0fduI/SSzOdO+pomXMze5+Eh30kig75ourQHhzZXhzZPI71RjXOD5Epu6EJ4g83G+EL819oqdw8yyJTNkRiQ/ci0TINLjjGrVYlE4gOAIByg+gAAJgTqfBIA2vhgsNFx6QBdaYVTMRYQb7dP4vL6B53B9G/MNHx7H03PD/shedWfqOsx2kvvDntx/dI88Rl0OPns+904lCsXHBowrqGcG2b2NheqcUMh5bG1epUWqVKS+ZKlGw0JUqq8XPW5dh96O9k+PPx55KKjnHPBtEBAFBeEB0AAHPEm2Dfd0KmcwqofUfZzwmqle0YDbeygP2FiQ3t3+F7eWh5XQkR+cN2396ffUb+vLCIbhQblaU4AV0TwrPdxuthb70WMxtP8+Vxn5rw2DBBkomUbK7JtKRdkz8XFx0uOGRppgMAAMoLogMAYI54E5wG1sKHDskUUKc2DXHD1lxEaBPBt61+eHPSCwcn5k/78fidmfxJZ2jC5MN8EGU7Rli5Vs1Wx2qYl+jYNGGx1axGv2sC5EGyWpYmlSu74StcTYOeSdEkNtxS0XGVZwIAADcPogMAYM54UO2/5Os4FRkyFx/+y/6kqIWPO5DHa4Rw2huGk65ZZ5B5Oz6V72pOx1noDtyyOSEfOI+CI5s4riV3l8NKPVuxSraulaualbApEWKmiePSGlblqSeO+/NIvcxf0zPwLMe0zwMAAOYDogMAoAS44PAgO8WD66sE2fGb7I+F7fa92SRzz2T4sCvtTq5jiQ0JD7dMdGSfE1Fo1LKNBeWV+aiZENGQq7hsbl6WVzVNLunPxHM4HN1/+jxSXHi56RgAAMoPogMAoASkgsMDbZVlCqzTX/ZnGWgrA6JeIA7DMgGSCY5haPUy0ZF1EJlXhmM1ZjiyTIcyGMpmZKtSxTfOBN2/iw553a+b3797GQAAlB9EBwBACXCx4UIjFSAeZLvw8EB7FgG3egBJCnmJDGU7egPzmtMxEh0ZymJoLocyGRo+pcvHIVT695lVSbuioujQPY8TG24AAFB+EB0AACVATbE3xwq23fyX/qLo8GD7c4PueEX7I3mh0VTDYTbxXKbsR4qvROWrUunS9ld/9P+zKN5/UXT4vcuL9BkAAED5QXQAAJQID74VbLuJcaJjloF37Ajsj8SHeoVo8ZUP6FK6WrxuPJEdzwK/b1kquOT93rWEsN8/AAAsFogOAICSoWa5KDoUaHvAfV3CYx54F+RiY5x30eEGAACLB6IDAKBkeMAtc9GR4sIjFR9+flFIu570fmVF/F7dAABg8aD1BgAoIS4sfEiVUHDuQ47cdC4N4BcJr3t6P+l9fUpcAQDA4oHoAAAoGR5gy1x0qFwM0D1oT23RSOuue3JRJdL7d+EFAACLCcOrAABKSNo0p8G4fCpKLrOy4MIiLbsVBZTq7fM3XHCJMt0PAABMB6IDAKCkePMsr8DcTcfpawrG0yFIXk4D9nnj9S7eg5vX3U11d3PKci8AADA9iA4AgJLjgXkauKdzO4rBejokyc/PC+9ivK5e7/R+RJrZSOs97/oDAMBsYJAsAEDJ8cDbA3MPwj2IH2dpQC/v5ZsivaaXVadxdU7r6qKjDIIJAABmB5kOAIAFIG2qi0F7EQ/Wi6ZAvvi6H6d+Erw+43zRLhNAuq4LKs92+HkAALgdIDoAABYEb649iPfMQXosn5oC92L2oOjdhPtPoe90itcaVy8/J/w64+pRPOfvBwCA2wGiAwBgwVCznVox85GaAvdiFkHm5TTQnyTY9y4jvX5RZOi67r3s15RVq9WPjqe5PgAALCaIDgCABWcwGERTgO9lN+HBfRrkp+YB/6TBvncbLjpkqdgoCg55XVdio1arRe91cQECAAC3G0QHAMCCUwzwUxMSE0Vx4eakXYGXi91D+n5RPNb7x5nq5SIjtVT4AADA7QbRAQCw4Cio9+Be3gWIH4/Dz6fvc+82jlSwyFw0+LG/x/FyKjD8/cXPAQDA7QXRAQCw4KTNuAuGVEAURUXqfViWW/paERcILhYuylykln5G5t+VegAAuN0gOgAAbhlq1r1pT0VEan7ORYd88TX/DicVDiqPEx2fEh+IDACAuw2iAwDgluHNuvw4c0EhS4dipefdUlxwuI0TFzJ/LX2fo2MAALh7IDoAAG4hadOeCohx5VRspOeLuGBIfSou0vPjzgEAwN0F0QEAcEe4rLmftju4SEggMgAAIAXRAQAAAAAA1wqLowMAAAAAwLWC6AAAAAAAgGskhP8DSVIAIZQWWAIAAAAASUVORK5CYII=;" vertex="1" parent="efof93Qg9sC8hvgrrkQ7-26">
          <mxGeometry x="62.210000000000036" y="30" width="167.79" height="20" as="geometry" />
        </mxCell>
        <mxCell id="efof93Qg9sC8hvgrrkQ7-31" value="" style="group" vertex="1" connectable="0" parent="1">
          <mxGeometry x="540" y="460" width="240" height="70" as="geometry" />
        </mxCell>
        <mxCell id="efof93Qg9sC8hvgrrkQ7-32" value="" style="rounded=1;whiteSpace=wrap;html=1;" vertex="1" parent="efof93Qg9sC8hvgrrkQ7-31">
          <mxGeometry width="240" height="70" as="geometry" />
        </mxCell>
        <mxCell id="efof93Qg9sC8hvgrrkQ7-33" value="実験レポート&amp;nbsp; &amp;nbsp; &amp;nbsp; &amp;nbsp; &amp;nbsp; &amp;nbsp; &amp;nbsp; &amp;nbsp; &amp;nbsp; &amp;nbsp; &amp;nbsp; &amp;nbsp; 優先度:10&lt;br&gt;&amp;nbsp; &amp;nbsp;重要度:&lt;br&gt;&amp;nbsp; &amp;nbsp; &amp;nbsp; &amp;nbsp;軽さ:&lt;br&gt;締め切り:2023-10-02 11:59 PM&lt;div style=&quot;border-color: var(--border-color);&quot;&gt;&lt;br style=&quot;border-color: var(--border-color);&quot;&gt;&lt;/div&gt;" style="text;html=1;strokeColor=none;fillColor=none;align=left;verticalAlign=middle;whiteSpace=wrap;rounded=0;" vertex="1" parent="efof93Qg9sC8hvgrrkQ7-31">
          <mxGeometry x="10" y="10" width="220" height="60" as="geometry" />
        </mxCell>
        <mxCell id="efof93Qg9sC8hvgrrkQ7-34" value="" style="shape=image;verticalLabelPosition=bottom;labelBackgroundColor=default;verticalAlign=top;aspect=fixed;imageAspect=0;image=data:image/png,iVBORw0KGgoAAAANSUhEUgAAAx0AAABfCAYAAACN4appAAAAAXNSR0IArs4c6QAAAARnQU1BAACxjwv8YQUAAAAJcEhZcwAAFiUAABYlAUlSJPAAABy8SURBVHhe7Z1pcxvJkYaLxMn7EqWRZiSNZzze3QnP7obX//9HbGyEHWt7bM+hkzp44Qa5+VZ3QqVeiAQokGiQzyMls7pxdHV/qMoXWcfSuREAAAAAAACuieXcAwAAAAAAXAuIDgAAAAAAuFYQHQAAAAAAcK0gOgAAAAAA4FphIjkAwB3nqt3A0tJSXgIAALgYRAcAwC0nbeYnKYtxXUNRZPjxp847iBMAAEB0AADcUsaJitS7pcdOWnaKIkP+U2Vn3DkAALh7IDoAAG4hRQHhx16+yJy0LIrC4lOWvu7l1AMAwN0D0QEAcEsYJxjG+YvM3/MpimJieXn5/52bxgMAwN0A0QEAsOCkYqFoF+GvF/1lXEVA6D2ppecAAOD2g+gAAFhw1IyndnZ2NvKiGOg7sw74dU0nrY/wOqSZkdQAAOB2g+gAAFhwUpHh3k0oqL8o2E/LTvFYFLsLP5Z382Ovi5d1/dT0/WmdAADgdoPoAABYMLzZdp8G+G5+TqTBfdFEWhZpeRz+val3S4+9DvL6zrQexTqJogcAgNsDogMAYEHw5lreg/n0nJOWRRrcu/n51Iu0fBGfum56PrUi6bVTkxhx/D0AALD4IDoAABaAtKmW2EjN8SA9DeKL55y0LIrHk1DsPtJjL8uPsxRdW2LDzetylToBAEA5QXQAACwA3lTLD4fDKDbkZQrO3dLgPQ3gxU0H8Wn34vV1oZTej6hUKiPzexE3XWcAALgeEB0AACVHzbTMg3Uv+7EH6TIXGi46xDwDd9XPvdc5vQ+nWHd5LwMAwOKD6AAAKCnePMunAbufc4qBetHKQCo0xpnwusrrftzKcg8AAHB1EB0AACUkbZoVsKdDqlxMuI0THMJ9GfD7cT9OhPg51TsdbiXKdC8AADA95K0BAErKuKDcTSgQTzMCbjpftiDd6+R1lJhI6+v4/aX3LdwDAMBiQqYDAKBkeLAt8wA89R6sp0G7B+5pAF9m0nv0+3IT6b2l97go9wcAAB+D6AAAKBlpEK7hVH7OGReQi0UKyP1+5P1+U5/ek9+nGwAALB603gAAJcQDcDeRBt9eToPzRUL1dfN7Sk3oGfhcFpUBAGBxIdMBAFAi1CR7sO0mikF5GrRPS2z085Y/zzfYNWNhxKc6hvRqfmmrhRc+en0aXFjIUrElSyeV+70DAMBigegAACgBHnCLNOCW6EizAQq8Pei+iujQJexKubdrWeFM5ZH39+ldHyNxocvpivLL8foffDT7t6w3TInfv5tnOGTpvcuLq9w7AADMD0QHAEAJUFOsANuDbi/LK7hOg24Ptq8mOD4WGkMrRIvXstdyQaLXXXXkLoqJWBfzEhoVi/8rsW5Z+SMRkn9mUlQX97Feiejw+/d7LxoAAJQfRAcAQAnwAFtNsrzwAFyBtQuOVHRMg7f0LjgkMiQ2BrKh/Jkdf3j9zP6MOgcrqJwJDBccS6Eqq2Rexy489L4rVHGE7t9Fh2d63Pz+UwECAADlB9EBAFAC0l/2i82yiw23adBXSUjI61v7piz6JjJ6ue/0z0JnMIy+NzjLRIjZ0F6T+PCa6PMSGLUoNJZD3cqN2nJoVJdDM/c6V9Nr1Q/Cw/5GPw26//R5pLjgcEN0AAAsBogOAIA5o2bYf9V30eG/4rt5gD2p6PCWXYIjG0KVZTckLlr9YWj3Mn/cGZgNw5H5Vm8YhUdPosS8Pqev0XfJJCwkNCQyZBuNSlhvVMNGU74SVutmNfnlKD6U/bD/0U+DP4/Uuwk9gzTzAwAA5QfRAQAwR7wJluBwEx5Qy4oC5DK8VZdkkNhQdkNDqPomIk66mdA4yv2bk354cyrrhaP2ILSV+TBrmyBRxkPfFTMeZismJtZMWKyZwJDtrtbMqmFnrRZ2zG82q2HLbHOlGpomUJQR8SFY08gOFxippYLMBUdxjgsAAJQXRAcAwBzxJngwGIxEhwfW1Wo1eg+qJw2u9ZUWqkcv4RCzF4Pz0DXxcWjC4m2rH961zJvYeHHUNeuFF4fdKD5Oe8NwaoJEJrEiwZGJjvOwboJCWY0oLkxYPNioh/ub9ej31+thz8SHbNdM4qTuQ67MTysL0q7Jn4uekYSHnok/H4kOgfAAACg3iA4AgDnhza+8/5IvL/yXfBcd0wiOOKTKzL4uZiw0fCpmOMyU0Tg46YcD86MsR+4lSDoaelXIdGTf+XGmQ8OpJC72lO1Yq4Y9Ex337Pie+f31WtheqUWBsqHMh5lGWMX7sDpOqg/8+ei5uChLRYeeUZrpQHgAAJQXRAcAwBxIBYdMwbSb8KDaRcekSBz4alQSDUcmON6cmNAwUSGx8eq4F+2l2Ws7f5LP6ZAgaWtOxzDLiijLIeGiasaa2h9lLhrVpdHcjs18PoeExfZKNewr8yHRIR+zH7XoZRpipZWtMotVnRjPdKSiwwWHTERBg+gAACgtiA4AgDngYqNoRdEhmzSYto/HLMdodSoTD8pg/HrYDb++l3XC86NeeG7HMokPDb3SsCt5fU5L5ZobTSLXn7wUV6TKlsbN5mlo3oavXKVshg+1ksj4arsRnuyuhCc7zfB4txnfoyV1/TumQc/EBYdMzyN9NqkBAEA5QXQAAMyBVGik5hSD6svwj0osdCQkNCHc/EsTGT++aYe/H5iZl/h4dtiJXqJDn7Mrjz4/DVF8RBES4spVEhwPNhtRdHy91wzf3V8L3+2vml8NqyZOavmSuhIs0+BiIxUd40zPCwAAygktNADAnBgnNoQC6Glw4aAsh4ZUafUpzeF43x7EuRsSF5owLqGhIVVH7WxpXP/clbGPZkvyaoWs89DqZRPVNW8kDuGKk9SzrIqGd2kIlzIwV6EoMJz02RWfIwAAlAdEBwDAHPAA2UWHbFxgnQbYnyITHCEOi9KyuBIdx91BeN/KJoi/NgGgYVUaXqWy9uToSnS44LhirP7hutmQLu37IdHhc0c0b8RFh+oRRcdg+oulzyJ9HumzAwCAcoPoAACYE+OCZg+siwH2RejjspjpsOBfO4x7pkMrU8VMhwX+z8xipsNFR/65D1efDr+m5oFo4rk2F9R3S2BkmQ6Jjl54ZsLjwK6rfUE+J9Ph3svp80ufIQAAlI+ZzOnwTkdjib3TU4pfpl/e1KPlDgDgTuLyYclawlg+t+D7fGgN6NAa4rNQq1VDrWpmvpqvWJUG2BcR29q8zdX+GnHfjTi0qRd+PGiHP784DX9+mZkml+tf/n9maG64z9fQ3A2tYvV0rxknkz/dbYav91bC11bWXI+vdprxM5ffWYa6Kc3lcK9J5VpC1/ft8PkvmnwPAAAf/0Ajn84T9Plv6XtugpmIjq7Wde8NQsdMXks0uindPjxfiin4aBN3MwAAt4dlC/ErS+cxOK9Yub40CPXQj9ZYPgtb62thayOz1WZj1Bl45/Ap1IDH3caH2RK5Gt7087tO+OltJ/p/vOlE4aFJ5DK9L35ulorDUL+VTSrPJpfvrNbCo61GeJibJpP/Lrdv7q3E99sdRn8ZPoFcJqFxeno6sl6vN+pMvUMFALjrpO2ifpBpNBqhXq9HX6vVRudvst2cieg46fTD4Wk3HLbMzL841i63+qWtH960BkFDeAdnS+Yz8QEAcNeQ4Kia1UxgyK8v98L6ktlyN2zWhuHhvd3wcD8zCQ/vLFx8fAq14HF5XDPNl3jX6oe/vm6Hvx20wt/MS3xoydxn7zOvjMissxxCVfQ9OLQsrvbv0EaB99a1S3k9fP9wLfz+0Xr4wexfHqzl759MeKT7dPT7/fD27duRSXj4s5IBAEAI1Wo1igp5iYz19fWwtrYWbWVlJZ731xZKdLw76YbXh63wyuz1YTv8qF/Wcnt22As9ExzRTHQo6wEAcNeoLp2FhomNuokOZTa2K52wa7ZXbYd7jWH49vHD8M3jL8JvHz8K+7tbHwXSl4kOzc9w09yJP704za0VJ4/HHcjtvFaQiqLjmlA1VVP51VolbK5ku5HL/uOrjfBfTzbCHx5vhh++XB8JFPkLbi+SDqfqdrvh+fPn0Z49exYODw9Hz+iyZwUAcFeQmHBrNpthe3t7ZBIgynq4qe28CWYiOl6+b4d/HhyHnw5Oov3jbTf83Uz++VE/9HPBIR/neAAA3DGU3ZDgqJv4qC+fh50oOtpht9oJ9010fP/No/D9b76M9mh/5yPBcZno0MRxrVgl0+pU//3sJPxPbpo8/r41iJPKD9v9a802x1rmVdXGgeuNSlhrVKP/TxMdf3y6Gf74ZDMKkHSPDwmPi0hFh4ZT/fzzz+GXX36J/t27dyPBgegAAMiQ2PBMhoZUpaJjY2MjrK6uRlPW46bmw81E2mgDqrfWqf36vhf+8roTfjZ/cDoIJ73zmOHom+DIM/oAAHcStX/K9PbPl0P3bDm0hpVwNKiGd/1aeGN2PKiFzlk1nC99PMZ2kiBawkOmdlbzOrR8rQTIaW8Y987QjuPKcFx3Gxy/P7+InOqjRUa8TrKemTIyGg4W6zRBpVxUqGMsjkGewe9mAAC3Dl90Q0NS9WNNu90OJycnMTt8dHQUWq1WPH+TbejMRMc7Ex2/vO+a6GhH0fH6dBiOc9GhOR3qbOkbAOCucmZtYBQd1iZKdJya6DgeuuioW7kWuufVcJaIjkkEhxMDfGtkNU9cG/+1JTq6Eh3DGOQr8L8J4lXsj9r7WJ9YJwkPExpWD9VNpsnvk4oOURQe0zwbAIC7hsSEZ4mLokO2uKLDOjdNGP/FxMb/vhojOvJhVTd3WwAA5ULtnxbTGGU6zpJMR68ejqLoqITzpcnmcqSoz1AeQ7piYAfKJmSZjmzvDE0wj3M5bqgR1mVUJ10yExwfshya9J5lOjJBMsmuHUXBcRVRBgBwl/BMh0SH5sJJZBwfH4f3799H0eGr/y2c6FB1YwrdKq7ORabOJHY8uQEAwIc2Ue28duzQMuIKvP14NCliWryhNR/3ThpZduwvz4X84qqF7lN10imVRy9OCYIDAOByXFTIy3z58fT8TTET0QEAAOXAuw959SXxOB6oMD+8Ht6/jTq6OdcLAABuBkQHAMCCo7jdLZIfxMD+Bn/FuhBVJbos25GVAQDgrjAT0aEk97KWP1zKlkCMyyBqvG3+GklwAICMUbtof5Ys7NZO5WqI/fgqobh/34h4Qv/zwrxRXWJ9vE6fX6ubHBIAALCo+FBUnwdXnDN4k0NVZyI6mrXlsLdaDV9t18Pv7q+Ex+b31ypho74U16OvmlXsnm7utgAAyoXav7gjuTYJXD4Lq8vDsFkdhJ1aP+zVe2Gz0g+NpUFYOs/G26Zjbi8ltq/6sceuUQmhUV2Om/NpV3DtkaE2unpDjbAuoT5Mph+f9CNUza5dl1m9GtWlWJ9axepkr03S4ek5+KRI2VTPBgDgDuKLb2ivDu3ToT05tD+H9unY2tqKO5NrY8DFEx3WkexE0dEI3+2PER2x8zmPnRAAwF1k2dpAtYM1axMlOtYqw7BRMdFR7YW9Ws/KEh3DsHz+IaieNLBW02rxe9xkT4G8gvvV+nJYb1bDmomOhkSH3nDNxCvYHwmgWB/rYSR2anYgkSExpLrIS4Rog8BJq5UKj1R0qMO8yU4TAGARULvookPiQpsAaidyCQ6ZRMjCio5dEx1fmtj4br8ZRce9tWpYz0VHzTpadSx0CwBwV1H7F0WHZzpMdIwyHbnoaMZMx8dB9STCQ32GLAb51tgqm7BSr4SNuCN4JbbRCv7171pRPfJrxA7P6pJlOkxkWJ1kEhyqj87p9Un6u1RwuBWfC8IDAOADnunQjuRF0bG5uTkX0bFkDfdkP6VdwLuTbnh92AqvzF4ftsOPbzoje3bYi3t1RMs3xwIAuGtUJTZMdNRNcEh0bFc6YbfSDntm9xrD8O3jh+Ebs98+eRj2d7djh1EcezsOteDa98Lt4LQX/vTiNPz5RSv6X99b+3zSCwfR+ha8ayr37FENVU9VVabhXVsr1WibzWr49y/Xwx8eb4Y/PNkIv3+0HrMy+jFKXu+/CIkMrTXv680/f/58ZFpvXtf1ZwUAACGKDbdmsxmHVblJfEhwuN1U2zkT0XHS6YfD0244bJmZf3HcDy+Oemb9uGmgdiTXBoHaGEvrswMA3DWU5YhzOkxwyK8v9cL6ctd8N2zWhuHh/m74wuzR/l7Y2lj7SHBcJjq04V40a2zftvrhr69a4a+v22at8PO7Tnh+aIG62mTz2kdJn/FVpGaFqqg5HFpURGJiw4TG3lptZN8/XAs/PNoIP5j4+NcHa/H9ep8yIxfcXiTNcPT7/fD27duRacMrRAcAwMdoWJUPr5LwkNDQPA6Zsh46769d1MfMkpmIjm5/GNq9QeiYyR91hiNr2WvKbmQbVJnlqXcAgLuEVqmS8FCgXbFyPfRDzUy+aUJEQmNr3cz86kozdgIeTF+EGvC+CQ7t8C1/2B6Ef7zphH++7Zhvh5/M/2TCQ14CRO/J2uPZiQ616uqzfDiV/PZqLXyxUQ8PNjP73f218G9frEXB8e3+Snz/JIJDaGiVm7IdEhraTdd31J1UoAEA3BW8XZRJfGgyubIa8hIaft7bzptgJqIj7nprvdjQTOWBdX4fdia3N5jlDgDgTuJNupbFjeXzoTWeuYWzUM9/carVqqFqHYEH0Jd1BmpXszbXAnJrc487wzikKjMTHiY2fnzdCn87aIcfzXqDM2uX1WZnbffn4rWTmKpWNFcjW61K2Y0vt5tmjfCV+W9MaPz23moUHE/3VuJnLr6zD6ib8nkuPrdD4kNex2nnCgAA1r4m/Ye8t5Fe9vP+nptgJqIDAACmw3+5d/PG3zuF1C4j/sCTW6s3DC+Pe+HVcd+sF/75th3+8qoVTUOu2v1hzIpIfKRDrfL/U6GqWQ2j1z5NjVo2UVwrVD3YqIenuyvhyW5z5LXC4eOdZni41ci/YTLUTaXCw885aWc6yfMCAICbh5+FAADmRCosPFj2ANttEpRl0IRsDWuqWdC/Vq+E7ZVquLdeC/fX62Hf7L6JgH073lmtxb07VvJldCvWC0wymTtFb9X7s2tmK2ZpZaq4YlazGnZWNI8jG1alTIcEh0SIJpVLlFwFfxbF54LIAABYDBAdAABzwIPlVHAID6rTIPsy7Bti8C/RUbeCRIcCfBcbmeAwM689lbSUbrNWicvo6jP2P8tY5N93EfE9qrP9c6GTiQ7fkLAa53Pcs+s92GiER1vN8GTn80RH+izS5+HPLn1+AABQThAdAABzwgNmHxrkTCI0UvRRCYAY/JuQWDVRMcp0uOjYkBDIMx0mDOKu4HbdmO3QF+SXnyZ8l1jRZ+OO4xId+d4gEja6loTGoy0NqWrErEcUHXbdq+CCoyg8UhAfAADlhTkdAABzIA2gU9O8BeGrihQFyWVocni2klW2mtXr436c1+ErWGmex6uTfjgwf3DaD524+uBZnOuhZXft46O5HSqnSGREkWReIkfCJZoJDmU4smxKNqTrq51m+M3eSvh6L/MSJZ6N0WenQc/EJ43L/Jmk8zjcAACgnCA6AADmgDe9qdhwEy465KcJpvW16cRyLaH76kQTy3vhtYmNl0fduI/SSzOdO+pomXMze5+Eh30kig75ourQHhzZXhzZPI71RjXOD5Epu6EJ4g83G+EL819oqdw8yyJTNkRiQ/ci0TINLjjGrVYlE4gOAIByg+gAAJgTqfBIA2vhgsNFx6QBdaYVTMRYQb7dP4vL6B53B9G/MNHx7H03PD/shedWfqOsx2kvvDntx/dI88Rl0OPns+904lCsXHBowrqGcG2b2NheqcUMh5bG1epUWqVKS+ZKlGw0JUqq8XPW5dh96O9k+PPx55KKjnHPBtEBAFBeEB0AAHPEm2Dfd0KmcwqofUfZzwmqle0YDbeygP2FiQ3t3+F7eWh5XQkR+cN2396ffUb+vLCIbhQblaU4AV0TwrPdxuthb70WMxtP8+Vxn5rw2DBBkomUbK7JtKRdkz8XFx0uOGRppgMAAMoLogMAYI54E5wG1sKHDskUUKc2DXHD1lxEaBPBt61+eHPSCwcn5k/78fidmfxJZ2jC5MN8EGU7Rli5Vs1Wx2qYl+jYNGGx1axGv2sC5EGyWpYmlSu74StcTYOeSdEkNtxS0XGVZwIAADcPogMAYM54UO2/5Os4FRkyFx/+y/6kqIWPO5DHa4Rw2huGk65ZZ5B5Oz6V72pOx1noDtyyOSEfOI+CI5s4riV3l8NKPVuxSraulaualbApEWKmiePSGlblqSeO+/NIvcxf0zPwLMe0zwMAAOYDogMAoAS44PAgO8WD66sE2fGb7I+F7fa92SRzz2T4sCvtTq5jiQ0JD7dMdGSfE1Fo1LKNBeWV+aiZENGQq7hsbl6WVzVNLunPxHM4HN1/+jxSXHi56RgAAMoPogMAoASkgsMDbZVlCqzTX/ZnGWgrA6JeIA7DMgGSCY5haPUy0ZF1EJlXhmM1ZjiyTIcyGMpmZKtSxTfOBN2/iw553a+b3797GQAAlB9EBwBACXCx4UIjFSAeZLvw8EB7FgG3egBJCnmJDGU7egPzmtMxEh0ZymJoLocyGRo+pcvHIVT695lVSbuioujQPY8TG24AAFB+EB0AACVATbE3xwq23fyX/qLo8GD7c4PueEX7I3mh0VTDYTbxXKbsR4qvROWrUunS9ld/9P+zKN5/UXT4vcuL9BkAAED5QXQAAJQID74VbLuJcaJjloF37Ajsj8SHeoVo8ZUP6FK6WrxuPJEdzwK/b1kquOT93rWEsN8/AAAsFogOAICSoWa5KDoUaHvAfV3CYx54F+RiY5x30eEGAACLB6IDAKBkeMAtc9GR4sIjFR9+flFIu570fmVF/F7dAABg8aD1BgAoIS4sfEiVUHDuQ47cdC4N4BcJr3t6P+l9fUpcAQDA4oHoAAAoGR5gy1x0qFwM0D1oT23RSOuue3JRJdL7d+EFAACLCcOrAABKSNo0p8G4fCpKLrOy4MIiLbsVBZTq7fM3XHCJMt0PAABMB6IDAKCkePMsr8DcTcfpawrG0yFIXk4D9nnj9S7eg5vX3U11d3PKci8AADA9iA4AgJLjgXkauKdzO4rBejokyc/PC+9ivK5e7/R+RJrZSOs97/oDAMBsYJAsAEDJ8cDbA3MPwj2IH2dpQC/v5ZsivaaXVadxdU7r6qKjDIIJAABmB5kOAIAFIG2qi0F7EQ/Wi6ZAvvi6H6d+Erw+43zRLhNAuq4LKs92+HkAALgdIDoAABYEb649iPfMQXosn5oC92L2oOjdhPtPoe90itcaVy8/J/w64+pRPOfvBwCA2wGiAwBgwVCznVox85GaAvdiFkHm5TTQnyTY9y4jvX5RZOi67r3s15RVq9WPjqe5PgAALCaIDgCABWcwGERTgO9lN+HBfRrkp+YB/6TBvncbLjpkqdgoCg55XVdio1arRe91cQECAAC3G0QHAMCCUwzwUxMSE0Vx4eakXYGXi91D+n5RPNb7x5nq5SIjtVT4AADA7QbRAQCw4Cio9+Be3gWIH4/Dz6fvc+82jlSwyFw0+LG/x/FyKjD8/cXPAQDA7QXRAQCw4KTNuAuGVEAURUXqfViWW/paERcILhYuylykln5G5t+VegAAuN0gOgAAbhlq1r1pT0VEan7ORYd88TX/DicVDiqPEx2fEh+IDACAuw2iAwDgluHNuvw4c0EhS4dipefdUlxwuI0TFzJ/LX2fo2MAALh7IDoAAG4hadOeCohx5VRspOeLuGBIfSou0vPjzgEAwN0F0QEAcEe4rLmftju4SEggMgAAIAXRAQAAAAAA1wqLowMAAAAAwLWC6AAAAAAAgGskhP8DSVIAIZQWWAIAAAAASUVORK5CYII=;" vertex="1" parent="efof93Qg9sC8hvgrrkQ7-31">
          <mxGeometry x="62.210000000000036" y="16" width="167.79" height="20" as="geometry" />
        </mxCell>
        <mxCell id="efof93Qg9sC8hvgrrkQ7-35" value="" style="shape=image;verticalLabelPosition=bottom;labelBackgroundColor=default;verticalAlign=top;aspect=fixed;imageAspect=0;image=data:image/png,iVBORw0KGgoAAAANSUhEUgAAAx0AAABfCAYAAACN4appAAAAAXNSR0IArs4c6QAAAARnQU1BAACxjwv8YQUAAAAJcEhZcwAAFiUAABYlAUlSJPAAABy8SURBVHhe7Z1pcxvJkYaLxMn7EqWRZiSNZzze3QnP7obX//9HbGyEHWt7bM+hkzp44Qa5+VZ3QqVeiAQokGiQzyMls7pxdHV/qMoXWcfSuREAAAAAAACuieXcAwAAAAAAXAuIDgAAAAAAuFYQHQAAAAAAcK0gOgAAAAAA4FphIjkAwB3nqt3A0tJSXgIAALgYRAcAwC0nbeYnKYtxXUNRZPjxp847iBMAAEB0AADcUsaJitS7pcdOWnaKIkP+U2Vn3DkAALh7IDoAAG4hRQHhx16+yJy0LIrC4lOWvu7l1AMAwN0D0QEAcEsYJxjG+YvM3/MpimJieXn5/52bxgMAwN0A0QEAsOCkYqFoF+GvF/1lXEVA6D2ppecAAOD2g+gAAFhw1IyndnZ2NvKiGOg7sw74dU0nrY/wOqSZkdQAAOB2g+gAAFhwUpHh3k0oqL8o2E/LTvFYFLsLP5Z382Ovi5d1/dT0/WmdAADgdoPoAABYMLzZdp8G+G5+TqTBfdFEWhZpeRz+val3S4+9DvL6zrQexTqJogcAgNsDogMAYEHw5lreg/n0nJOWRRrcu/n51Iu0fBGfum56PrUi6bVTkxhx/D0AALD4IDoAABaAtKmW2EjN8SA9DeKL55y0LIrHk1DsPtJjL8uPsxRdW2LDzetylToBAEA5QXQAACwA3lTLD4fDKDbkZQrO3dLgPQ3gxU0H8Wn34vV1oZTej6hUKiPzexE3XWcAALgeEB0AACVHzbTMg3Uv+7EH6TIXGi46xDwDd9XPvdc5vQ+nWHd5LwMAwOKD6AAAKCnePMunAbufc4qBetHKQCo0xpnwusrrftzKcg8AAHB1EB0AACUkbZoVsKdDqlxMuI0THMJ9GfD7cT9OhPg51TsdbiXKdC8AADA95K0BAErKuKDcTSgQTzMCbjpftiDd6+R1lJhI6+v4/aX3LdwDAMBiQqYDAKBkeLAt8wA89R6sp0G7B+5pAF9m0nv0+3IT6b2l97go9wcAAB+D6AAAKBlpEK7hVH7OGReQi0UKyP1+5P1+U5/ek9+nGwAALB603gAAJcQDcDeRBt9eToPzRUL1dfN7Sk3oGfhcFpUBAGBxIdMBAFAi1CR7sO0mikF5GrRPS2z085Y/zzfYNWNhxKc6hvRqfmmrhRc+en0aXFjIUrElSyeV+70DAMBigegAACgBHnCLNOCW6EizAQq8Pei+iujQJexKubdrWeFM5ZH39+ldHyNxocvpivLL8foffDT7t6w3TInfv5tnOGTpvcuLq9w7AADMD0QHAEAJUFOsANuDbi/LK7hOg24Ptq8mOD4WGkMrRIvXstdyQaLXXXXkLoqJWBfzEhoVi/8rsW5Z+SMRkn9mUlQX97Feiejw+/d7LxoAAJQfRAcAQAnwAFtNsrzwAFyBtQuOVHRMg7f0LjgkMiQ2BrKh/Jkdf3j9zP6MOgcrqJwJDBccS6Eqq2Rexy489L4rVHGE7t9Fh2d63Pz+UwECAADlB9EBAFAC0l/2i82yiw23adBXSUjI61v7piz6JjJ6ue/0z0JnMIy+NzjLRIjZ0F6T+PCa6PMSGLUoNJZD3cqN2nJoVJdDM/c6V9Nr1Q/Cw/5GPw26//R5pLjgcEN0AAAsBogOAIA5o2bYf9V30eG/4rt5gD2p6PCWXYIjG0KVZTckLlr9YWj3Mn/cGZgNw5H5Vm8YhUdPosS8Pqev0XfJJCwkNCQyZBuNSlhvVMNGU74SVutmNfnlKD6U/bD/0U+DP4/Uuwk9gzTzAwAA5QfRAQAwR7wJluBwEx5Qy4oC5DK8VZdkkNhQdkNDqPomIk66mdA4yv2bk354cyrrhaP2ILSV+TBrmyBRxkPfFTMeZismJtZMWKyZwJDtrtbMqmFnrRZ2zG82q2HLbHOlGpomUJQR8SFY08gOFxippYLMBUdxjgsAAJQXRAcAwBzxJngwGIxEhwfW1Wo1eg+qJw2u9ZUWqkcv4RCzF4Pz0DXxcWjC4m2rH961zJvYeHHUNeuFF4fdKD5Oe8NwaoJEJrEiwZGJjvOwboJCWY0oLkxYPNioh/ub9ej31+thz8SHbNdM4qTuQ67MTysL0q7Jn4uekYSHnok/H4kOgfAAACg3iA4AgDnhza+8/5IvL/yXfBcd0wiOOKTKzL4uZiw0fCpmOMyU0Tg46YcD86MsR+4lSDoaelXIdGTf+XGmQ8OpJC72lO1Yq4Y9Ex337Pie+f31WtheqUWBsqHMh5lGWMX7sDpOqg/8+ei5uChLRYeeUZrpQHgAAJQXRAcAwBxIBYdMwbSb8KDaRcekSBz4alQSDUcmON6cmNAwUSGx8eq4F+2l2Ws7f5LP6ZAgaWtOxzDLiijLIeGiasaa2h9lLhrVpdHcjs18PoeExfZKNewr8yHRIR+zH7XoZRpipZWtMotVnRjPdKSiwwWHTERBg+gAACgtiA4AgDngYqNoRdEhmzSYto/HLMdodSoTD8pg/HrYDb++l3XC86NeeG7HMokPDb3SsCt5fU5L5ZobTSLXn7wUV6TKlsbN5mlo3oavXKVshg+1ksj4arsRnuyuhCc7zfB4txnfoyV1/TumQc/EBYdMzyN9NqkBAEA5QXQAAMyBVGik5hSD6svwj0osdCQkNCHc/EsTGT++aYe/H5iZl/h4dtiJXqJDn7Mrjz4/DVF8RBES4spVEhwPNhtRdHy91wzf3V8L3+2vml8NqyZOavmSuhIs0+BiIxUd40zPCwAAygktNADAnBgnNoQC6Glw4aAsh4ZUafUpzeF43x7EuRsSF5owLqGhIVVH7WxpXP/clbGPZkvyaoWs89DqZRPVNW8kDuGKk9SzrIqGd2kIlzIwV6EoMJz02RWfIwAAlAdEBwDAHPAA2UWHbFxgnQbYnyITHCEOi9KyuBIdx91BeN/KJoi/NgGgYVUaXqWy9uToSnS44LhirP7hutmQLu37IdHhc0c0b8RFh+oRRcdg+oulzyJ9HumzAwCAcoPoAACYE+OCZg+siwH2RejjspjpsOBfO4x7pkMrU8VMhwX+z8xipsNFR/65D1efDr+m5oFo4rk2F9R3S2BkmQ6Jjl54ZsLjwK6rfUE+J9Ph3svp80ufIQAAlI+ZzOnwTkdjib3TU4pfpl/e1KPlDgDgTuLyYclawlg+t+D7fGgN6NAa4rNQq1VDrWpmvpqvWJUG2BcR29q8zdX+GnHfjTi0qRd+PGiHP784DX9+mZkml+tf/n9maG64z9fQ3A2tYvV0rxknkz/dbYav91bC11bWXI+vdprxM5ffWYa6Kc3lcK9J5VpC1/ft8PkvmnwPAAAf/0Ajn84T9Plv6XtugpmIjq7Wde8NQsdMXks0uindPjxfiin4aBN3MwAAt4dlC/ErS+cxOK9Yub40CPXQj9ZYPgtb62thayOz1WZj1Bl45/Ap1IDH3caH2RK5Gt7087tO+OltJ/p/vOlE4aFJ5DK9L35ulorDUL+VTSrPJpfvrNbCo61GeJibJpP/Lrdv7q3E99sdRn8ZPoFcJqFxeno6sl6vN+pMvUMFALjrpO2ifpBpNBqhXq9HX6vVRudvst2cieg46fTD4Wk3HLbMzL841i63+qWtH960BkFDeAdnS+Yz8QEAcNeQ4Kia1UxgyK8v98L6ktlyN2zWhuHhvd3wcD8zCQ/vLFx8fAq14HF5XDPNl3jX6oe/vm6Hvx20wt/MS3xoydxn7zOvjMissxxCVfQ9OLQsrvbv0EaB99a1S3k9fP9wLfz+0Xr4wexfHqzl759MeKT7dPT7/fD27duRSXj4s5IBAEAI1Wo1igp5iYz19fWwtrYWbWVlJZ731xZKdLw76YbXh63wyuz1YTv8qF/Wcnt22As9ExzRTHQo6wEAcNeoLp2FhomNuokOZTa2K52wa7ZXbYd7jWH49vHD8M3jL8JvHz8K+7tbHwXSl4kOzc9w09yJP704za0VJ4/HHcjtvFaQiqLjmlA1VVP51VolbK5ku5HL/uOrjfBfTzbCHx5vhh++XB8JFPkLbi+SDqfqdrvh+fPn0Z49exYODw9Hz+iyZwUAcFeQmHBrNpthe3t7ZBIgynq4qe28CWYiOl6+b4d/HhyHnw5Oov3jbTf83Uz++VE/9HPBIR/neAAA3DGU3ZDgqJv4qC+fh50oOtpht9oJ9010fP/No/D9b76M9mh/5yPBcZno0MRxrVgl0+pU//3sJPxPbpo8/r41iJPKD9v9a802x1rmVdXGgeuNSlhrVKP/TxMdf3y6Gf74ZDMKkHSPDwmPi0hFh4ZT/fzzz+GXX36J/t27dyPBgegAAMiQ2PBMhoZUpaJjY2MjrK6uRlPW46bmw81E2mgDqrfWqf36vhf+8roTfjZ/cDoIJ73zmOHom+DIM/oAAHcStX/K9PbPl0P3bDm0hpVwNKiGd/1aeGN2PKiFzlk1nC99PMZ2kiBawkOmdlbzOrR8rQTIaW8Y987QjuPKcFx3Gxy/P7+InOqjRUa8TrKemTIyGg4W6zRBpVxUqGMsjkGewe9mAAC3Dl90Q0NS9WNNu90OJycnMTt8dHQUWq1WPH+TbejMRMc7Ex2/vO+a6GhH0fH6dBiOc9GhOR3qbOkbAOCucmZtYBQd1iZKdJya6DgeuuioW7kWuufVcJaIjkkEhxMDfGtkNU9cG/+1JTq6Eh3DGOQr8L8J4lXsj9r7WJ9YJwkPExpWD9VNpsnvk4oOURQe0zwbAIC7hsSEZ4mLokO2uKLDOjdNGP/FxMb/vhojOvJhVTd3WwAA5ULtnxbTGGU6zpJMR68ejqLoqITzpcnmcqSoz1AeQ7piYAfKJmSZjmzvDE0wj3M5bqgR1mVUJ10yExwfshya9J5lOjJBMsmuHUXBcRVRBgBwl/BMh0SH5sJJZBwfH4f3799H0eGr/y2c6FB1YwrdKq7ORabOJHY8uQEAwIc2Ue28duzQMuIKvP14NCliWryhNR/3ThpZduwvz4X84qqF7lN10imVRy9OCYIDAOByXFTIy3z58fT8TTET0QEAAOXAuw959SXxOB6oMD+8Ht6/jTq6OdcLAABuBkQHAMCCo7jdLZIfxMD+Bn/FuhBVJbos25GVAQDgrjAT0aEk97KWP1zKlkCMyyBqvG3+GklwAICMUbtof5Ys7NZO5WqI/fgqobh/34h4Qv/zwrxRXWJ9vE6fX6ubHBIAALCo+FBUnwdXnDN4k0NVZyI6mrXlsLdaDV9t18Pv7q+Ex+b31ypho74U16OvmlXsnm7utgAAyoXav7gjuTYJXD4Lq8vDsFkdhJ1aP+zVe2Gz0g+NpUFYOs/G26Zjbi8ltq/6sceuUQmhUV2Om/NpV3DtkaE2unpDjbAuoT5Mph+f9CNUza5dl1m9GtWlWJ9axepkr03S4ek5+KRI2VTPBgDgDuKLb2ivDu3ToT05tD+H9unY2tqKO5NrY8DFEx3WkexE0dEI3+2PER2x8zmPnRAAwF1k2dpAtYM1axMlOtYqw7BRMdFR7YW9Ws/KEh3DsHz+IaieNLBW02rxe9xkT4G8gvvV+nJYb1bDmomOhkSH3nDNxCvYHwmgWB/rYSR2anYgkSExpLrIS4Rog8BJq5UKj1R0qMO8yU4TAGARULvookPiQpsAaidyCQ6ZRMjCio5dEx1fmtj4br8ZRce9tWpYz0VHzTpadSx0CwBwV1H7F0WHZzpMdIwyHbnoaMZMx8dB9STCQ32GLAb51tgqm7BSr4SNuCN4JbbRCv7171pRPfJrxA7P6pJlOkxkWJ1kEhyqj87p9Un6u1RwuBWfC8IDAOADnunQjuRF0bG5uTkX0bFkDfdkP6VdwLuTbnh92AqvzF4ftsOPbzoje3bYi3t1RMs3xwIAuGtUJTZMdNRNcEh0bFc6YbfSDntm9xrD8O3jh+Ebs98+eRj2d7djh1EcezsOteDa98Lt4LQX/vTiNPz5RSv6X99b+3zSCwfR+ha8ayr37FENVU9VVabhXVsr1WibzWr49y/Xwx8eb4Y/PNkIv3+0HrMy+jFKXu+/CIkMrTXv680/f/58ZFpvXtf1ZwUAACGKDbdmsxmHVblJfEhwuN1U2zkT0XHS6YfD0244bJmZf3HcDy+Oemb9uGmgdiTXBoHaGEvrswMA3DWU5YhzOkxwyK8v9cL6ctd8N2zWhuHh/m74wuzR/l7Y2lj7SHBcJjq04V40a2zftvrhr69a4a+v22at8PO7Tnh+aIG62mTz2kdJn/FVpGaFqqg5HFpURGJiw4TG3lptZN8/XAs/PNoIP5j4+NcHa/H9ep8yIxfcXiTNcPT7/fD27duRacMrRAcAwMdoWJUPr5LwkNDQPA6Zsh46769d1MfMkpmIjm5/GNq9QeiYyR91hiNr2WvKbmQbVJnlqXcAgLuEVqmS8FCgXbFyPfRDzUy+aUJEQmNr3cz86kozdgIeTF+EGvC+CQ7t8C1/2B6Ef7zphH++7Zhvh5/M/2TCQ14CRO/J2uPZiQ616uqzfDiV/PZqLXyxUQ8PNjP73f218G9frEXB8e3+Snz/JIJDaGiVm7IdEhraTdd31J1UoAEA3BW8XZRJfGgyubIa8hIaft7bzptgJqIj7nprvdjQTOWBdX4fdia3N5jlDgDgTuJNupbFjeXzoTWeuYWzUM9/carVqqFqHYEH0Jd1BmpXszbXAnJrc487wzikKjMTHiY2fnzdCn87aIcfzXqDM2uX1WZnbffn4rWTmKpWNFcjW61K2Y0vt5tmjfCV+W9MaPz23moUHE/3VuJnLr6zD6ib8nkuPrdD4kNex2nnCgAA1r4m/Ye8t5Fe9vP+nptgJqIDAACmw3+5d/PG3zuF1C4j/sCTW6s3DC+Pe+HVcd+sF/75th3+8qoVTUOu2v1hzIpIfKRDrfL/U6GqWQ2j1z5NjVo2UVwrVD3YqIenuyvhyW5z5LXC4eOdZni41ci/YTLUTaXCw885aWc6yfMCAICbh5+FAADmRCosPFj2ANttEpRl0IRsDWuqWdC/Vq+E7ZVquLdeC/fX62Hf7L6JgH073lmtxb07VvJldCvWC0wymTtFb9X7s2tmK2ZpZaq4YlazGnZWNI8jG1alTIcEh0SIJpVLlFwFfxbF54LIAABYDBAdAABzwIPlVHAID6rTIPsy7Bti8C/RUbeCRIcCfBcbmeAwM689lbSUbrNWicvo6jP2P8tY5N93EfE9qrP9c6GTiQ7fkLAa53Pcs+s92GiER1vN8GTn80RH+izS5+HPLn1+AABQThAdAABzwgNmHxrkTCI0UvRRCYAY/JuQWDVRMcp0uOjYkBDIMx0mDOKu4HbdmO3QF+SXnyZ8l1jRZ+OO4xId+d4gEja6loTGoy0NqWrErEcUHXbdq+CCoyg8UhAfAADlhTkdAABzIA2gU9O8BeGrihQFyWVocni2klW2mtXr436c1+ErWGmex6uTfjgwf3DaD524+uBZnOuhZXft46O5HSqnSGREkWReIkfCJZoJDmU4smxKNqTrq51m+M3eSvh6L/MSJZ6N0WenQc/EJ43L/Jmk8zjcAACgnCA6AADmgDe9qdhwEy465KcJpvW16cRyLaH76kQTy3vhtYmNl0fduI/SSzOdO+pomXMze5+Eh30kig75ourQHhzZXhzZPI71RjXOD5Epu6EJ4g83G+EL819oqdw8yyJTNkRiQ/ci0TINLjjGrVYlE4gOAIByg+gAAJgTqfBIA2vhgsNFx6QBdaYVTMRYQb7dP4vL6B53B9G/MNHx7H03PD/shedWfqOsx2kvvDntx/dI88Rl0OPns+904lCsXHBowrqGcG2b2NheqcUMh5bG1epUWqVKS+ZKlGw0JUqq8XPW5dh96O9k+PPx55KKjnHPBtEBAFBeEB0AAHPEm2Dfd0KmcwqofUfZzwmqle0YDbeygP2FiQ3t3+F7eWh5XQkR+cN2396ffUb+vLCIbhQblaU4AV0TwrPdxuthb70WMxtP8+Vxn5rw2DBBkomUbK7JtKRdkz8XFx0uOGRppgMAAMoLogMAYI54E5wG1sKHDskUUKc2DXHD1lxEaBPBt61+eHPSCwcn5k/78fidmfxJZ2jC5MN8EGU7Rli5Vs1Wx2qYl+jYNGGx1axGv2sC5EGyWpYmlSu74StcTYOeSdEkNtxS0XGVZwIAADcPogMAYM54UO2/5Os4FRkyFx/+y/6kqIWPO5DHa4Rw2huGk65ZZ5B5Oz6V72pOx1noDtyyOSEfOI+CI5s4riV3l8NKPVuxSraulaualbApEWKmiePSGlblqSeO+/NIvcxf0zPwLMe0zwMAAOYDogMAoAS44PAgO8WD66sE2fGb7I+F7fa92SRzz2T4sCvtTq5jiQ0JD7dMdGSfE1Fo1LKNBeWV+aiZENGQq7hsbl6WVzVNLunPxHM4HN1/+jxSXHi56RgAAMoPogMAoASkgsMDbZVlCqzTX/ZnGWgrA6JeIA7DMgGSCY5haPUy0ZF1EJlXhmM1ZjiyTIcyGMpmZKtSxTfOBN2/iw553a+b3797GQAAlB9EBwBACXCx4UIjFSAeZLvw8EB7FgG3egBJCnmJDGU7egPzmtMxEh0ZymJoLocyGRo+pcvHIVT695lVSbuioujQPY8TG24AAFB+EB0AACVATbE3xwq23fyX/qLo8GD7c4PueEX7I3mh0VTDYTbxXKbsR4qvROWrUunS9ld/9P+zKN5/UXT4vcuL9BkAAED5QXQAAJQID74VbLuJcaJjloF37Ajsj8SHeoVo8ZUP6FK6WrxuPJEdzwK/b1kquOT93rWEsN8/AAAsFogOAICSoWa5KDoUaHvAfV3CYx54F+RiY5x30eEGAACLB6IDAKBkeMAtc9GR4sIjFR9+flFIu570fmVF/F7dAABg8aD1BgAoIS4sfEiVUHDuQ47cdC4N4BcJr3t6P+l9fUpcAQDA4oHoAAAoGR5gy1x0qFwM0D1oT23RSOuue3JRJdL7d+EFAACLCcOrAABKSNo0p8G4fCpKLrOy4MIiLbsVBZTq7fM3XHCJMt0PAABMB6IDAKCkePMsr8DcTcfpawrG0yFIXk4D9nnj9S7eg5vX3U11d3PKci8AADA9iA4AgJLjgXkauKdzO4rBejokyc/PC+9ivK5e7/R+RJrZSOs97/oDAMBsYJAsAEDJ8cDbA3MPwj2IH2dpQC/v5ZsivaaXVadxdU7r6qKjDIIJAABmB5kOAIAFIG2qi0F7EQ/Wi6ZAvvi6H6d+Erw+43zRLhNAuq4LKs92+HkAALgdIDoAABYEb649iPfMQXosn5oC92L2oOjdhPtPoe90itcaVy8/J/w64+pRPOfvBwCA2wGiAwBgwVCznVox85GaAvdiFkHm5TTQnyTY9y4jvX5RZOi67r3s15RVq9WPjqe5PgAALCaIDgCABWcwGERTgO9lN+HBfRrkp+YB/6TBvncbLjpkqdgoCg55XVdio1arRe91cQECAAC3G0QHAMCCUwzwUxMSE0Vx4eakXYGXi91D+n5RPNb7x5nq5SIjtVT4AADA7QbRAQCw4Cio9+Be3gWIH4/Dz6fvc+82jlSwyFw0+LG/x/FyKjD8/cXPAQDA7QXRAQCw4KTNuAuGVEAURUXqfViWW/paERcILhYuylykln5G5t+VegAAuN0gOgAAbhlq1r1pT0VEan7ORYd88TX/DicVDiqPEx2fEh+IDACAuw2iAwDgluHNuvw4c0EhS4dipefdUlxwuI0TFzJ/LX2fo2MAALh7IDoAAG4hadOeCohx5VRspOeLuGBIfSou0vPjzgEAwN0F0QEAcEe4rLmftju4SEggMgAAIAXRAQAAAAAA1wqLowMAAAAAwLWC6AAAAAAAgGskhP8DSVIAIZQWWAIAAAAASUVORK5CYII=;" vertex="1" parent="efof93Qg9sC8hvgrrkQ7-31">
          <mxGeometry x="62.210000000000036" y="30" width="167.79" height="20" as="geometry" />
        </mxCell>
        <mxCell id="efof93Qg9sC8hvgrrkQ7-37" value="&lt;font style=&quot;font-size: 22px;&quot;&gt;ここにカレンダーを表示&lt;/font&gt;" style="rounded=0;whiteSpace=wrap;html=1;" vertex="1" parent="1">
          <mxGeometry x="90" y="100" width="440" height="430" as="geometry" />
        </mxCell>
      </root>
    </mxGraphModel>
  </diagram>
</mxfile>
